<?xml version="1.0" encoding="utf-8"?>
<!-- Generator: Adobe Illustrator 23.0.6, SVG Export Plug-In . SVG Version: 6.00 Build 0)  -->
<svg version="1.1" id="Capa_1" xmlns="http://www.w3.org/2000/svg" xmlns:xlink="http://www.w3.org/1999/xlink" x="0px" y="0px"
	 viewBox="0 0 682.3 562.7" style="enable-background:new 0 0 682.3 562.7;" xml:space="preserve">
<style type="text/css">
	.st0{clip-path:url(#SVGID_2_);}
	.st1{clip-path:url(#SVGID_4_);}
	.st2{fill:#954524;}
	.st3{fill:#A5756A;}
	.st4{fill:#592718;}
	.st5{fill:#441A11;}
	.st6{fill:#280E09;}
	.st7{opacity:0.89;clip-path:url(#SVGID_6_);}
	.st8{fill:#DD7F2A;}
	.st9{fill:#F4F3F2;}
	.st10{fill:#BA3C0F;}
	.st11{clip-path:url(#SVGID_8_);fill:#BC967D;}
	.st12{clip-path:url(#SVGID_10_);fill:#BC967D;}
	.st13{clip-path:url(#SVGID_12_);fill:#D1A288;}
	.st14{clip-path:url(#SVGID_14_);fill:url(#SVGID_15_);}
	.st15{clip-path:url(#SVGID_17_);fill:#A0918B;}
	.st16{clip-path:url(#SVGID_19_);fill:#BFB1AC;}
	.st17{clip-path:url(#SVGID_21_);fill:#BFB1AC;}
	.st18{clip-path:url(#SVGID_23_);fill:#E8E8E8;}
	.st19{clip-path:url(#SVGID_25_);fill:#DAE5EF;}
	.st20{clip-path:url(#SVGID_27_);fill:#DAE5EF;}
	.st21{clip-path:url(#SVGID_29_);}
	.st22{fill:#867971;}
	.st23{fill:none;stroke:#565351;stroke-width:2;stroke-miterlimit:10;}
	.st24{fill:#FFFFFF;}
	.st25{fill:#635852;}
	.st26{fill:#0097FE;}
	.st27{fill:none;stroke:#635852;stroke-width:2;stroke-miterlimit:10;}
	.st28{fill:#965636;}
	.st29{fill:none;stroke:#563A2E;stroke-width:7;stroke-miterlimit:10;}
	.st30{fill:none;stroke:#563A2E;stroke-width:2;stroke-miterlimit:10;}
	.st31{fill:#705C54;}
	.st32{fill:#847067;}
	.st33{fill:none;stroke:#705C54;stroke-width:3;stroke-miterlimit:10;}
	.st34{fill:none;stroke:#705C54;stroke-width:6;stroke-miterlimit:10;}
	.st35{fill:none;stroke:#6D3E2B;stroke-miterlimit:10;}
	.st36{fill:#563A2E;}
	.st37{clip-path:url(#SVGID_31_);}
	.st38{fill-rule:evenodd;clip-rule:evenodd;fill:#998675;}
	.st39{fill-rule:evenodd;clip-rule:evenodd;fill:#978474;}
	.st40{fill-rule:evenodd;clip-rule:evenodd;fill:#958372;}
	.st41{fill-rule:evenodd;clip-rule:evenodd;fill:#948171;}
	.st42{fill-rule:evenodd;clip-rule:evenodd;fill:#927F6F;}
	.st43{fill-rule:evenodd;clip-rule:evenodd;fill:#907E6E;}
	.st44{fill-rule:evenodd;clip-rule:evenodd;fill:#8E7C6C;}
	.st45{fill-rule:evenodd;clip-rule:evenodd;fill:#8C7A6B;}
	.st46{fill-rule:evenodd;clip-rule:evenodd;fill:#8B796A;}
	.st47{fill-rule:evenodd;clip-rule:evenodd;fill:#897768;}
	.st48{fill-rule:evenodd;clip-rule:evenodd;fill:#877567;}
	.st49{fill-rule:evenodd;clip-rule:evenodd;fill:#857465;}
	.st50{fill-rule:evenodd;clip-rule:evenodd;fill:#837264;}
	.st51{fill-rule:evenodd;clip-rule:evenodd;fill:#817062;}
	.st52{fill-rule:evenodd;clip-rule:evenodd;fill:#806F61;}
	.st53{fill-rule:evenodd;clip-rule:evenodd;fill:#7E6D60;}
	.st54{fill-rule:evenodd;clip-rule:evenodd;fill:#7C6B5E;}
	.st55{fill-rule:evenodd;clip-rule:evenodd;fill:#7A6A5D;}
	.st56{fill-rule:evenodd;clip-rule:evenodd;fill:#78685B;}
	.st57{fill-rule:evenodd;clip-rule:evenodd;fill:#77665A;}
	.st58{fill-rule:evenodd;clip-rule:evenodd;fill:#756558;}
	.st59{fill-rule:evenodd;clip-rule:evenodd;fill:#736357;}
	.st60{fill-rule:evenodd;clip-rule:evenodd;fill:url(#SVGID_32_);}
	.st61{fill-rule:evenodd;clip-rule:evenodd;fill:url(#SVGID_33_);}
	.st62{fill-rule:evenodd;clip-rule:evenodd;fill:url(#SVGID_34_);}
	.st63{fill-rule:evenodd;clip-rule:evenodd;fill:url(#SVGID_35_);}
	.st64{fill-rule:evenodd;clip-rule:evenodd;fill:url(#SVGID_36_);}
	.st65{fill-rule:evenodd;clip-rule:evenodd;fill:url(#SVGID_37_);}
	.st66{fill-rule:evenodd;clip-rule:evenodd;fill:url(#SVGID_38_);}
	.st67{fill-rule:evenodd;clip-rule:evenodd;fill:url(#SVGID_39_);}
	.st68{fill-rule:evenodd;clip-rule:evenodd;fill:url(#SVGID_40_);}
	.st69{fill-rule:evenodd;clip-rule:evenodd;fill:url(#SVGID_41_);}
	.st70{fill-rule:evenodd;clip-rule:evenodd;fill:url(#SVGID_42_);}
	.st71{fill-rule:evenodd;clip-rule:evenodd;fill:url(#SVGID_43_);}
	.st72{opacity:0.52;}
	.st73{fill-rule:evenodd;clip-rule:evenodd;fill:url(#SVGID_44_);}
	.st74{fill-rule:evenodd;clip-rule:evenodd;fill:url(#SVGID_45_);}
	.st75{fill-rule:evenodd;clip-rule:evenodd;fill:url(#SVGID_46_);}
	.st76{fill-rule:evenodd;clip-rule:evenodd;fill:url(#SVGID_47_);}
	.st77{fill-rule:evenodd;clip-rule:evenodd;fill:url(#SVGID_48_);}
	.st78{fill-rule:evenodd;clip-rule:evenodd;fill:url(#SVGID_49_);}
	.st79{fill-rule:evenodd;clip-rule:evenodd;fill:url(#SVGID_50_);}
	.st80{fill-rule:evenodd;clip-rule:evenodd;fill:url(#SVGID_51_);}
	.st81{fill-rule:evenodd;clip-rule:evenodd;fill:url(#SVGID_52_);}
	.st82{fill-rule:evenodd;clip-rule:evenodd;fill:url(#SVGID_53_);}
	.st83{fill-rule:evenodd;clip-rule:evenodd;fill:url(#SVGID_54_);}
	.st84{fill-rule:evenodd;clip-rule:evenodd;fill:url(#SVGID_55_);}
	.st85{fill-rule:evenodd;clip-rule:evenodd;fill:url(#SVGID_56_);}
	.st86{fill-rule:evenodd;clip-rule:evenodd;fill:url(#SVGID_57_);}
	.st87{fill-rule:evenodd;clip-rule:evenodd;fill:url(#SVGID_58_);}
	.st88{fill-rule:evenodd;clip-rule:evenodd;fill:url(#SVGID_59_);}
	.st89{fill-rule:evenodd;clip-rule:evenodd;fill:url(#SVGID_60_);}
	.st90{fill-rule:evenodd;clip-rule:evenodd;fill:url(#SVGID_61_);}
	.st91{fill-rule:evenodd;clip-rule:evenodd;fill:url(#SVGID_62_);}
	.st92{fill-rule:evenodd;clip-rule:evenodd;fill:url(#SVGID_63_);}
	.st93{fill-rule:evenodd;clip-rule:evenodd;fill:url(#SVGID_64_);}
	.st94{fill-rule:evenodd;clip-rule:evenodd;fill:url(#SVGID_65_);}
	.st95{fill-rule:evenodd;clip-rule:evenodd;fill:url(#SVGID_66_);}
	.st96{fill-rule:evenodd;clip-rule:evenodd;fill:url(#SVGID_67_);}
	.st97{fill-rule:evenodd;clip-rule:evenodd;fill:url(#SVGID_68_);}
	.st98{fill-rule:evenodd;clip-rule:evenodd;fill:url(#SVGID_69_);}
	.st99{fill-rule:evenodd;clip-rule:evenodd;fill:url(#SVGID_70_);}
	.st100{fill-rule:evenodd;clip-rule:evenodd;fill:url(#SVGID_71_);}
	.st101{fill-rule:evenodd;clip-rule:evenodd;fill:url(#SVGID_72_);}
	.st102{fill-rule:evenodd;clip-rule:evenodd;fill:url(#SVGID_73_);}
	.st103{fill-rule:evenodd;clip-rule:evenodd;fill:url(#SVGID_74_);}
	.st104{fill-rule:evenodd;clip-rule:evenodd;fill:url(#SVGID_75_);}
	.st105{fill-rule:evenodd;clip-rule:evenodd;fill:url(#SVGID_76_);}
	.st106{fill-rule:evenodd;clip-rule:evenodd;fill:url(#SVGID_77_);}
	.st107{fill-rule:evenodd;clip-rule:evenodd;fill:url(#SVGID_78_);}
	.st108{fill-rule:evenodd;clip-rule:evenodd;fill:url(#SVGID_79_);}
	.st109{fill-rule:evenodd;clip-rule:evenodd;fill:url(#SVGID_80_);}
	.st110{fill-rule:evenodd;clip-rule:evenodd;fill:url(#SVGID_81_);}
	.st111{fill-rule:evenodd;clip-rule:evenodd;fill:url(#SVGID_82_);}
	.st112{fill-rule:evenodd;clip-rule:evenodd;fill:url(#SVGID_83_);}
	.st113{fill-rule:evenodd;clip-rule:evenodd;fill:url(#SVGID_84_);}
	.st114{fill-rule:evenodd;clip-rule:evenodd;fill:url(#SVGID_85_);}
	.st115{fill-rule:evenodd;clip-rule:evenodd;fill:url(#SVGID_86_);}
	.st116{fill-rule:evenodd;clip-rule:evenodd;fill:url(#SVGID_87_);}
	.st117{fill-rule:evenodd;clip-rule:evenodd;fill:url(#SVGID_88_);}
	.st118{fill-rule:evenodd;clip-rule:evenodd;fill:url(#SVGID_89_);}
	.st119{fill-rule:evenodd;clip-rule:evenodd;fill:url(#SVGID_90_);}
	.st120{fill-rule:evenodd;clip-rule:evenodd;fill:url(#SVGID_91_);}
	.st121{fill-rule:evenodd;clip-rule:evenodd;fill:url(#SVGID_92_);}
	.st122{fill-rule:evenodd;clip-rule:evenodd;fill:url(#SVGID_93_);}
	.st123{fill-rule:evenodd;clip-rule:evenodd;fill:url(#SVGID_94_);}
	.st124{fill-rule:evenodd;clip-rule:evenodd;fill:url(#SVGID_95_);}
	.st125{clip-path:url(#SVGID_97_);}
	.st126{fill:url(#SVGID_98_);}
	.st127{fill:#6CD0F5;}
	.st128{fill:#69B8D4;}
	.st129{fill:none;}
	.st130{fill:#E8F7F6;}
	.st131{fill:#DFEFEE;}
	.st132{fill:#E3BB7C;}
	.st133{fill:#D3A56A;}
	.st134{fill:#F2F0ED;}
	.st135{fill:#DDD9D4;}
	.st136{fill:#644930;}
	.st137{fill:#C39669;}
	.st138{fill:#A87441;}
	.st139{fill:#555A4C;}
	.st140{fill:#49321F;}
	.st141{fill:#4A3729;}
	.st142{fill:#755A48;}
	.st143{fill:#865932;}
	.st144{fill:none;stroke:#C1916C;stroke-width:4;stroke-miterlimit:10;}
	.st145{fill:none;stroke:#F9F9F9;stroke-miterlimit:10;}
	.st146{fill:#E8E8E8;}
	.st147{clip-path:url(#SVGID_100_);}
	.st148{fill:url(#SVGID_101_);}
	.st149{fill:#8E8684;}
	.st150{fill:#6C5A46;}
	.st151{opacity:0.47;}
	.st152{fill:#AD9279;}
	.st153{fill:#382F27;}
	.st154{fill:#937A65;}
	.st155{fill:#514336;}
	.st156{fill:none;stroke:#514336;stroke-width:3;stroke-miterlimit:10;}
	.st157{fill:#5E4F3F;}
	.st158{fill:#846C57;}
	.st159{fill:#6E9967;}
	.st160{fill:#42913E;}
	.st161{fill:#6AAA60;}
	.st162{fill:#65A544;}
	.st163{fill:#777271;}
	.st164{fill:#5A8E3C;}
	.st165{fill:none;stroke:#545450;stroke-width:4;stroke-miterlimit:10;}
	.st166{fill:none;stroke:#545450;stroke-width:5;stroke-miterlimit:10;}
	.st167{fill:none;stroke:#545450;stroke-width:6;stroke-miterlimit:10;}
	.st168{fill:none;stroke:#545450;stroke-width:8;stroke-miterlimit:10;}
	.st169{fill:#44372C;}
	.st170{clip-path:url(#SVGID_103_);}
	.st171{clip-path:url(#SVGID_105_);}
	.st172{fill:url(#SVGID_106_);}
	.st173{fill:#66A8DA;}
	.st174{fill:#E2994C;}
	.st175{fill:#7F7E7C;}
	.st176{fill:#A8A59D;}
	.st177{fill:#7A8F35;}
	.st178{fill:#5E6B26;}
	.st179{fill:#D6D1CC;}
	.st180{fill:#AF947B;}
	.st181{fill:none;stroke:#AF947B;stroke-width:3;stroke-miterlimit:10;}
	.st182{fill:#EDECE8;}
	.st183{fill:#C6BDA8;}
	.st184{fill:none;stroke:#FFFFFF;stroke-width:3;stroke-miterlimit:10;}
	.st185{fill-rule:evenodd;clip-rule:evenodd;fill:#2B6DAF;}
	.st186{fill:none;stroke:#AAA69B;stroke-width:4;stroke-miterlimit:10;}
	.st187{fill-rule:evenodd;clip-rule:evenodd;fill:url(#SVGID_107_);}
	.st188{fill-rule:evenodd;clip-rule:evenodd;fill:url(#SVGID_108_);}
	.st189{fill-rule:evenodd;clip-rule:evenodd;fill:url(#SVGID_109_);}
	.st190{fill-rule:evenodd;clip-rule:evenodd;fill:url(#SVGID_110_);}
	.st191{fill-rule:evenodd;clip-rule:evenodd;fill:url(#SVGID_111_);}
	.st192{fill-rule:evenodd;clip-rule:evenodd;fill:url(#SVGID_112_);}
	.st193{fill-rule:evenodd;clip-rule:evenodd;fill:url(#SVGID_113_);}
	.st194{fill-rule:evenodd;clip-rule:evenodd;fill:url(#SVGID_114_);}
	.st195{fill-rule:evenodd;clip-rule:evenodd;fill:url(#SVGID_115_);}
	.st196{fill-rule:evenodd;clip-rule:evenodd;fill:url(#SVGID_116_);}
	.st197{fill-rule:evenodd;clip-rule:evenodd;fill:url(#SVGID_117_);}
	.st198{fill-rule:evenodd;clip-rule:evenodd;fill:url(#SVGID_118_);}
	.st199{fill-rule:evenodd;clip-rule:evenodd;fill:url(#SVGID_119_);}
	.st200{fill-rule:evenodd;clip-rule:evenodd;fill:url(#SVGID_120_);}
	.st201{fill-rule:evenodd;clip-rule:evenodd;fill:url(#SVGID_121_);}
	.st202{fill-rule:evenodd;clip-rule:evenodd;fill:url(#SVGID_122_);}
	.st203{fill-rule:evenodd;clip-rule:evenodd;fill:url(#SVGID_123_);}
	.st204{fill-rule:evenodd;clip-rule:evenodd;fill:url(#SVGID_124_);}
	.st205{fill-rule:evenodd;clip-rule:evenodd;fill:url(#SVGID_125_);}
	.st206{fill-rule:evenodd;clip-rule:evenodd;fill:url(#SVGID_126_);}
	.st207{fill-rule:evenodd;clip-rule:evenodd;fill:url(#SVGID_127_);}
	.st208{fill-rule:evenodd;clip-rule:evenodd;fill:url(#SVGID_128_);}
	.st209{fill-rule:evenodd;clip-rule:evenodd;fill:url(#SVGID_129_);}
	.st210{fill-rule:evenodd;clip-rule:evenodd;fill:url(#SVGID_130_);}
	.st211{fill-rule:evenodd;clip-rule:evenodd;fill:url(#SVGID_131_);}
	.st212{fill-rule:evenodd;clip-rule:evenodd;fill:url(#SVGID_132_);}
	.st213{fill-rule:evenodd;clip-rule:evenodd;fill:url(#SVGID_133_);}
	.st214{fill-rule:evenodd;clip-rule:evenodd;fill:url(#SVGID_134_);}
	.st215{fill-rule:evenodd;clip-rule:evenodd;fill:url(#SVGID_135_);}
	.st216{fill-rule:evenodd;clip-rule:evenodd;fill:url(#SVGID_136_);}
	.st217{fill-rule:evenodd;clip-rule:evenodd;fill:url(#SVGID_137_);}
	.st218{fill-rule:evenodd;clip-rule:evenodd;fill:url(#SVGID_138_);}
	.st219{fill-rule:evenodd;clip-rule:evenodd;fill:url(#SVGID_139_);}
	.st220{fill-rule:evenodd;clip-rule:evenodd;fill:url(#SVGID_140_);}
	.st221{fill-rule:evenodd;clip-rule:evenodd;fill:url(#SVGID_141_);}
	.st222{fill-rule:evenodd;clip-rule:evenodd;fill:url(#SVGID_142_);}
	.st223{fill-rule:evenodd;clip-rule:evenodd;fill:url(#SVGID_143_);}
	.st224{fill-rule:evenodd;clip-rule:evenodd;fill:url(#SVGID_144_);}
	.st225{fill-rule:evenodd;clip-rule:evenodd;fill:url(#SVGID_145_);}
	.st226{fill-rule:evenodd;clip-rule:evenodd;fill:url(#SVGID_146_);}
	.st227{fill-rule:evenodd;clip-rule:evenodd;fill:url(#SVGID_147_);}
	.st228{fill-rule:evenodd;clip-rule:evenodd;fill:url(#SVGID_148_);}
	.st229{fill-rule:evenodd;clip-rule:evenodd;fill:url(#SVGID_149_);}
	.st230{fill-rule:evenodd;clip-rule:evenodd;fill:url(#SVGID_150_);}
	.st231{fill-rule:evenodd;clip-rule:evenodd;fill:url(#SVGID_151_);}
	.st232{fill-rule:evenodd;clip-rule:evenodd;fill:url(#SVGID_152_);}
	.st233{fill-rule:evenodd;clip-rule:evenodd;fill:url(#SVGID_153_);}
	.st234{fill-rule:evenodd;clip-rule:evenodd;fill:url(#SVGID_154_);}
	.st235{fill-rule:evenodd;clip-rule:evenodd;fill:url(#SVGID_155_);}
	.st236{fill-rule:evenodd;clip-rule:evenodd;fill:url(#SVGID_156_);}
	.st237{fill-rule:evenodd;clip-rule:evenodd;fill:url(#SVGID_157_);}
	.st238{fill-rule:evenodd;clip-rule:evenodd;fill:url(#SVGID_158_);}
	.st239{fill-rule:evenodd;clip-rule:evenodd;fill:url(#SVGID_159_);}
	.st240{fill-rule:evenodd;clip-rule:evenodd;fill:url(#SVGID_160_);}
	.st241{fill-rule:evenodd;clip-rule:evenodd;fill:url(#SVGID_161_);}
	.st242{fill-rule:evenodd;clip-rule:evenodd;fill:url(#SVGID_162_);}
	.st243{fill-rule:evenodd;clip-rule:evenodd;fill:url(#SVGID_163_);}
	.st244{fill-rule:evenodd;clip-rule:evenodd;fill:url(#SVGID_164_);}
	.st245{fill-rule:evenodd;clip-rule:evenodd;fill:url(#SVGID_165_);}
	.st246{fill-rule:evenodd;clip-rule:evenodd;fill:url(#SVGID_166_);}
	.st247{fill-rule:evenodd;clip-rule:evenodd;fill:url(#SVGID_167_);}
	.st248{fill-rule:evenodd;clip-rule:evenodd;fill:url(#SVGID_168_);}
	.st249{fill-rule:evenodd;clip-rule:evenodd;fill:url(#SVGID_169_);}
	.st250{fill-rule:evenodd;clip-rule:evenodd;fill:url(#SVGID_170_);}
	.st251{fill-rule:evenodd;clip-rule:evenodd;fill:url(#SVGID_171_);}
	.st252{fill-rule:evenodd;clip-rule:evenodd;fill:url(#SVGID_172_);}
	.st253{fill-rule:evenodd;clip-rule:evenodd;fill:url(#SVGID_173_);}
	.st254{fill-rule:evenodd;clip-rule:evenodd;fill:url(#SVGID_174_);}
	.st255{fill-rule:evenodd;clip-rule:evenodd;fill:url(#SVGID_175_);}
	.st256{fill-rule:evenodd;clip-rule:evenodd;fill:url(#SVGID_176_);}
	.st257{fill-rule:evenodd;clip-rule:evenodd;fill:url(#SVGID_177_);}
	.st258{fill-rule:evenodd;clip-rule:evenodd;fill:url(#SVGID_178_);}
	.st259{fill-rule:evenodd;clip-rule:evenodd;fill:url(#SVGID_179_);}
	.st260{fill-rule:evenodd;clip-rule:evenodd;fill:url(#SVGID_180_);}
	.st261{fill-rule:evenodd;clip-rule:evenodd;fill:url(#SVGID_181_);}
	.st262{fill-rule:evenodd;clip-rule:evenodd;fill:url(#SVGID_182_);}
	.st263{fill-rule:evenodd;clip-rule:evenodd;fill:url(#SVGID_183_);}
	.st264{fill-rule:evenodd;clip-rule:evenodd;fill:url(#SVGID_184_);}
	.st265{fill-rule:evenodd;clip-rule:evenodd;fill:url(#SVGID_185_);}
	.st266{fill-rule:evenodd;clip-rule:evenodd;fill:url(#SVGID_186_);}
	.st267{fill-rule:evenodd;clip-rule:evenodd;fill:url(#SVGID_187_);}
	.st268{fill-rule:evenodd;clip-rule:evenodd;fill:url(#SVGID_188_);}
	.st269{fill-rule:evenodd;clip-rule:evenodd;fill:url(#SVGID_189_);}
	.st270{fill-rule:evenodd;clip-rule:evenodd;fill:url(#SVGID_190_);}
	.st271{fill-rule:evenodd;clip-rule:evenodd;fill:url(#SVGID_191_);}
	.st272{fill-rule:evenodd;clip-rule:evenodd;fill:url(#SVGID_192_);}
	.st273{fill-rule:evenodd;clip-rule:evenodd;fill:url(#SVGID_193_);}
	.st274{fill-rule:evenodd;clip-rule:evenodd;fill:url(#SVGID_194_);}
	.st275{fill-rule:evenodd;clip-rule:evenodd;fill:url(#SVGID_195_);}
	.st276{fill-rule:evenodd;clip-rule:evenodd;fill:url(#SVGID_196_);}
	.st277{fill-rule:evenodd;clip-rule:evenodd;fill:url(#SVGID_197_);}
	.st278{fill-rule:evenodd;clip-rule:evenodd;fill:url(#SVGID_198_);}
	.st279{fill-rule:evenodd;clip-rule:evenodd;fill:url(#SVGID_199_);}
	.st280{fill-rule:evenodd;clip-rule:evenodd;fill:url(#SVGID_200_);}
	.st281{fill-rule:evenodd;clip-rule:evenodd;fill:url(#SVGID_201_);}
	.st282{fill-rule:evenodd;clip-rule:evenodd;fill:url(#SVGID_202_);}
	.st283{fill-rule:evenodd;clip-rule:evenodd;fill:url(#SVGID_203_);}
	.st284{fill-rule:evenodd;clip-rule:evenodd;fill:url(#SVGID_204_);}
	.st285{fill-rule:evenodd;clip-rule:evenodd;fill:url(#SVGID_205_);}
	.st286{fill-rule:evenodd;clip-rule:evenodd;fill:url(#SVGID_206_);}
	.st287{fill-rule:evenodd;clip-rule:evenodd;fill:url(#SVGID_207_);}
	.st288{fill-rule:evenodd;clip-rule:evenodd;fill:url(#SVGID_208_);}
	.st289{fill-rule:evenodd;clip-rule:evenodd;fill:url(#SVGID_209_);}
	.st290{fill-rule:evenodd;clip-rule:evenodd;fill:url(#SVGID_210_);}
	.st291{fill-rule:evenodd;clip-rule:evenodd;fill:url(#SVGID_211_);}
	.st292{fill-rule:evenodd;clip-rule:evenodd;fill:url(#SVGID_212_);}
	.st293{fill-rule:evenodd;clip-rule:evenodd;fill:url(#SVGID_213_);}
	.st294{fill-rule:evenodd;clip-rule:evenodd;fill:url(#SVGID_214_);}
	.st295{fill-rule:evenodd;clip-rule:evenodd;fill:url(#SVGID_215_);}
	.st296{fill-rule:evenodd;clip-rule:evenodd;fill:url(#SVGID_216_);}
	.st297{fill-rule:evenodd;clip-rule:evenodd;fill:url(#SVGID_217_);}
	.st298{fill-rule:evenodd;clip-rule:evenodd;fill:url(#SVGID_218_);}
	.st299{fill-rule:evenodd;clip-rule:evenodd;fill:url(#SVGID_219_);}
	.st300{fill-rule:evenodd;clip-rule:evenodd;fill:url(#SVGID_220_);}
	.st301{fill-rule:evenodd;clip-rule:evenodd;fill:url(#SVGID_221_);}
	.st302{fill-rule:evenodd;clip-rule:evenodd;fill:url(#SVGID_222_);}
	.st303{fill-rule:evenodd;clip-rule:evenodd;fill:url(#SVGID_223_);}
	.st304{fill-rule:evenodd;clip-rule:evenodd;fill:url(#SVGID_224_);}
	.st305{fill-rule:evenodd;clip-rule:evenodd;fill:url(#SVGID_225_);}
	.st306{fill-rule:evenodd;clip-rule:evenodd;fill:url(#SVGID_226_);}
	.st307{fill-rule:evenodd;clip-rule:evenodd;fill:url(#SVGID_227_);}
	.st308{fill-rule:evenodd;clip-rule:evenodd;fill:url(#SVGID_228_);}
	.st309{fill-rule:evenodd;clip-rule:evenodd;fill:url(#SVGID_229_);}
	.st310{fill-rule:evenodd;clip-rule:evenodd;fill:url(#SVGID_230_);}
	.st311{fill-rule:evenodd;clip-rule:evenodd;fill:url(#SVGID_231_);}
	.st312{fill-rule:evenodd;clip-rule:evenodd;fill:url(#SVGID_232_);}
	.st313{fill-rule:evenodd;clip-rule:evenodd;fill:url(#SVGID_233_);}
	.st314{fill-rule:evenodd;clip-rule:evenodd;fill:url(#SVGID_234_);}
	.st315{fill-rule:evenodd;clip-rule:evenodd;fill:url(#SVGID_235_);}
	.st316{fill-rule:evenodd;clip-rule:evenodd;fill:url(#SVGID_236_);}
	.st317{fill-rule:evenodd;clip-rule:evenodd;fill:url(#SVGID_237_);}
	.st318{fill-rule:evenodd;clip-rule:evenodd;fill:url(#SVGID_238_);}
	.st319{fill-rule:evenodd;clip-rule:evenodd;fill:url(#SVGID_239_);}
	.st320{fill-rule:evenodd;clip-rule:evenodd;fill:url(#SVGID_240_);}
	.st321{fill-rule:evenodd;clip-rule:evenodd;fill:url(#SVGID_241_);}
	.st322{fill-rule:evenodd;clip-rule:evenodd;fill:url(#SVGID_242_);}
	.st323{fill-rule:evenodd;clip-rule:evenodd;fill:url(#SVGID_243_);}
	.st324{fill-rule:evenodd;clip-rule:evenodd;fill:url(#SVGID_244_);}
	.st325{fill-rule:evenodd;clip-rule:evenodd;fill:url(#SVGID_245_);}
	.st326{fill-rule:evenodd;clip-rule:evenodd;fill:url(#SVGID_246_);}
	.st327{fill-rule:evenodd;clip-rule:evenodd;fill:url(#SVGID_247_);}
	.st328{fill-rule:evenodd;clip-rule:evenodd;fill:url(#SVGID_248_);}
	.st329{fill-rule:evenodd;clip-rule:evenodd;fill:url(#SVGID_249_);}
	.st330{fill-rule:evenodd;clip-rule:evenodd;fill:url(#SVGID_250_);}
	.st331{fill-rule:evenodd;clip-rule:evenodd;fill:url(#SVGID_251_);}
	.st332{fill-rule:evenodd;clip-rule:evenodd;fill:url(#SVGID_252_);}
	.st333{fill-rule:evenodd;clip-rule:evenodd;fill:url(#SVGID_253_);}
	.st334{fill-rule:evenodd;clip-rule:evenodd;fill:url(#SVGID_254_);}
	.st335{fill-rule:evenodd;clip-rule:evenodd;fill:url(#SVGID_255_);}
	.st336{fill-rule:evenodd;clip-rule:evenodd;fill:url(#SVGID_256_);}
	.st337{fill-rule:evenodd;clip-rule:evenodd;fill:url(#SVGID_257_);}
	.st338{fill-rule:evenodd;clip-rule:evenodd;fill:url(#SVGID_258_);}
	.st339{fill-rule:evenodd;clip-rule:evenodd;fill:url(#SVGID_259_);}
	.st340{fill-rule:evenodd;clip-rule:evenodd;fill:url(#SVGID_260_);}
	.st341{fill-rule:evenodd;clip-rule:evenodd;fill:url(#SVGID_261_);}
	.st342{fill-rule:evenodd;clip-rule:evenodd;fill:url(#SVGID_262_);}
	.st343{fill-rule:evenodd;clip-rule:evenodd;fill:url(#SVGID_263_);}
	.st344{fill-rule:evenodd;clip-rule:evenodd;fill:url(#SVGID_264_);}
	.st345{fill-rule:evenodd;clip-rule:evenodd;fill:url(#SVGID_265_);}
	.st346{fill-rule:evenodd;clip-rule:evenodd;fill:url(#SVGID_266_);}
	.st347{fill-rule:evenodd;clip-rule:evenodd;fill:url(#SVGID_267_);}
	.st348{fill-rule:evenodd;clip-rule:evenodd;fill:url(#SVGID_268_);}
	.st349{fill-rule:evenodd;clip-rule:evenodd;fill:url(#SVGID_269_);}
	.st350{fill-rule:evenodd;clip-rule:evenodd;fill:url(#SVGID_270_);}
	.st351{fill-rule:evenodd;clip-rule:evenodd;fill:url(#SVGID_271_);}
	.st352{fill-rule:evenodd;clip-rule:evenodd;fill:url(#SVGID_272_);}
	.st353{fill-rule:evenodd;clip-rule:evenodd;fill:url(#SVGID_273_);}
	.st354{fill-rule:evenodd;clip-rule:evenodd;fill:url(#SVGID_274_);}
	.st355{fill-rule:evenodd;clip-rule:evenodd;fill:url(#SVGID_275_);}
	.st356{fill-rule:evenodd;clip-rule:evenodd;fill:url(#SVGID_276_);}
	.st357{fill-rule:evenodd;clip-rule:evenodd;fill:url(#SVGID_277_);}
	.st358{fill-rule:evenodd;clip-rule:evenodd;fill:url(#SVGID_278_);}
	.st359{fill-rule:evenodd;clip-rule:evenodd;fill:url(#SVGID_279_);}
	.st360{fill-rule:evenodd;clip-rule:evenodd;fill:url(#SVGID_280_);}
	.st361{fill-rule:evenodd;clip-rule:evenodd;fill:url(#SVGID_281_);}
	.st362{fill-rule:evenodd;clip-rule:evenodd;fill:url(#SVGID_282_);}
	.st363{fill-rule:evenodd;clip-rule:evenodd;fill:url(#SVGID_283_);}
	.st364{fill-rule:evenodd;clip-rule:evenodd;fill:url(#SVGID_284_);}
	.st365{fill-rule:evenodd;clip-rule:evenodd;fill:url(#SVGID_285_);}
	.st366{fill-rule:evenodd;clip-rule:evenodd;fill:url(#SVGID_286_);}
	.st367{fill-rule:evenodd;clip-rule:evenodd;fill:url(#SVGID_287_);}
	.st368{fill-rule:evenodd;clip-rule:evenodd;fill:url(#SVGID_288_);}
	.st369{fill-rule:evenodd;clip-rule:evenodd;fill:url(#SVGID_289_);}
	.st370{fill-rule:evenodd;clip-rule:evenodd;fill:url(#SVGID_290_);}
	.st371{fill-rule:evenodd;clip-rule:evenodd;fill:url(#SVGID_291_);}
	.st372{fill-rule:evenodd;clip-rule:evenodd;fill:url(#SVGID_292_);}
	.st373{fill-rule:evenodd;clip-rule:evenodd;fill:url(#SVGID_293_);}
	.st374{fill-rule:evenodd;clip-rule:evenodd;fill:url(#SVGID_294_);}
	.st375{fill-rule:evenodd;clip-rule:evenodd;fill:url(#SVGID_295_);}
	.st376{fill-rule:evenodd;clip-rule:evenodd;fill:url(#SVGID_296_);}
	.st377{fill-rule:evenodd;clip-rule:evenodd;fill:url(#SVGID_297_);}
	.st378{fill-rule:evenodd;clip-rule:evenodd;fill:url(#SVGID_298_);}
	.st379{fill:#A8EBFA;}
	.st380{fill:#7ED8F6;}
	.st381{fill:#DAE5EF;}
	.st382{clip-path:url(#SVGID_300_);}
	.st383{fill:url(#SVGID_301_);}
	.st384{fill:#2B2524;}
	.st385{fill:#141212;}
	.st386{fill:#C0A47F;}
	.st387{fill:#3A3D4E;}
	.st388{fill:#435628;}
	.st389{fill:#293515;}
	.st390{fill:#F5855D;}
	.st391{fill:#BCA899;}
	.st392{fill:#998473;}
	.st393{fill:#65A844;}
	.st394{fill:#93793D;}
	.st395{fill:#5C9340;}
	.st396{clip-path:url(#SVGID_303_);fill:url(#SVGID_304_);}
	.st397{clip-path:url(#SVGID_306_);fill:#E8E8E8;}
	.st398{clip-path:url(#SVGID_308_);fill:#E8E8E8;}
	.st399{clip-path:url(#SVGID_312_);}
	.st400{fill:#CEA484;}
	.st401{fill:#E2B893;}
	.st402{fill:#B2835B;}
	.st403{fill:none;stroke:#9B683E;stroke-width:2;stroke-miterlimit:10;}
	.st404{clip-path:url(#SVGID_314_);}
	.st405{fill:#AF8275;}
	.st406{fill:#7C4E40;}
	.st407{clip-path:url(#SVGID_316_);}
	.st408{fill:#595759;}
	.st409{fill:#5584B0;}
	.st410{fill:url(#SVGID_317_);}
	.st411{fill:#FCFCFC;}
	.st412{opacity:0.5;fill:#A4D3F4;enable-background:new    ;}
	.st413{fill:#050505;}
	.st414{opacity:0.69;}
	.st415{clip-path:url(#SVGID_319_);}
	.st416{fill:url(#SVGID_320_);}
	.st417{clip-path:url(#SVGID_322_);}
	.st418{fill:#5C993C;}
	.st419{fill:#88C663;}
	.st420{fill:#406329;}
	.st421{fill:#B29312;}
	.st422{fill:none;stroke:#913A13;stroke-width:2;stroke-miterlimit:10;}
	.st423{fill:#A50A6A;}
	.st424{fill:#C40072;}
	.st425{clip-path:url(#SVGID_324_);}
	.st426{fill:#98D873;}
</style>
<g>
	<g>
		<defs>
			<path id="SVGID_1_" d="M331.9,75.1c-119.5,0-216.4,96.9-216.4,216.4c0,26.3,4.7,51.5,13.3,74.8
				c30.5,82.7,109.9,141.6,203.1,141.6s172.7-58.9,203.1-141.6c8.6-23.3,13.3-48.5,13.3-74.8C548.4,172,451.5,75.1,331.9,75.1z"/>
		</defs>
		<clipPath id="SVGID_2_">
			<use xlink:href="#SVGID_1_"  style="overflow:visible;"/>
		</clipPath>
		<g class="st0">
			<g>
				<defs>
					<rect id="SVGID_3_" x="110.8" y="70.1" width="439.7" height="439.7"/>
				</defs>
				<clipPath id="SVGID_4_">
					<use xlink:href="#SVGID_3_"  style="overflow:visible;"/>
				</clipPath>
				<g class="st1">
					<path class="st2" d="M29.5,92.2c0,0,172.7,103.7,415,83.7S699.4,78.1,672,52.1C644.6,26.2,34.7-33.1,8.1,24
						S29.5,92.2,29.5,92.2z"/>
					<path class="st3" d="M45.7,69.9c3,4.5,26.3,80.5,268.7,82S615.4,115.8,638,100S671.9,76,671.9,76l-15.1,407.2
						c0,0-91.1-70-152-70s-324.4-18.1-356.7-4.5S22.3,476.4,22.3,476.4L45.7,69.9z"/>
					<path class="st4" d="M12.9,459.8c0,0,71.9-56.4,131.4-60.2c59.5-3.8,300.3,6.8,335.7,7.5c35.4,0.8,43.7,3,72.3,19.6
						c28.6,16.6,113.5,44.4,113.5,44.4s-7.4,91.6-11.9,91.6s-635.2-0.8-635.2-0.8L12.9,459.8z"/>
					<g>
						<ellipse class="st5" cx="234.1" cy="453.5" rx="54" ry="25.8"/>
						<ellipse class="st6" cx="232.9" cy="462.3" rx="54" ry="20.5"/>
					</g>
					<g>
						<ellipse class="st5" cx="431" cy="434.6" rx="26.1" ry="12.5"/>
						<ellipse class="st6" cx="430.5" cy="438.9" rx="26.1" ry="9.9"/>
					</g>
					<g>
						<ellipse class="st5" cx="344.8" cy="426.4" rx="15.4" ry="7.4"/>
						<ellipse class="st6" cx="344.5" cy="428.9" rx="15.4" ry="5.9"/>
					</g>
					<g>
						<ellipse class="st5" cx="181.6" cy="411.1" rx="15.4" ry="7.4"/>
						<ellipse class="st6" cx="181.3" cy="413.6" rx="15.4" ry="5.9"/>
					</g>
					<g>
						<ellipse class="st5" cx="387.9" cy="482.4" rx="33.3" ry="15.9"/>
						<ellipse class="st6" cx="387.2" cy="487.8" rx="33.3" ry="12.7"/>
					</g>
				</g>
			</g>
			<g>
				<defs>
					<rect id="SVGID_5_" x="110.8" y="70.1" width="439.7" height="439.7"/>
				</defs>
				<clipPath id="SVGID_6_">
					<use xlink:href="#SVGID_5_"  style="overflow:visible;"/>
				</clipPath>
				<g class="st7">
					<g>
						<path class="st8" d="M283.7,201.6l9.9,16.2c0,0,8.9-17.2,7.3-17.2C299.4,200.5,283.7,201.6,283.7,201.6z"/>
						<path class="st8" d="M299.4,201.6l9.9,16.2c0,0,8.9-17.2,7.3-17.2C315,200.5,299.4,201.6,299.4,201.6z"/>
						<path class="st8" d="M314.5,201.6l9.9,16.2c0,0,8.9-17.2,7.3-17.2S314.5,201.6,314.5,201.6z"/>
						<path class="st8" d="M331.6,201.1l7.9,17.2c0,0,10.9-16,9.3-16.2C347.3,201.9,331.6,201.1,331.6,201.1z"/>
						<path class="st8" d="M345.7,201.6l7.9,17.2c0,0,10.9-16,9.3-16.2C361.4,202.5,345.7,201.6,345.7,201.6z"/>
						<path class="st8" d="M363.5,202.1l7.9,17.2c0,0,10.9-16,9.3-16.2C379.1,203,363.5,202.1,363.5,202.1z"/>
					</g>
					<g>
						<path class="st8" d="M377.1,242l-10.5-17.7c0,0-9.4,18.9-7.7,18.9C360.5,243.1,377.1,242,377.1,242z"/>
						<path class="st8" d="M393.8,242.5l-10.5-17.7c0,0-9.4,18.9-7.7,18.9S393.8,242.5,393.8,242.5z"/>
						<path class="st8" d="M360.5,242l-10.5-17.7c0,0-9.4,18.9-7.7,18.9C344,243.1,360.5,242,360.5,242z"/>
						<path class="st8" d="M344.5,242L334,224.2c0,0-9.4,18.9-7.7,18.9C328,243.1,344.5,242,344.5,242z"/>
						<path class="st8" d="M326.4,242.5l-8.4-18.9c0,0-11.5,17.6-9.8,17.8C309.8,241.6,326.4,242.5,326.4,242.5z"/>
						<path class="st8" d="M311.5,241.9l-8.4-18.9c0,0-11.5,17.6-9.8,17.8C294.9,241,311.5,241.9,311.5,241.9z"/>
						<path class="st8" d="M292.7,241.3l-8.4-18.9c0,0-11.5,17.6-9.8,17.8C276.1,240.4,292.7,241.3,292.7,241.3z"/>
					</g>
					<polygon class="st9" points="276.9,245.4 300.9,260.5 299.9,244.3 					"/>
					<polygon class="st9" points="298.3,245.9 322.3,261 321.3,244.9 					"/>
					<polygon class="st9" points="320.8,245.9 344.8,261 343.7,244.9 					"/>
					<polygon class="st9" points="344.8,245.9 368.8,261 367.7,244.9 					"/>
					<polygon class="st9" points="275.9,263.7 299.9,278.8 298.9,262.6 					"/>
					<polygon class="st9" points="297.3,264.2 321.3,279.3 320.2,263.1 					"/>
					<polygon class="st9" points="319.7,264.2 343.7,279.3 342.7,263.1 					"/>
					<polygon class="st9" points="343.7,264.2 367.7,279.3 366.7,263.1 					"/>
					<polygon class="st9" points="278.5,284.5 302.5,299.7 301.5,283.5 					"/>
					<polygon class="st9" points="299.9,285 323.9,300.2 322.9,284 					"/>
					<polygon class="st9" points="322.3,285 346.3,300.2 345.3,284 					"/>
					<polygon class="st9" points="346.3,285 370.3,300.2 369.3,284 					"/>
					<rect x="427.7" y="231.8" class="st9" width="21.9" height="70.4"/>
					<rect x="207" y="237.6" class="st9" width="18.8" height="64.7"/>
					<rect x="254.8" y="271.5" class="st10" width="25" height="33.4"/>
					<rect x="229.2" y="245.4" class="st10" width="25" height="26.1"/>
					<rect x="402.7" y="270.4" class="st10" width="25" height="33.4"/>
					<rect x="374.2" y="243.3" class="st10" width="25" height="33.4"/>
					<polyline class="st2" points="452.8,255.8 471,275.7 451.7,276.7 452.8,258.4 					"/>
					<polyline class="st10" points="473.1,256.3 491.4,276.2 472.1,277.2 473.1,259 					"/>
					<polyline class="st10" points="188.2,232.3 206.5,252.2 187.2,253.2 188.2,235 					"/>
					<polyline class="st2" points="473.6,279.3 491.9,299.1 472.6,300.2 473.6,281.9 					"/>
					<polyline class="st10" points="453.8,279.8 472.1,299.7 452.8,300.7 453.8,282.4 					"/>
					<polyline class="st10" points="191.6,253.2 209.9,273 190.6,274.1 191.6,255.8 					"/>
				</g>
			</g>
		</g>
	</g>
	<g>
		<defs>
			<path id="SVGID_7_" d="M331.9,75.1c-119.5,0-216.4,96.9-216.4,216.4c0,26.3,4.7,51.5,13.3,74.8
				c30.5,82.7,109.9,141.6,203.1,141.6s172.7-58.9,203.1-141.6c8.6-23.3,13.3-48.5,13.3-74.8C548.4,172,451.5,75.1,331.9,75.1z"/>
		</defs>
		<clipPath id="SVGID_8_">
			<use xlink:href="#SVGID_7_"  style="overflow:visible;"/>
		</clipPath>
		<path class="st11" d="M312.6,357.3c0,2.1-1.7,3.8-3.8,3.8h-22.6c-2.1,0-3.8-1.7-3.8-3.8c0-2.1,1.7-3.8,3.8-3.8h22.6
			C310.9,353.5,312.6,355.2,312.6,357.3z M248.6,330.9h-15.1c-2.1,0-3.8,1.7-3.8,3.8c0,2.1,1.7,3.8,3.8,3.8h15.1
			c2.1,0,3.8-1.7,3.8-3.8C252.3,332.6,250.7,330.9,248.6,330.9z M452,308.3h-22.6c-2.1,0-3.8,1.7-3.8,3.8c0,2.1,1.7,3.8,3.8,3.8H452
			c2.1,0,3.8-1.7,3.8-3.8C455.7,310,454.1,308.3,452,308.3z"/>
	</g>
	<g>
		<defs>
			<path id="SVGID_9_" d="M331.9,75.1c-119.5,0-216.4,96.9-216.4,216.4c0,26.3,4.7,51.5,13.3,74.8
				c30.5,82.7,109.9,141.6,203.1,141.6s172.7-58.9,203.1-141.6c8.6-23.3,13.3-48.5,13.3-74.8C548.4,172,451.5,75.1,331.9,75.1z"/>
		</defs>
		<clipPath id="SVGID_10_">
			<use xlink:href="#SVGID_9_"  style="overflow:visible;"/>
		</clipPath>
		<path class="st12" d="M380.5,109.9c0-2.8,2.2-5,5-5h30c2.8,0,5,2.2,5,5s-2.2,5-5,5h-30C382.7,114.9,380.5,112.6,380.5,109.9z
			 M465.4,144.8h20c2.8,0,5-2.2,5-5s-2.2-5-5-5h-20c-2.8,0-5,2.2-5,5S462.7,144.8,465.4,144.8z M195.6,174.8h30c2.8,0,5-2.2,5-5
			s-2.2-5-5-5h-30c-2.8,0-5,2.2-5,5S192.8,174.8,195.6,174.8z"/>
	</g>
	<g>
		<defs>
			<path id="SVGID_11_" d="M331.9,75.1c-119.5,0-216.4,96.9-216.4,216.4c0,26.3,4.7,51.5,13.3,74.8
				c30.5,82.7,109.9,141.6,203.1,141.6s172.7-58.9,203.1-141.6c8.6-23.3,13.3-48.5,13.3-74.8C548.4,172,451.5,75.1,331.9,75.1z"/>
		</defs>
		<clipPath id="SVGID_12_">
			<use xlink:href="#SVGID_11_"  style="overflow:visible;"/>
		</clipPath>
		<path class="st13" d="M300.2,384c0,2.3-1.9,4.2-4.2,4.2h-25c-2.3,0-4.2-1.9-4.2-4.2c0-2.3,1.9-4.2,4.2-4.2h25
			C298.3,379.8,300.2,381.7,300.2,384z M360.1,327.6c0,2.3-1.9,4.2-4.2,4.2h-25c-2.3,0-4.2-1.9-4.2-4.2c0-2.3,1.9-4.2,4.2-4.2h25
			C358.2,323.5,360.1,325.3,360.1,327.6z M153.5,340.5c0,2.3-1.9,4.2-4.2,4.2h-25c-2.3,0-4.2-1.9-4.2-4.2c0-2.3,1.9-4.2,4.2-4.2h25
			C151.6,336.4,153.5,338.2,153.5,340.5z M454,190.3c0,2.3-1.9,4.2-4.2,4.2h-25c-2.3,0-4.2-1.9-4.2-4.2s1.9-4.2,4.2-4.2h25
			C452.1,186.1,454,188,454,190.3z M540.9,378.1c0,2.3-1.9,4.2-4.2,4.2h-25c-2.3,0-4.2-1.9-4.2-4.2c0-2.3,1.9-4.2,4.2-4.2h25
			C539,373.9,540.9,375.8,540.9,378.1z M517,365.1c0,1.5-1.2,2.7-2.7,2.7h-15.9c-1.5,0-2.7-1.2-2.7-2.7c0-1.5,1.2-2.7,2.7-2.7h15.9
			C515.8,362.4,517,363.6,517,365.1z M502.1,414.5c0,2.3-1.9,4.2-4.2,4.2h-25c-2.3,0-4.2-1.9-4.2-4.2c0-2.3,1.9-4.2,4.2-4.2h25
			C500.3,410.3,502.1,412.2,502.1,414.5z M337.8,466.2c0,2.3-1.9,4.2-4.2,4.2h-25c-2.3,0-4.2-1.9-4.2-4.2c0-2.3,1.9-4.2,4.2-4.2h25
			C335.9,462,337.8,463.9,337.8,466.2z M423.5,380.5c0,2.3-1.9,4.2-4.2,4.2h-25c-2.3,0-4.2-1.9-4.2-4.2c0-2.3,1.9-4.2,4.2-4.2h25
			C421.6,376.3,423.5,378.2,423.5,380.5z M229.4,354.8h-16.7c-2.3,0-4.2,1.9-4.2,4.2c0,2.3,1.9,4.2,4.2,4.2h16.7
			c2.3,0,4.2-1.9,4.2-4.2C233.5,356.7,231.7,354.8,229.4,354.8z M146,258.6h-16.7c-2.3,0-4.2,1.9-4.2,4.2c0,2.3,1.9,4.2,4.2,4.2H146
			c2.3,0,4.2-1.9,4.2-4.2S148.3,258.6,146,258.6z M131.9,319.6h-16.7c-2.3,0-4.2,1.9-4.2,4.2c0,2.3,1.9,4.2,4.2,4.2h16.7
			c2.3,0,4.2-1.9,4.2-4.2C136.1,321.5,134.2,319.6,131.9,319.6z M454.4,329.8h-25c-2.3,0-4.2,1.9-4.2,4.2c0,2.3,1.9,4.2,4.2,4.2h25
			c2.3,0,4.2-1.9,4.2-4.2C458.5,331.7,456.7,329.8,454.4,329.8z M539.3,304.8h-25c-2.3,0-4.2,1.9-4.2,4.2c0,2.3,1.9,4.2,4.2,4.2h25
			c2.3,0,4.2-1.9,4.2-4.2C543.4,306.7,541.6,304.8,539.3,304.8z M560,298.1h-25c-2.3,0-4.2,1.9-4.2,4.2c0,2.3,1.9,4.2,4.2,4.2h25
			c2.3,0,4.2-1.9,4.2-4.2C564.2,300,562.3,298.1,560,298.1z"/>
	</g>
</g>
</svg>
