<?xml version="1.0" encoding="utf-8"?>
<!-- Generator: Adobe Illustrator 23.0.6, SVG Export Plug-In . SVG Version: 6.00 Build 0)  -->
<svg version="1.1" id="Capa_1" xmlns="http://www.w3.org/2000/svg" xmlns:xlink="http://www.w3.org/1999/xlink" x="0px" y="0px"
	 viewBox="0 0 437.3 497" style="enable-background:new 0 0 437.3 497;" xml:space="preserve">
<style type="text/css">
	.st0{clip-path:url(#SVGID_2_);}
	.st1{clip-path:url(#SVGID_4_);}
	.st2{fill:#954524;}
	.st3{fill:#A5756A;}
	.st4{fill:#592718;}
	.st5{fill:#441A11;}
	.st6{fill:#280E09;}
	.st7{opacity:0.89;clip-path:url(#SVGID_6_);}
	.st8{fill:#DD7F2A;}
	.st9{fill:#F4F3F2;}
	.st10{fill:#BA3C0F;}
	.st11{clip-path:url(#SVGID_8_);fill:#BC967D;}
	.st12{clip-path:url(#SVGID_10_);fill:#BC967D;}
	.st13{clip-path:url(#SVGID_12_);fill:#D1A288;}
	.st14{clip-path:url(#SVGID_14_);fill:url(#SVGID_15_);}
	.st15{clip-path:url(#SVGID_17_);fill:#A0918B;}
	.st16{clip-path:url(#SVGID_19_);fill:#BFB1AC;}
	.st17{clip-path:url(#SVGID_21_);fill:#BFB1AC;}
	.st18{clip-path:url(#SVGID_23_);fill:#E8E8E8;}
	.st19{clip-path:url(#SVGID_25_);fill:#DAE5EF;}
	.st20{clip-path:url(#SVGID_27_);fill:#DAE5EF;}
	.st21{clip-path:url(#SVGID_29_);}
	.st22{fill:#867971;}
	.st23{fill:none;stroke:#565351;stroke-width:2;stroke-miterlimit:10;}
	.st24{fill:#FFFFFF;}
	.st25{fill:#635852;}
	.st26{fill:#0097FE;}
	.st27{fill:none;stroke:#635852;stroke-width:2;stroke-miterlimit:10;}
	.st28{fill:#965636;}
	.st29{fill:none;stroke:#563A2E;stroke-width:7;stroke-miterlimit:10;}
	.st30{fill:none;stroke:#563A2E;stroke-width:2;stroke-miterlimit:10;}
	.st31{fill:#705C54;}
	.st32{fill:#847067;}
	.st33{fill:none;stroke:#705C54;stroke-width:3;stroke-miterlimit:10;}
	.st34{fill:none;stroke:#705C54;stroke-width:6;stroke-miterlimit:10;}
	.st35{fill:none;stroke:#6D3E2B;stroke-miterlimit:10;}
	.st36{fill:#563A2E;}
	.st37{clip-path:url(#SVGID_31_);}
	.st38{fill-rule:evenodd;clip-rule:evenodd;fill:#998675;}
	.st39{fill-rule:evenodd;clip-rule:evenodd;fill:#978474;}
	.st40{fill-rule:evenodd;clip-rule:evenodd;fill:#958372;}
	.st41{fill-rule:evenodd;clip-rule:evenodd;fill:#948171;}
	.st42{fill-rule:evenodd;clip-rule:evenodd;fill:#927F6F;}
	.st43{fill-rule:evenodd;clip-rule:evenodd;fill:#907E6E;}
	.st44{fill-rule:evenodd;clip-rule:evenodd;fill:#8E7C6C;}
	.st45{fill-rule:evenodd;clip-rule:evenodd;fill:#8C7A6B;}
	.st46{fill-rule:evenodd;clip-rule:evenodd;fill:#8B796A;}
	.st47{fill-rule:evenodd;clip-rule:evenodd;fill:#897768;}
	.st48{fill-rule:evenodd;clip-rule:evenodd;fill:#877567;}
	.st49{fill-rule:evenodd;clip-rule:evenodd;fill:#857465;}
	.st50{fill-rule:evenodd;clip-rule:evenodd;fill:#837264;}
	.st51{fill-rule:evenodd;clip-rule:evenodd;fill:#817062;}
	.st52{fill-rule:evenodd;clip-rule:evenodd;fill:#806F61;}
	.st53{fill-rule:evenodd;clip-rule:evenodd;fill:#7E6D60;}
	.st54{fill-rule:evenodd;clip-rule:evenodd;fill:#7C6B5E;}
	.st55{fill-rule:evenodd;clip-rule:evenodd;fill:#7A6A5D;}
	.st56{fill-rule:evenodd;clip-rule:evenodd;fill:#78685B;}
	.st57{fill-rule:evenodd;clip-rule:evenodd;fill:#77665A;}
	.st58{fill-rule:evenodd;clip-rule:evenodd;fill:#756558;}
	.st59{fill-rule:evenodd;clip-rule:evenodd;fill:#736357;}
	.st60{fill-rule:evenodd;clip-rule:evenodd;fill:url(#SVGID_32_);}
	.st61{fill-rule:evenodd;clip-rule:evenodd;fill:url(#SVGID_33_);}
	.st62{fill-rule:evenodd;clip-rule:evenodd;fill:url(#SVGID_34_);}
	.st63{fill-rule:evenodd;clip-rule:evenodd;fill:url(#SVGID_35_);}
	.st64{fill-rule:evenodd;clip-rule:evenodd;fill:url(#SVGID_36_);}
	.st65{fill-rule:evenodd;clip-rule:evenodd;fill:url(#SVGID_37_);}
	.st66{fill-rule:evenodd;clip-rule:evenodd;fill:url(#SVGID_38_);}
	.st67{fill-rule:evenodd;clip-rule:evenodd;fill:url(#SVGID_39_);}
	.st68{fill-rule:evenodd;clip-rule:evenodd;fill:url(#SVGID_40_);}
	.st69{fill-rule:evenodd;clip-rule:evenodd;fill:url(#SVGID_41_);}
	.st70{fill-rule:evenodd;clip-rule:evenodd;fill:url(#SVGID_42_);}
	.st71{fill-rule:evenodd;clip-rule:evenodd;fill:url(#SVGID_43_);}
	.st72{opacity:0.52;}
	.st73{fill-rule:evenodd;clip-rule:evenodd;fill:url(#SVGID_44_);}
	.st74{fill-rule:evenodd;clip-rule:evenodd;fill:url(#SVGID_45_);}
	.st75{fill-rule:evenodd;clip-rule:evenodd;fill:url(#SVGID_46_);}
	.st76{fill-rule:evenodd;clip-rule:evenodd;fill:url(#SVGID_47_);}
	.st77{fill-rule:evenodd;clip-rule:evenodd;fill:url(#SVGID_48_);}
	.st78{fill-rule:evenodd;clip-rule:evenodd;fill:url(#SVGID_49_);}
	.st79{fill-rule:evenodd;clip-rule:evenodd;fill:url(#SVGID_50_);}
	.st80{fill-rule:evenodd;clip-rule:evenodd;fill:url(#SVGID_51_);}
	.st81{fill-rule:evenodd;clip-rule:evenodd;fill:url(#SVGID_52_);}
	.st82{fill-rule:evenodd;clip-rule:evenodd;fill:url(#SVGID_53_);}
	.st83{fill-rule:evenodd;clip-rule:evenodd;fill:url(#SVGID_54_);}
	.st84{fill-rule:evenodd;clip-rule:evenodd;fill:url(#SVGID_55_);}
	.st85{fill-rule:evenodd;clip-rule:evenodd;fill:url(#SVGID_56_);}
	.st86{fill-rule:evenodd;clip-rule:evenodd;fill:url(#SVGID_57_);}
	.st87{fill-rule:evenodd;clip-rule:evenodd;fill:url(#SVGID_58_);}
	.st88{fill-rule:evenodd;clip-rule:evenodd;fill:url(#SVGID_59_);}
	.st89{fill-rule:evenodd;clip-rule:evenodd;fill:url(#SVGID_60_);}
	.st90{fill-rule:evenodd;clip-rule:evenodd;fill:url(#SVGID_61_);}
	.st91{fill-rule:evenodd;clip-rule:evenodd;fill:url(#SVGID_62_);}
	.st92{fill-rule:evenodd;clip-rule:evenodd;fill:url(#SVGID_63_);}
	.st93{fill-rule:evenodd;clip-rule:evenodd;fill:url(#SVGID_64_);}
	.st94{fill-rule:evenodd;clip-rule:evenodd;fill:url(#SVGID_65_);}
	.st95{fill-rule:evenodd;clip-rule:evenodd;fill:url(#SVGID_66_);}
	.st96{fill-rule:evenodd;clip-rule:evenodd;fill:url(#SVGID_67_);}
	.st97{fill-rule:evenodd;clip-rule:evenodd;fill:url(#SVGID_68_);}
	.st98{fill-rule:evenodd;clip-rule:evenodd;fill:url(#SVGID_69_);}
	.st99{fill-rule:evenodd;clip-rule:evenodd;fill:url(#SVGID_70_);}
	.st100{fill-rule:evenodd;clip-rule:evenodd;fill:url(#SVGID_71_);}
	.st101{fill-rule:evenodd;clip-rule:evenodd;fill:url(#SVGID_72_);}
	.st102{fill-rule:evenodd;clip-rule:evenodd;fill:url(#SVGID_73_);}
	.st103{fill-rule:evenodd;clip-rule:evenodd;fill:url(#SVGID_74_);}
	.st104{fill-rule:evenodd;clip-rule:evenodd;fill:url(#SVGID_75_);}
	.st105{fill-rule:evenodd;clip-rule:evenodd;fill:url(#SVGID_76_);}
	.st106{fill-rule:evenodd;clip-rule:evenodd;fill:url(#SVGID_77_);}
	.st107{fill-rule:evenodd;clip-rule:evenodd;fill:url(#SVGID_78_);}
	.st108{fill-rule:evenodd;clip-rule:evenodd;fill:url(#SVGID_79_);}
	.st109{fill-rule:evenodd;clip-rule:evenodd;fill:url(#SVGID_80_);}
	.st110{fill-rule:evenodd;clip-rule:evenodd;fill:url(#SVGID_81_);}
	.st111{fill-rule:evenodd;clip-rule:evenodd;fill:url(#SVGID_82_);}
	.st112{fill-rule:evenodd;clip-rule:evenodd;fill:url(#SVGID_83_);}
	.st113{fill-rule:evenodd;clip-rule:evenodd;fill:url(#SVGID_84_);}
	.st114{fill-rule:evenodd;clip-rule:evenodd;fill:url(#SVGID_85_);}
	.st115{fill-rule:evenodd;clip-rule:evenodd;fill:url(#SVGID_86_);}
	.st116{fill-rule:evenodd;clip-rule:evenodd;fill:url(#SVGID_87_);}
	.st117{fill-rule:evenodd;clip-rule:evenodd;fill:url(#SVGID_88_);}
	.st118{fill-rule:evenodd;clip-rule:evenodd;fill:url(#SVGID_89_);}
	.st119{fill-rule:evenodd;clip-rule:evenodd;fill:url(#SVGID_90_);}
	.st120{fill-rule:evenodd;clip-rule:evenodd;fill:url(#SVGID_91_);}
	.st121{fill-rule:evenodd;clip-rule:evenodd;fill:url(#SVGID_92_);}
	.st122{fill-rule:evenodd;clip-rule:evenodd;fill:url(#SVGID_93_);}
	.st123{fill-rule:evenodd;clip-rule:evenodd;fill:url(#SVGID_94_);}
	.st124{fill-rule:evenodd;clip-rule:evenodd;fill:url(#SVGID_95_);}
	.st125{clip-path:url(#SVGID_97_);}
	.st126{fill:url(#SVGID_98_);}
	.st127{fill:#6CD0F5;}
	.st128{fill:#69B8D4;}
	.st129{fill:none;}
	.st130{fill:#E8F7F6;}
	.st131{fill:#DFEFEE;}
	.st132{fill:#E3BB7C;}
	.st133{fill:#D3A56A;}
	.st134{fill:#F2F0ED;}
	.st135{fill:#DDD9D4;}
	.st136{fill:#644930;}
	.st137{fill:#C39669;}
	.st138{fill:#A87441;}
	.st139{fill:#555A4C;}
	.st140{fill:#49321F;}
	.st141{fill:#4A3729;}
	.st142{fill:#755A48;}
	.st143{fill:#865932;}
	.st144{fill:none;stroke:#C1916C;stroke-width:4;stroke-miterlimit:10;}
	.st145{fill:none;stroke:#F9F9F9;stroke-miterlimit:10;}
	.st146{fill:#E8E8E8;}
	.st147{clip-path:url(#SVGID_100_);}
	.st148{fill:url(#SVGID_101_);}
	.st149{fill:#8E8684;}
	.st150{fill:#6C5A46;}
	.st151{opacity:0.47;}
	.st152{fill:#AD9279;}
	.st153{fill:#382F27;}
	.st154{fill:#937A65;}
	.st155{fill:#514336;}
	.st156{fill:none;stroke:#514336;stroke-width:3;stroke-miterlimit:10;}
	.st157{fill:#5E4F3F;}
	.st158{fill:#846C57;}
	.st159{fill:#6E9967;}
	.st160{fill:#42913E;}
	.st161{fill:#6AAA60;}
	.st162{fill:#65A544;}
	.st163{fill:#777271;}
	.st164{fill:#5A8E3C;}
	.st165{fill:none;stroke:#545450;stroke-width:4;stroke-miterlimit:10;}
	.st166{fill:none;stroke:#545450;stroke-width:5;stroke-miterlimit:10;}
	.st167{fill:none;stroke:#545450;stroke-width:6;stroke-miterlimit:10;}
	.st168{fill:none;stroke:#545450;stroke-width:8;stroke-miterlimit:10;}
	.st169{fill:#44372C;}
	.st170{clip-path:url(#SVGID_103_);}
	.st171{clip-path:url(#SVGID_105_);}
	.st172{fill:url(#SVGID_106_);}
	.st173{fill:#66A8DA;}
	.st174{fill:#E2994C;}
	.st175{fill:#7F7E7C;}
	.st176{fill:#A8A59D;}
	.st177{fill:#7A8F35;}
	.st178{fill:#5E6B26;}
	.st179{fill:#D6D1CC;}
	.st180{fill:#AF947B;}
	.st181{fill:none;stroke:#AF947B;stroke-width:3;stroke-miterlimit:10;}
	.st182{fill:#EDECE8;}
	.st183{fill:#C6BDA8;}
	.st184{fill:none;stroke:#FFFFFF;stroke-width:3;stroke-miterlimit:10;}
	.st185{fill-rule:evenodd;clip-rule:evenodd;fill:#2B6DAF;}
	.st186{fill:none;stroke:#AAA69B;stroke-width:4;stroke-miterlimit:10;}
	.st187{fill-rule:evenodd;clip-rule:evenodd;fill:url(#SVGID_107_);}
	.st188{fill-rule:evenodd;clip-rule:evenodd;fill:url(#SVGID_108_);}
	.st189{fill-rule:evenodd;clip-rule:evenodd;fill:url(#SVGID_109_);}
	.st190{fill-rule:evenodd;clip-rule:evenodd;fill:url(#SVGID_110_);}
	.st191{fill-rule:evenodd;clip-rule:evenodd;fill:url(#SVGID_111_);}
	.st192{fill-rule:evenodd;clip-rule:evenodd;fill:url(#SVGID_112_);}
	.st193{fill-rule:evenodd;clip-rule:evenodd;fill:url(#SVGID_113_);}
	.st194{fill-rule:evenodd;clip-rule:evenodd;fill:url(#SVGID_114_);}
	.st195{fill-rule:evenodd;clip-rule:evenodd;fill:url(#SVGID_115_);}
	.st196{fill-rule:evenodd;clip-rule:evenodd;fill:url(#SVGID_116_);}
	.st197{fill-rule:evenodd;clip-rule:evenodd;fill:url(#SVGID_117_);}
	.st198{fill-rule:evenodd;clip-rule:evenodd;fill:url(#SVGID_118_);}
	.st199{fill-rule:evenodd;clip-rule:evenodd;fill:url(#SVGID_119_);}
	.st200{fill-rule:evenodd;clip-rule:evenodd;fill:url(#SVGID_120_);}
	.st201{fill-rule:evenodd;clip-rule:evenodd;fill:url(#SVGID_121_);}
	.st202{fill-rule:evenodd;clip-rule:evenodd;fill:url(#SVGID_122_);}
	.st203{fill-rule:evenodd;clip-rule:evenodd;fill:url(#SVGID_123_);}
	.st204{fill-rule:evenodd;clip-rule:evenodd;fill:url(#SVGID_124_);}
	.st205{fill-rule:evenodd;clip-rule:evenodd;fill:url(#SVGID_125_);}
	.st206{fill-rule:evenodd;clip-rule:evenodd;fill:url(#SVGID_126_);}
	.st207{fill-rule:evenodd;clip-rule:evenodd;fill:url(#SVGID_127_);}
	.st208{fill-rule:evenodd;clip-rule:evenodd;fill:url(#SVGID_128_);}
	.st209{fill-rule:evenodd;clip-rule:evenodd;fill:url(#SVGID_129_);}
	.st210{fill-rule:evenodd;clip-rule:evenodd;fill:url(#SVGID_130_);}
	.st211{fill-rule:evenodd;clip-rule:evenodd;fill:url(#SVGID_131_);}
	.st212{fill-rule:evenodd;clip-rule:evenodd;fill:url(#SVGID_132_);}
	.st213{fill-rule:evenodd;clip-rule:evenodd;fill:url(#SVGID_133_);}
	.st214{fill-rule:evenodd;clip-rule:evenodd;fill:url(#SVGID_134_);}
	.st215{fill-rule:evenodd;clip-rule:evenodd;fill:url(#SVGID_135_);}
	.st216{fill-rule:evenodd;clip-rule:evenodd;fill:url(#SVGID_136_);}
	.st217{fill-rule:evenodd;clip-rule:evenodd;fill:url(#SVGID_137_);}
	.st218{fill-rule:evenodd;clip-rule:evenodd;fill:url(#SVGID_138_);}
	.st219{fill-rule:evenodd;clip-rule:evenodd;fill:url(#SVGID_139_);}
	.st220{fill-rule:evenodd;clip-rule:evenodd;fill:url(#SVGID_140_);}
	.st221{fill-rule:evenodd;clip-rule:evenodd;fill:url(#SVGID_141_);}
	.st222{fill-rule:evenodd;clip-rule:evenodd;fill:url(#SVGID_142_);}
	.st223{fill-rule:evenodd;clip-rule:evenodd;fill:url(#SVGID_143_);}
	.st224{fill-rule:evenodd;clip-rule:evenodd;fill:url(#SVGID_144_);}
	.st225{fill-rule:evenodd;clip-rule:evenodd;fill:url(#SVGID_145_);}
	.st226{fill-rule:evenodd;clip-rule:evenodd;fill:url(#SVGID_146_);}
	.st227{fill-rule:evenodd;clip-rule:evenodd;fill:url(#SVGID_147_);}
	.st228{fill-rule:evenodd;clip-rule:evenodd;fill:url(#SVGID_148_);}
	.st229{fill-rule:evenodd;clip-rule:evenodd;fill:url(#SVGID_149_);}
	.st230{fill-rule:evenodd;clip-rule:evenodd;fill:url(#SVGID_150_);}
	.st231{fill-rule:evenodd;clip-rule:evenodd;fill:url(#SVGID_151_);}
	.st232{fill-rule:evenodd;clip-rule:evenodd;fill:url(#SVGID_152_);}
	.st233{fill-rule:evenodd;clip-rule:evenodd;fill:url(#SVGID_153_);}
	.st234{fill-rule:evenodd;clip-rule:evenodd;fill:url(#SVGID_154_);}
	.st235{fill-rule:evenodd;clip-rule:evenodd;fill:url(#SVGID_155_);}
	.st236{fill-rule:evenodd;clip-rule:evenodd;fill:url(#SVGID_156_);}
	.st237{fill-rule:evenodd;clip-rule:evenodd;fill:url(#SVGID_157_);}
	.st238{fill-rule:evenodd;clip-rule:evenodd;fill:url(#SVGID_158_);}
	.st239{fill-rule:evenodd;clip-rule:evenodd;fill:url(#SVGID_159_);}
	.st240{fill-rule:evenodd;clip-rule:evenodd;fill:url(#SVGID_160_);}
	.st241{fill-rule:evenodd;clip-rule:evenodd;fill:url(#SVGID_161_);}
	.st242{fill-rule:evenodd;clip-rule:evenodd;fill:url(#SVGID_162_);}
	.st243{fill-rule:evenodd;clip-rule:evenodd;fill:url(#SVGID_163_);}
	.st244{fill-rule:evenodd;clip-rule:evenodd;fill:url(#SVGID_164_);}
	.st245{fill-rule:evenodd;clip-rule:evenodd;fill:url(#SVGID_165_);}
	.st246{fill-rule:evenodd;clip-rule:evenodd;fill:url(#SVGID_166_);}
	.st247{fill-rule:evenodd;clip-rule:evenodd;fill:url(#SVGID_167_);}
	.st248{fill-rule:evenodd;clip-rule:evenodd;fill:url(#SVGID_168_);}
	.st249{fill-rule:evenodd;clip-rule:evenodd;fill:url(#SVGID_169_);}
	.st250{fill-rule:evenodd;clip-rule:evenodd;fill:url(#SVGID_170_);}
	.st251{fill-rule:evenodd;clip-rule:evenodd;fill:url(#SVGID_171_);}
	.st252{fill-rule:evenodd;clip-rule:evenodd;fill:url(#SVGID_172_);}
	.st253{fill-rule:evenodd;clip-rule:evenodd;fill:url(#SVGID_173_);}
	.st254{fill-rule:evenodd;clip-rule:evenodd;fill:url(#SVGID_174_);}
	.st255{fill-rule:evenodd;clip-rule:evenodd;fill:url(#SVGID_175_);}
	.st256{fill-rule:evenodd;clip-rule:evenodd;fill:url(#SVGID_176_);}
	.st257{fill-rule:evenodd;clip-rule:evenodd;fill:url(#SVGID_177_);}
	.st258{fill-rule:evenodd;clip-rule:evenodd;fill:url(#SVGID_178_);}
	.st259{fill-rule:evenodd;clip-rule:evenodd;fill:url(#SVGID_179_);}
	.st260{fill-rule:evenodd;clip-rule:evenodd;fill:url(#SVGID_180_);}
	.st261{fill-rule:evenodd;clip-rule:evenodd;fill:url(#SVGID_181_);}
	.st262{fill-rule:evenodd;clip-rule:evenodd;fill:url(#SVGID_182_);}
	.st263{fill-rule:evenodd;clip-rule:evenodd;fill:url(#SVGID_183_);}
	.st264{fill-rule:evenodd;clip-rule:evenodd;fill:url(#SVGID_184_);}
	.st265{fill-rule:evenodd;clip-rule:evenodd;fill:url(#SVGID_185_);}
	.st266{fill-rule:evenodd;clip-rule:evenodd;fill:url(#SVGID_186_);}
	.st267{fill-rule:evenodd;clip-rule:evenodd;fill:url(#SVGID_187_);}
	.st268{fill-rule:evenodd;clip-rule:evenodd;fill:url(#SVGID_188_);}
	.st269{fill-rule:evenodd;clip-rule:evenodd;fill:url(#SVGID_189_);}
	.st270{fill-rule:evenodd;clip-rule:evenodd;fill:url(#SVGID_190_);}
	.st271{fill-rule:evenodd;clip-rule:evenodd;fill:url(#SVGID_191_);}
	.st272{fill-rule:evenodd;clip-rule:evenodd;fill:url(#SVGID_192_);}
	.st273{fill-rule:evenodd;clip-rule:evenodd;fill:url(#SVGID_193_);}
	.st274{fill-rule:evenodd;clip-rule:evenodd;fill:url(#SVGID_194_);}
	.st275{fill-rule:evenodd;clip-rule:evenodd;fill:url(#SVGID_195_);}
	.st276{fill-rule:evenodd;clip-rule:evenodd;fill:url(#SVGID_196_);}
	.st277{fill-rule:evenodd;clip-rule:evenodd;fill:url(#SVGID_197_);}
	.st278{fill-rule:evenodd;clip-rule:evenodd;fill:url(#SVGID_198_);}
	.st279{fill-rule:evenodd;clip-rule:evenodd;fill:url(#SVGID_199_);}
	.st280{fill-rule:evenodd;clip-rule:evenodd;fill:url(#SVGID_200_);}
	.st281{fill-rule:evenodd;clip-rule:evenodd;fill:url(#SVGID_201_);}
	.st282{fill-rule:evenodd;clip-rule:evenodd;fill:url(#SVGID_202_);}
	.st283{fill-rule:evenodd;clip-rule:evenodd;fill:url(#SVGID_203_);}
	.st284{fill-rule:evenodd;clip-rule:evenodd;fill:url(#SVGID_204_);}
	.st285{fill-rule:evenodd;clip-rule:evenodd;fill:url(#SVGID_205_);}
	.st286{fill-rule:evenodd;clip-rule:evenodd;fill:url(#SVGID_206_);}
	.st287{fill-rule:evenodd;clip-rule:evenodd;fill:url(#SVGID_207_);}
	.st288{fill-rule:evenodd;clip-rule:evenodd;fill:url(#SVGID_208_);}
	.st289{fill-rule:evenodd;clip-rule:evenodd;fill:url(#SVGID_209_);}
	.st290{fill-rule:evenodd;clip-rule:evenodd;fill:url(#SVGID_210_);}
	.st291{fill-rule:evenodd;clip-rule:evenodd;fill:url(#SVGID_211_);}
	.st292{fill-rule:evenodd;clip-rule:evenodd;fill:url(#SVGID_212_);}
	.st293{fill-rule:evenodd;clip-rule:evenodd;fill:url(#SVGID_213_);}
	.st294{fill-rule:evenodd;clip-rule:evenodd;fill:url(#SVGID_214_);}
	.st295{fill-rule:evenodd;clip-rule:evenodd;fill:url(#SVGID_215_);}
	.st296{fill-rule:evenodd;clip-rule:evenodd;fill:url(#SVGID_216_);}
	.st297{fill-rule:evenodd;clip-rule:evenodd;fill:url(#SVGID_217_);}
	.st298{fill-rule:evenodd;clip-rule:evenodd;fill:url(#SVGID_218_);}
	.st299{fill-rule:evenodd;clip-rule:evenodd;fill:url(#SVGID_219_);}
	.st300{fill-rule:evenodd;clip-rule:evenodd;fill:url(#SVGID_220_);}
	.st301{fill-rule:evenodd;clip-rule:evenodd;fill:url(#SVGID_221_);}
	.st302{fill-rule:evenodd;clip-rule:evenodd;fill:url(#SVGID_222_);}
	.st303{fill-rule:evenodd;clip-rule:evenodd;fill:url(#SVGID_223_);}
	.st304{fill-rule:evenodd;clip-rule:evenodd;fill:url(#SVGID_224_);}
	.st305{fill-rule:evenodd;clip-rule:evenodd;fill:url(#SVGID_225_);}
	.st306{fill-rule:evenodd;clip-rule:evenodd;fill:url(#SVGID_226_);}
	.st307{fill-rule:evenodd;clip-rule:evenodd;fill:url(#SVGID_227_);}
	.st308{fill-rule:evenodd;clip-rule:evenodd;fill:url(#SVGID_228_);}
	.st309{fill-rule:evenodd;clip-rule:evenodd;fill:url(#SVGID_229_);}
	.st310{fill-rule:evenodd;clip-rule:evenodd;fill:url(#SVGID_230_);}
	.st311{fill-rule:evenodd;clip-rule:evenodd;fill:url(#SVGID_231_);}
	.st312{fill-rule:evenodd;clip-rule:evenodd;fill:url(#SVGID_232_);}
	.st313{fill-rule:evenodd;clip-rule:evenodd;fill:url(#SVGID_233_);}
	.st314{fill-rule:evenodd;clip-rule:evenodd;fill:url(#SVGID_234_);}
	.st315{fill-rule:evenodd;clip-rule:evenodd;fill:url(#SVGID_235_);}
	.st316{fill-rule:evenodd;clip-rule:evenodd;fill:url(#SVGID_236_);}
	.st317{fill-rule:evenodd;clip-rule:evenodd;fill:url(#SVGID_237_);}
	.st318{fill-rule:evenodd;clip-rule:evenodd;fill:url(#SVGID_238_);}
	.st319{fill-rule:evenodd;clip-rule:evenodd;fill:url(#SVGID_239_);}
	.st320{fill-rule:evenodd;clip-rule:evenodd;fill:url(#SVGID_240_);}
	.st321{fill-rule:evenodd;clip-rule:evenodd;fill:url(#SVGID_241_);}
	.st322{fill-rule:evenodd;clip-rule:evenodd;fill:url(#SVGID_242_);}
	.st323{fill-rule:evenodd;clip-rule:evenodd;fill:url(#SVGID_243_);}
	.st324{fill-rule:evenodd;clip-rule:evenodd;fill:url(#SVGID_244_);}
	.st325{fill-rule:evenodd;clip-rule:evenodd;fill:url(#SVGID_245_);}
	.st326{fill-rule:evenodd;clip-rule:evenodd;fill:url(#SVGID_246_);}
	.st327{fill-rule:evenodd;clip-rule:evenodd;fill:url(#SVGID_247_);}
	.st328{fill-rule:evenodd;clip-rule:evenodd;fill:url(#SVGID_248_);}
	.st329{fill-rule:evenodd;clip-rule:evenodd;fill:url(#SVGID_249_);}
	.st330{fill-rule:evenodd;clip-rule:evenodd;fill:url(#SVGID_250_);}
	.st331{fill-rule:evenodd;clip-rule:evenodd;fill:url(#SVGID_251_);}
	.st332{fill-rule:evenodd;clip-rule:evenodd;fill:url(#SVGID_252_);}
	.st333{fill-rule:evenodd;clip-rule:evenodd;fill:url(#SVGID_253_);}
	.st334{fill-rule:evenodd;clip-rule:evenodd;fill:url(#SVGID_254_);}
	.st335{fill-rule:evenodd;clip-rule:evenodd;fill:url(#SVGID_255_);}
	.st336{fill-rule:evenodd;clip-rule:evenodd;fill:url(#SVGID_256_);}
	.st337{fill-rule:evenodd;clip-rule:evenodd;fill:url(#SVGID_257_);}
	.st338{fill-rule:evenodd;clip-rule:evenodd;fill:url(#SVGID_258_);}
	.st339{fill-rule:evenodd;clip-rule:evenodd;fill:url(#SVGID_259_);}
	.st340{fill-rule:evenodd;clip-rule:evenodd;fill:url(#SVGID_260_);}
	.st341{fill-rule:evenodd;clip-rule:evenodd;fill:url(#SVGID_261_);}
	.st342{fill-rule:evenodd;clip-rule:evenodd;fill:url(#SVGID_262_);}
	.st343{fill-rule:evenodd;clip-rule:evenodd;fill:url(#SVGID_263_);}
	.st344{fill-rule:evenodd;clip-rule:evenodd;fill:url(#SVGID_264_);}
	.st345{fill-rule:evenodd;clip-rule:evenodd;fill:url(#SVGID_265_);}
	.st346{fill-rule:evenodd;clip-rule:evenodd;fill:url(#SVGID_266_);}
	.st347{fill-rule:evenodd;clip-rule:evenodd;fill:url(#SVGID_267_);}
	.st348{fill-rule:evenodd;clip-rule:evenodd;fill:url(#SVGID_268_);}
	.st349{fill-rule:evenodd;clip-rule:evenodd;fill:url(#SVGID_269_);}
	.st350{fill-rule:evenodd;clip-rule:evenodd;fill:url(#SVGID_270_);}
	.st351{fill-rule:evenodd;clip-rule:evenodd;fill:url(#SVGID_271_);}
	.st352{fill-rule:evenodd;clip-rule:evenodd;fill:url(#SVGID_272_);}
	.st353{fill-rule:evenodd;clip-rule:evenodd;fill:url(#SVGID_273_);}
	.st354{fill-rule:evenodd;clip-rule:evenodd;fill:url(#SVGID_274_);}
	.st355{fill-rule:evenodd;clip-rule:evenodd;fill:url(#SVGID_275_);}
	.st356{fill-rule:evenodd;clip-rule:evenodd;fill:url(#SVGID_276_);}
	.st357{fill-rule:evenodd;clip-rule:evenodd;fill:url(#SVGID_277_);}
	.st358{fill-rule:evenodd;clip-rule:evenodd;fill:url(#SVGID_278_);}
	.st359{fill-rule:evenodd;clip-rule:evenodd;fill:url(#SVGID_279_);}
	.st360{fill-rule:evenodd;clip-rule:evenodd;fill:url(#SVGID_280_);}
	.st361{fill-rule:evenodd;clip-rule:evenodd;fill:url(#SVGID_281_);}
	.st362{fill-rule:evenodd;clip-rule:evenodd;fill:url(#SVGID_282_);}
	.st363{fill-rule:evenodd;clip-rule:evenodd;fill:url(#SVGID_283_);}
	.st364{fill-rule:evenodd;clip-rule:evenodd;fill:url(#SVGID_284_);}
	.st365{fill-rule:evenodd;clip-rule:evenodd;fill:url(#SVGID_285_);}
	.st366{fill-rule:evenodd;clip-rule:evenodd;fill:url(#SVGID_286_);}
	.st367{fill-rule:evenodd;clip-rule:evenodd;fill:url(#SVGID_287_);}
	.st368{fill-rule:evenodd;clip-rule:evenodd;fill:url(#SVGID_288_);}
	.st369{fill-rule:evenodd;clip-rule:evenodd;fill:url(#SVGID_289_);}
	.st370{fill-rule:evenodd;clip-rule:evenodd;fill:url(#SVGID_290_);}
	.st371{fill-rule:evenodd;clip-rule:evenodd;fill:url(#SVGID_291_);}
	.st372{fill-rule:evenodd;clip-rule:evenodd;fill:url(#SVGID_292_);}
	.st373{fill-rule:evenodd;clip-rule:evenodd;fill:url(#SVGID_293_);}
	.st374{fill-rule:evenodd;clip-rule:evenodd;fill:url(#SVGID_294_);}
	.st375{fill-rule:evenodd;clip-rule:evenodd;fill:url(#SVGID_295_);}
	.st376{fill-rule:evenodd;clip-rule:evenodd;fill:url(#SVGID_296_);}
	.st377{fill-rule:evenodd;clip-rule:evenodd;fill:url(#SVGID_297_);}
	.st378{fill-rule:evenodd;clip-rule:evenodd;fill:url(#SVGID_298_);}
	.st379{fill:#A8EBFA;}
	.st380{fill:#7ED8F6;}
	.st381{fill:#DAE5EF;}
	.st382{clip-path:url(#SVGID_300_);}
	.st383{fill:url(#SVGID_301_);}
	.st384{fill:#2B2524;}
	.st385{fill:#141212;}
	.st386{fill:#C0A47F;}
	.st387{fill:#3A3D4E;}
	.st388{fill:#435628;}
	.st389{fill:#293515;}
	.st390{fill:#F5855D;}
	.st391{fill:#BCA899;}
	.st392{fill:#998473;}
	.st393{fill:#65A844;}
	.st394{fill:#93793D;}
	.st395{fill:#5C9340;}
	.st396{clip-path:url(#SVGID_303_);fill:url(#SVGID_304_);}
	.st397{clip-path:url(#SVGID_306_);fill:#E8E8E8;}
	.st398{clip-path:url(#SVGID_308_);fill:#E8E8E8;}
	.st399{clip-path:url(#SVGID_312_);}
	.st400{fill:#CEA484;}
	.st401{fill:#E2B893;}
	.st402{fill:#B2835B;}
	.st403{fill:none;stroke:#9B683E;stroke-width:2;stroke-miterlimit:10;}
	.st404{clip-path:url(#SVGID_314_);}
	.st405{fill:#AF8275;}
	.st406{fill:#7C4E40;}
	.st407{clip-path:url(#SVGID_316_);}
	.st408{fill:#595759;}
	.st409{fill:#5584B0;}
	.st410{fill:url(#SVGID_317_);}
	.st411{fill:#FCFCFC;}
	.st412{opacity:0.5;fill:#A4D3F4;enable-background:new    ;}
	.st413{fill:#050505;}
	.st414{opacity:0.69;}
	.st415{clip-path:url(#SVGID_319_);}
	.st416{fill:url(#SVGID_320_);}
	.st417{clip-path:url(#SVGID_322_);}
	.st418{fill:#5C993C;}
	.st419{fill:#88C663;}
	.st420{fill:#406329;}
	.st421{fill:#B29312;}
	.st422{fill:none;stroke:#913A13;stroke-width:2;stroke-miterlimit:10;}
	.st423{fill:#A50A6A;}
	.st424{fill:#C40072;}
	.st425{clip-path:url(#SVGID_324_);}
	.st426{fill:#98D873;}
</style>
<g>
	<g>
		<defs>
			<path id="SVGID_313_" d="M218.4,468.5c93.2,0,172.7-58.9,203.1-141.6c8.6-23.3,13.3-48.5,13.3-74.8
				c0-119.5-96.9-216.4-216.4-216.4C98.9,35.6,2,132.5,2,252c0,26.3,4.7,51.5,13.3,74.8C45.8,409.5,125.2,468.5,218.4,468.5z"/>
		</defs>
		<clipPath id="SVGID_2_">
			<use xlink:href="#SVGID_313_"  style="overflow:visible;"/>
		</clipPath>
		<g class="st0">
			<rect class="st405" width="437.3" height="497"/>
			<path class="st406" d="M306.6,360.3h-21.7c-3,0-5.4,2.4-5.4,5.4s2.4,5.4,5.4,5.4h21.7c3,0,5.4-2.4,5.4-5.4
				S309.6,360.3,306.6,360.3z"/>
			<path class="st406" d="M223.3,381.4h-21.7c-3,0-5.4,2.4-5.4,5.4c0,3,2.4,5.4,5.4,5.4h21.7c3,0,5.4-2.4,5.4-5.4
				C228.7,383.8,226.3,381.4,223.3,381.4z"/>
			<path class="st406" d="M110.6,448.3H88.8c-3,0-5.4,2.4-5.4,5.4s2.4,5.4,5.4,5.4h21.7c3,0,5.4-2.4,5.4-5.4
				S113.6,448.3,110.6,448.3z"/>
			<path class="st406" d="M157.5,443.6h-21.7c-3,0-5.4,2.4-5.4,5.4s2.4,5.4,5.4,5.4h21.7c3,0,5.4-2.4,5.4-5.4
				S160.5,443.6,157.5,443.6z"/>
			<path class="st406" d="M121.1,411.9H99.4c-3,0-5.4,2.4-5.4,5.4s2.4,5.4,5.4,5.4h21.7c3,0,5.4-2.4,5.4-5.4
				S124.1,411.9,121.1,411.9z"/>
			<path class="st406" d="M178.9,359.4h-21.7c-3,0-5.4,2.4-5.4,5.4s2.4,5.4,5.4,5.4h21.7c3,0,5.4-2.4,5.4-5.4
				S181.9,359.4,178.9,359.4z"/>
			<path class="st406" d="M134.3,431h-21.7c-3,0-5.4,2.4-5.4,5.4s2.4,5.4,5.4,5.4h21.7c3,0,5.4-2.4,5.4-5.4S137.3,431,134.3,431z"/>
			<path class="st406" d="M91.4,311.6H69.7c-3,0-5.4,2.4-5.4,5.4c0,3,2.4,5.4,5.4,5.4h21.7c3,0,5.4-2.4,5.4-5.4
				C96.9,314,94.4,311.6,91.4,311.6z"/>
			<path class="st406" d="M343.8,461.5h-21.7c-3,0-5.4,2.4-5.4,5.4s2.4,5.4,5.4,5.4h21.7c3,0,5.4-2.4,5.4-5.4
				S346.8,461.5,343.8,461.5z"/>
			<path class="st406" d="M49.5,362.8H27.7c-3,0-5.4,2.4-5.4,5.4c0,3,2.4,5.4,5.4,5.4h21.7c3,0,5.4-2.4,5.4-5.4
				C54.9,365.3,52.5,362.8,49.5,362.8z"/>
			<path class="st406" d="M55.3,88.1H33.6c-3,0-5.4,2.4-5.4,5.4s2.4,5.4,5.4,5.4h21.7c3,0,5.4-2.4,5.4-5.4S58.3,88.1,55.3,88.1z"/>
			<path class="st406" d="M255.7,169.6H234c-3,0-5.4,2.4-5.4,5.4c0,3,2.4,5.4,5.4,5.4h21.7c3,0,5.4-2.4,5.4-5.4
				C261.1,172,258.7,169.6,255.7,169.6z"/>
			<path class="st406" d="M345.6,77.7h-21.7c-3,0-5.4,2.4-5.4,5.4s2.4,5.4,5.4,5.4h21.7c3,0,5.4-2.4,5.4-5.4
				C351,80.1,348.6,77.7,345.6,77.7z"/>
			<g>
				<path class="st406" d="M70.3,140.2H48.6c-3,0-5.4,2.4-5.4,5.4c0,3,2.4,5.4,5.4,5.4h21.7c3,0,5.4-2.4,5.4-5.4
					S73.3,140.2,70.3,140.2z"/>
				<path class="st406" d="M97.5,129.3H37.7c-3,0-5.4,2.4-5.4,5.4s2.4,5.4,5.4,5.4h59.8c3,0,5.4-2.4,5.4-5.4
					C102.9,131.7,100.5,129.3,97.5,129.3z"/>
			</g>
			<g>
				<path class="st406" d="M372.1,413.1h-21.7c-3,0-5.4,2.4-5.4,5.4c0,3,2.4,5.4,5.4,5.4h21.7c3,0,5.4-2.4,5.4-5.4
					C377.5,415.5,375.1,413.1,372.1,413.1z"/>
				<path class="st406" d="M399.2,402.2h-59.8c-3,0-5.4,2.4-5.4,5.4c0,3,2.4,5.4,5.4,5.4h59.8c3,0,5.4-2.4,5.4-5.4
					C404.7,404.7,402.2,402.2,399.2,402.2z"/>
			</g>
			<g>
				<path class="st406" d="M188.9,114.9h-21.7c-3,0-5.4,2.4-5.4,5.4s2.4,5.4,5.4,5.4h21.7c3,0,5.4-2.4,5.4-5.4
					S191.9,114.9,188.9,114.9z"/>
				<path class="st406" d="M216.1,104.1h-59.8c-3,0-5.4,2.4-5.4,5.4s2.4,5.4,5.4,5.4h59.8c3,0,5.4-2.4,5.4-5.4
					S219.1,104.1,216.1,104.1z"/>
			</g>
			<g>
				<path class="st406" d="M250,45.7h-21.7c-3,0-5.4,2.4-5.4,5.4s2.4,5.4,5.4,5.4H250c3,0,5.4-2.4,5.4-5.4S253,45.7,250,45.7z"/>
				<path class="st406" d="M277.2,34.8h-59.8c-3,0-5.4,2.4-5.4,5.4s2.4,5.4,5.4,5.4h59.8c3,0,5.4-2.4,5.4-5.4
					C282.6,37.2,280.2,34.8,277.2,34.8z"/>
			</g>
			<path class="st406" d="M54.9,368.3H27.7c-3,0-5.4,2.4-5.4,5.4c0,3,2.4,5.4,5.4,5.4h27.2c3,0,5.4-2.4,5.4-5.4
				C60.3,370.7,57.9,368.3,54.9,368.3z"/>
			<path class="st406" d="M291.8,193.4H270c-3,0-5.4,2.4-5.4,5.4s2.4,5.4,5.4,5.4h21.7c3,0,5.4-2.4,5.4-5.4S294.8,193.4,291.8,193.4
				z"/>
		</g>
	</g>
	<g>
		<defs>
			<path id="SVGID_315_" d="M218.4,468.5c93.2,0,172.7-58.9,203.1-141.6c8.6-23.3,13.3-48.5,13.3-74.8
				c0-119.5-96.9-216.4-216.4-216.4C98.9,35.6,2,132.5,2,252c0,26.3,4.7,51.5,13.3,74.8C45.8,409.5,125.2,468.5,218.4,468.5z"/>
		</defs>
		<clipPath id="SVGID_4_">
			<use xlink:href="#SVGID_315_"  style="overflow:visible;"/>
		</clipPath>
		<g class="st1">
			<path class="st408" d="M130.6,245.8c0,0,4,18.8-3.4,23.4c-7.4,4.6-5.1,6.8-5.1,6.8s-4.6-1.7-9.7-2.3c-5.1-0.6,2.3,5.7,5.1,5.1
				c2.8-0.6-5.1,2.8-9.7,1.1c-4.6-1.7,11.4,5.7,11.4,5.7s-4.6,2.8-4,6.8c0.6,4,5.1-8,12-10.3c6.8-2.3,14.8-4,16-14.2
				s0.6-19.4-6.3-19.4c-6.8,0-6.8,0-6.8,0"/>
			<path class="st409" d="M315,311.9c0,0,0,1.1,0,2.8c0.2,7.2,1.9,25.6,14.2,30.2c15.4,5.7,26.8-0.6,26.8-0.6s5.1,9.1,18.2,11.4
				s19.4-2.3,19.4-2.3s-25.6-3.4-30.8-9.7c-5.1-6.3-1.1-2.8-1.1-2.8s17.1,1.7,21.6-6.8s0-5.1,0-5.1s0,5.1-10.3,6.8
				c-10.3,1.7-17.1-2.3-17.1-2.3s11.4,3.4,12.5-2.3c1.1-5.7,1.1-5.7,1.1-5.7s-3.4,4.6-14.2,4.6s-22.2,2.3-25.6-13.1
				c-3.4-15.4-9.7-18.2-13.7-12.5"/>
			<path class="st409" d="M294.3,274.5c0,0-10.8-5.1-10.8-17.1c0-12-5.7-12-3.4-17.1c2.3-5.1,14.8-0.6,13.7,4s-7.4,17.1,4.6,19.9
				c12,2.8,27.9,5.7,27.9,5.7s-22.2,8-27.3,7.4S294.3,274.5,294.3,274.5z"/>
			
				<linearGradient id="SVGID_6_" gradientUnits="userSpaceOnUse" x1="56.4414" y1="-2250.5322" x2="382.506" y2="-2176.7327" gradientTransform="matrix(1 0 0 -1 0 -1973.2888)">
				<stop  offset="0.4448" style="stop-color:#5A5F63"/>
				<stop  offset="0.5777" style="stop-color:#556978"/>
				<stop  offset="0.8521" style="stop-color:#4781AF"/>
				<stop  offset="0.9338" style="stop-color:#4289C1"/>
			</linearGradient>
			<path style="fill:url(#SVGID_6_);" d="M81.2,216.2c0,0-55.8,38.7-27.3,45c28.5,6.3,44.4-22.8,76.9-11.4
				c32.5,11.4,79.8,106,168.1,72.9s96.8-102,61-143s-76.9-45-82.6-51.3s-8.5,4.6,9.7,12.5c18.2,8,74.6,30.8,68.4,78.6
				s-72.4,76.3-119.6,43.9s-68.4-64.4-117.4-58.7c-49,5.7-72.9,34.2-72.9,46.1"/>
			<g class="st151">
				<path class="st411" d="M183.9,238.5l-6.4-5.2c-0.9-0.7-2.2-0.6-2.9,0.3s-0.6,2.2,0.3,2.9l6.4,5.2c0.9,0.7,2.2,0.6,2.9-0.3
					C184.9,240.6,184.8,239.3,183.9,238.5z"/>
				<path class="st411" d="M208.2,243.1l-6.4-5.2c-0.9-0.7-2.2-0.6-2.9,0.3s-0.6,2.2,0.3,2.9l6.4,5.2c0.9,0.7,2.2,0.6,2.9-0.3
					C209.2,245.1,209.1,243.8,208.2,243.1z"/>
				<path class="st411" d="M233.2,261.6l-5.5-4.5c-0.8-0.6-1.9-0.5-2.5,0.3c-0.6,0.8-0.5,1.9,0.3,2.5l5.5,4.5
					c0.8,0.6,1.9,0.5,2.5-0.3C234.1,263.3,234,262.2,233.2,261.6z"/>
				<path class="st411" d="M198.3,265.1l-6.4-5.2c-0.9-0.7-2.2-0.6-2.9,0.3c-0.7,0.9-0.6,2.2,0.3,2.9l6.4,5.2
					c0.9,0.7,2.2,0.6,2.9-0.3C199.3,267.2,199.2,265.9,198.3,265.1z"/>
				<path class="st411" d="M186.6,246.4l-6.4-5.2c-0.9-0.7-2.2-0.6-2.9,0.3c-0.7,0.9-0.6,2.2,0.3,2.9l6.4,5.2
					c0.9,0.7,2.2,0.6,2.9-0.3C187.6,248.4,187.5,247.1,186.6,246.4z"/>
				<path class="st411" d="M312.4,287.5l-4,2.6c-0.6,0.4-0.6,1.2-0.2,1.9c0.4,0.7,1.3,0.9,1.8,0.6l4-2.6c0.6-0.4,0.6-1.2,0.2-1.9
					C313.8,287.4,313,287.1,312.4,287.5z"/>
				<path class="st411" d="M298.2,288l-4.5,1.7c-0.6,0.2-0.9,1-0.6,1.8s1,1.2,1.6,1l4.5-1.7c0.6-0.2,0.9-1,0.6-1.8
					S298.8,287.8,298.2,288z"/>
				<path class="st412" d="M344.1,257.8l-3.7,3c-0.5,0.4-0.5,1.3,0,1.9c0.5,0.6,1.3,0.8,1.9,0.4l3.7-3c0.5-0.4,0.5-1.3,0-1.9
					C345.4,257.5,344.6,257.3,344.1,257.8z"/>
				<path class="st411" d="M150.7,212.2l-5.1-1.3c-0.7-0.2-1.4,0.2-1.6,0.9c-0.2,0.7,0.2,1.4,0.9,1.6l5.1,1.3
					c0.7,0.2,1.4-0.2,1.6-0.9C151.8,213.1,151.4,212.4,150.7,212.2z"/>
				<path class="st411" d="M107.2,209.3l-5.1,1.4c-0.7,0.2-1.1,0.9-0.9,1.6c0.2,0.7,0.9,1.1,1.6,0.9l5.1-1.4
					c0.7-0.2,1.1-0.9,0.9-1.6C108.7,209.5,107.9,209.1,107.2,209.3z"/>
				<path class="st411" d="M69.1,224.9l-4.4,3c-0.6,0.4-0.8,1.2-0.4,1.8s1.2,0.8,1.8,0.4l4.4-3c0.6-0.4,0.8-1.2,0.4-1.8
					C70.5,224.6,69.7,224.5,69.1,224.9z"/>
				<path class="st411" d="M123.6,207l-3.9,0.2c-0.5,0-1,0.5-0.9,1.1c0,0.6,0.5,1,1,1l3.9-0.2c0.5,0,1-0.5,0.9-1.1
					S124.2,207,123.6,207z"/>
				<path class="st411" d="M79.2,229.3l-3.4,1.9c-0.5,0.3-0.6,0.9-0.3,1.4c0.3,0.5,0.9,0.7,1.4,0.4l3.4-1.9c0.5-0.3,0.6-0.9,0.3-1.4
					C80.3,229.2,79.7,229,79.2,229.3z"/>
				<path class="st411" d="M118.1,210.7l-8.3,2.3c-1.1,0.3-1.7,1.8-1.3,3.3c0.4,1.5,1.7,2.5,2.8,2.2l8.3-2.3
					c1.1-0.3,1.7-1.8,1.3-3.3C120.5,211.3,119.2,210.4,118.1,210.7z"/>
				<path class="st411" d="M283.8,297.6l-9.3,1.3c-1.3,0.2-2.1,1.6-1.9,3.2s1.4,2.7,2.7,2.5l9.3-1.3c1.3-0.2,2.1-1.6,1.9-3.2
					S285.1,297.5,283.8,297.6z"/>
				<path class="st411" d="M223.9,280.9l-6.2-3.8c-0.9-0.5-2.1-0.1-2.7,0.9c-0.7,1.1-0.5,2.3,0.4,2.9l6.2,3.8
					c0.9,0.5,2.1,0.1,2.7-0.9C224.9,282.7,224.8,281.4,223.9,280.9z"/>
				<path class="st411" d="M247.1,293.2l-8.9-2.9c-1.2-0.4-2.6,0.5-3.1,2c-0.5,1.5,0.1,3.1,1.3,3.5l8.9,2.9c1.2,0.4,2.6-0.5,3.1-2
					C248.9,295.2,248.3,293.6,247.1,293.2z"/>
				<path class="st411" d="M85.3,216.4l-10.3,5.2c-1.4,0.7-1.8,2.9-0.8,4.8s2.9,2.9,4.3,2.2l10.3-5.2c1.4-0.7,1.8-2.9,0.8-4.8
					C88.7,216.7,86.7,215.7,85.3,216.4z"/>
				<path class="st411" d="M162.6,220.7l-4.5-2.7c-0.6-0.4-1.4-0.2-1.8,0.5c-0.4,0.6-0.2,1.4,0.5,1.8l4.5,2.7
					c0.6,0.4,1.4,0.2,1.8-0.5C163.5,221.9,163.3,221.1,162.6,220.7z"/>
				<path class="st411" d="M207.6,257.3l-4.1-3.3c-0.6-0.5-1.4-0.4-1.9,0.2c-0.5,0.6-0.4,1.4,0.2,1.9l4.1,3.3
					c0.6,0.5,1.4,0.4,1.9-0.2C208.3,258.6,208.2,257.8,207.6,257.3z"/>
				<path class="st411" d="M316.5,272.2l-11.9,5.8c-0.6,0.3-0.6,1.6,0.1,2.9c0.7,1.3,1.7,2.2,2.3,1.9l11.9-5.8
					c0.6-0.3,0.6-1.6-0.1-2.9C318.1,272.8,317.1,271.9,316.5,272.2z"/>
				<path class="st411" d="M257.9,285.4l-5.2-1.3c-0.6-0.1-1.2,0.3-1.4,1c-0.2,0.7,0.1,1.4,0.7,1.5l5.2,1.3c0.6,0.1,1.2-0.3,1.4-1
					C258.8,286.3,258.5,285.6,257.9,285.4z"/>
				<ellipse class="st413" cx="85" cy="243.7" rx="6.6" ry="4.6"/>
			</g>
			<g class="st414">
				<path class="st411" d="M369.7,219.6l0.2,4.8c0,0.7,0.7,1.2,1.5,1.2c0.8,0,1.5-0.6,1.4-1.3l-0.2-4.8c0-0.7-0.7-1.2-1.5-1.2
					S369.6,219,369.7,219.6z"/>
				<path class="st411" d="M362.6,232.1l-0.9,4.7c-0.1,0.7,0.4,1.3,1.2,1.5c0.8,0.2,1.6-0.3,1.7-0.9l0.9-4.7
					c0.1-0.7-0.4-1.3-1.2-1.5S362.8,231.4,362.6,232.1z"/>
				<path class="st411" d="M363.4,249.4l-3.8,8.6c-0.5,1.2,0.2,2.7,1.7,3.3s3.1,0.2,3.6-1l3.8-8.6c0.5-1.2-0.2-2.7-1.7-3.3
					C365.5,247.7,363.9,248.2,363.4,249.4z"/>
				<path class="st411" d="M340.5,278.4l-7.1,6c-1,0.8-1,2.5,0.1,3.7s2.7,1.5,3.6,0.7l7.1-6c1-0.8,1-2.5-0.1-3.7
					C343.1,277.8,341.4,277.5,340.5,278.4z"/>
				<path class="st411" d="M358.8,208.2l-1.2,13.2c-0.1,0.7,1.1,1.3,2.6,1.4c1.5,0.1,2.7-0.3,2.8-0.9l1.2-13.2
					c0.1-0.7-1.1-1.3-2.6-1.4C360.1,207.2,358.8,207.6,358.8,208.2z"/>
				<path class="st411" d="M339.4,265.1l-3.9,3.8c-0.4,0.4-0.4,1.2,0.2,1.7c0.5,0.5,1.3,0.6,1.7,0.2l3.9-3.8
					c0.4-0.4,0.4-1.2-0.2-1.7C340.6,264.8,339.9,264.7,339.4,265.1z"/>
			</g>
			<g class="st151">
				<path class="st411" d="M181.7,265.1l-5.8-4.7c-0.8-0.6-2-0.5-2.6,0.3c-0.6,0.8-0.5,2,0.3,2.6l5.8,4.7c0.8,0.6,2,0.5,2.6-0.3
					C182.6,266.9,182.5,265.7,181.7,265.1z"/>
				<path class="st411" d="M203.5,269.2l-5.8-4.7c-0.8-0.6-2-0.5-2.6,0.3c-0.6,0.8-0.5,2,0.3,2.6l5.8,4.7c0.8,0.6,2,0.5,2.6-0.3
					C204.5,271,204.3,269.8,203.5,269.2z"/>
				<path class="st411" d="M226.1,285.8l-4.9-4c-0.7-0.6-1.7-0.5-2.2,0.2c-0.6,0.7-0.5,1.7,0.2,2.2l4.9,4c0.7,0.6,1.7,0.5,2.2-0.2
					C226.9,287.4,226.8,286.4,226.1,285.8z"/>
				<path class="st411" d="M194.7,289l-5.8-4.7c-0.8-0.6-2-0.5-2.6,0.3s-0.5,2,0.3,2.6l5.8,4.7c0.8,0.6,2,0.5,2.6-0.3
					C195.6,290.8,195.5,289.6,194.7,289z"/>
				<path class="st411" d="M184.1,272.1l-5.8-4.7c-0.8-0.6-2-0.5-2.6,0.3c-0.6,0.8-0.5,2,0.3,2.6l5.8,4.7c0.8,0.6,2,0.5,2.6-0.3
					C185,273.9,184.9,272.8,184.1,272.1z"/>
				<path class="st411" d="M297.4,309.1l-3.6,2.4c-0.5,0.3-0.6,1.1-0.2,1.7s1.1,0.8,1.6,0.5l3.6-2.4c0.5-0.3,0.6-1.1,0.2-1.7
					C298.7,309,297.9,308.8,297.4,309.1z"/>
				<path class="st411" d="M284.6,309.6l-4.1,1.5c-0.6,0.2-0.8,0.9-0.5,1.6c0.3,0.7,0.9,1.1,1.5,0.9l4.1-1.5
					c0.6-0.2,0.8-0.9,0.5-1.6S285.1,309.4,284.6,309.6z"/>
				<path class="st412" d="M325.9,282.4l-3.4,2.7c-0.5,0.4-0.5,1.1,0,1.7c0.5,0.6,1.2,0.7,1.7,0.4l3.4-2.7c0.5-0.4,0.5-1.1,0-1.7
					C327.2,282.1,326.4,282,325.9,282.4z"/>
				<path class="st411" d="M151.8,241.4l-4.6-1.2c-0.6-0.2-1.3,0.2-1.5,0.9c-0.2,0.6,0.2,1.3,0.9,1.5l4.6,1.2
					c0.6,0.2,1.3-0.2,1.5-0.9S152.4,241.5,151.8,241.4z"/>
				<path class="st411" d="M112.6,238.7L108,240c-0.6,0.2-1,0.8-0.8,1.5c0.2,0.6,0.8,1,1.5,0.8l4.6-1.3c0.6-0.2,1-0.8,0.8-1.5
					C113.9,238.9,113.3,238.6,112.6,238.7z"/>
				<path class="st411" d="M78.3,252.8l-4,2.7c-0.5,0.4-0.7,1.1-0.3,1.7c0.4,0.5,1.1,0.7,1.7,0.3l4-2.7c0.5-0.4,0.7-1.1,0.3-1.7
					C79.6,252.5,78.8,252.4,78.3,252.8z"/>
				<path class="st411" d="M127.4,236.7l-3.5,0.2c-0.5,0-0.9,0.5-0.8,1c0,0.5,0.4,0.9,0.9,0.9l3.5-0.2c0.5,0,0.9-0.5,0.8-1
					S127.9,236.7,127.4,236.7z"/>
				<path class="st411" d="M271.7,318.3l-8.3,1.1c-1.2,0.2-1.9,1.4-1.7,2.9s1.3,2.4,2.4,2.3l8.3-1.1c1.2-0.2,1.9-1.4,1.7-2.9
					C273.9,319.1,272.8,318.1,271.7,318.3z"/>
				<path class="st411" d="M217.7,303.2l-5.6-3.5c-0.8-0.5-1.9-0.1-2.5,0.9c-0.6,0.9-0.4,2.1,0.3,2.6l5.6,3.5
					c0.8,0.5,1.9,0.1,2.5-0.9C218.6,304.8,218.5,303.7,217.7,303.2z"/>
				<path class="st411" d="M238.6,314.3l-8-2.7c-1.1-0.4-2.4,0.4-2.8,1.8c-0.4,1.4,0.1,2.8,1.2,3.1l8,2.7c1.1,0.4,2.4-0.4,2.8-1.8
					C240.2,316.1,239.7,314.7,238.6,314.3z"/>
				<path class="st411" d="M162.5,249l-4.1-2.4c-0.6-0.3-1.3-0.2-1.6,0.4c-0.3,0.6-0.2,1.3,0.4,1.6l4.1,2.4c0.6,0.3,1.3,0.2,1.6-0.4
					S163.1,249.3,162.5,249z"/>
				<path class="st411" d="M203,282l-3.7-3c-0.5-0.4-1.3-0.3-1.7,0.2c-0.4,0.5-0.3,1.3,0.2,1.7l3.7,3c0.5,0.4,1.3,0.3,1.7-0.2
					S203.5,282.4,203,282z"/>
				<path class="st411" d="M301.1,295.4l-10.7,5.2c-0.5,0.3-0.5,1.5,0.1,2.7c0.6,1.2,1.5,2,2,1.7l10.7-5.2c0.5-0.3,0.5-1.5-0.1-2.7
					C302.5,295.9,301.6,295.1,301.1,295.4z"/>
				<path class="st411" d="M248.3,307.3l-4.7-1.2c-0.5-0.1-1.1,0.3-1.2,0.9s0.1,1.3,0.6,1.4l4.7,1.2c0.5,0.1,1.1-0.3,1.2-0.9
					C249.1,308,248.8,307.4,248.3,307.3z"/>
			</g>
		</g>
	</g>
</g>
</svg>
