<?xml version="1.0" encoding="utf-8"?>
<!-- Generator: Adobe Illustrator 23.0.6, SVG Export Plug-In . SVG Version: 6.00 Build 0)  -->
<svg version="1.1" id="Capa_1" xmlns="http://www.w3.org/2000/svg" xmlns:xlink="http://www.w3.org/1999/xlink" x="0px" y="0px"
	 viewBox="0 0 514 564.3" style="enable-background:new 0 0 514 564.3;" xml:space="preserve">
<style type="text/css">
	.st0{clip-path:url(#SVGID_2_);}
	.st1{clip-path:url(#SVGID_4_);}
	.st2{fill:#954524;}
	.st3{fill:#A5756A;}
	.st4{fill:#592718;}
	.st5{fill:#441A11;}
	.st6{fill:#280E09;}
	.st7{opacity:0.89;clip-path:url(#SVGID_6_);}
	.st8{fill:#DD7F2A;}
	.st9{fill:#F4F3F2;}
	.st10{fill:#BA3C0F;}
	.st11{clip-path:url(#SVGID_8_);fill:#BC967D;}
	.st12{clip-path:url(#SVGID_10_);fill:#BC967D;}
	.st13{clip-path:url(#SVGID_12_);fill:#D1A288;}
	.st14{clip-path:url(#SVGID_14_);fill:url(#SVGID_15_);}
	.st15{clip-path:url(#SVGID_17_);fill:#A0918B;}
	.st16{clip-path:url(#SVGID_19_);fill:#BFB1AC;}
	.st17{clip-path:url(#SVGID_21_);fill:#BFB1AC;}
	.st18{clip-path:url(#SVGID_23_);fill:#E8E8E8;}
	.st19{clip-path:url(#SVGID_25_);fill:#DAE5EF;}
	.st20{clip-path:url(#SVGID_27_);fill:#DAE5EF;}
	.st21{clip-path:url(#SVGID_29_);}
	.st22{fill:#867971;}
	.st23{fill:none;stroke:#565351;stroke-width:2;stroke-miterlimit:10;}
	.st24{fill:#FFFFFF;}
	.st25{fill:#635852;}
	.st26{fill:#0097FE;}
	.st27{fill:none;stroke:#635852;stroke-width:2;stroke-miterlimit:10;}
	.st28{fill:#965636;}
	.st29{fill:none;stroke:#563A2E;stroke-width:7;stroke-miterlimit:10;}
	.st30{fill:none;stroke:#563A2E;stroke-width:2;stroke-miterlimit:10;}
	.st31{fill:#705C54;}
	.st32{fill:#847067;}
	.st33{fill:none;stroke:#705C54;stroke-width:3;stroke-miterlimit:10;}
	.st34{fill:none;stroke:#705C54;stroke-width:6;stroke-miterlimit:10;}
	.st35{fill:none;stroke:#6D3E2B;stroke-miterlimit:10;}
	.st36{fill:#563A2E;}
	.st37{clip-path:url(#SVGID_31_);}
	.st38{fill-rule:evenodd;clip-rule:evenodd;fill:#998675;}
	.st39{fill-rule:evenodd;clip-rule:evenodd;fill:#978474;}
	.st40{fill-rule:evenodd;clip-rule:evenodd;fill:#958372;}
	.st41{fill-rule:evenodd;clip-rule:evenodd;fill:#948171;}
	.st42{fill-rule:evenodd;clip-rule:evenodd;fill:#927F6F;}
	.st43{fill-rule:evenodd;clip-rule:evenodd;fill:#907E6E;}
	.st44{fill-rule:evenodd;clip-rule:evenodd;fill:#8E7C6C;}
	.st45{fill-rule:evenodd;clip-rule:evenodd;fill:#8C7A6B;}
	.st46{fill-rule:evenodd;clip-rule:evenodd;fill:#8B796A;}
	.st47{fill-rule:evenodd;clip-rule:evenodd;fill:#897768;}
	.st48{fill-rule:evenodd;clip-rule:evenodd;fill:#877567;}
	.st49{fill-rule:evenodd;clip-rule:evenodd;fill:#857465;}
	.st50{fill-rule:evenodd;clip-rule:evenodd;fill:#837264;}
	.st51{fill-rule:evenodd;clip-rule:evenodd;fill:#817062;}
	.st52{fill-rule:evenodd;clip-rule:evenodd;fill:#806F61;}
	.st53{fill-rule:evenodd;clip-rule:evenodd;fill:#7E6D60;}
	.st54{fill-rule:evenodd;clip-rule:evenodd;fill:#7C6B5E;}
	.st55{fill-rule:evenodd;clip-rule:evenodd;fill:#7A6A5D;}
	.st56{fill-rule:evenodd;clip-rule:evenodd;fill:#78685B;}
	.st57{fill-rule:evenodd;clip-rule:evenodd;fill:#77665A;}
	.st58{fill-rule:evenodd;clip-rule:evenodd;fill:#756558;}
	.st59{fill-rule:evenodd;clip-rule:evenodd;fill:#736357;}
	.st60{fill-rule:evenodd;clip-rule:evenodd;fill:url(#SVGID_32_);}
	.st61{fill-rule:evenodd;clip-rule:evenodd;fill:url(#SVGID_33_);}
	.st62{fill-rule:evenodd;clip-rule:evenodd;fill:url(#SVGID_34_);}
	.st63{fill-rule:evenodd;clip-rule:evenodd;fill:url(#SVGID_35_);}
	.st64{fill-rule:evenodd;clip-rule:evenodd;fill:url(#SVGID_36_);}
	.st65{fill-rule:evenodd;clip-rule:evenodd;fill:url(#SVGID_37_);}
	.st66{fill-rule:evenodd;clip-rule:evenodd;fill:url(#SVGID_38_);}
	.st67{fill-rule:evenodd;clip-rule:evenodd;fill:url(#SVGID_39_);}
	.st68{fill-rule:evenodd;clip-rule:evenodd;fill:url(#SVGID_40_);}
	.st69{fill-rule:evenodd;clip-rule:evenodd;fill:url(#SVGID_41_);}
	.st70{fill-rule:evenodd;clip-rule:evenodd;fill:url(#SVGID_42_);}
	.st71{fill-rule:evenodd;clip-rule:evenodd;fill:url(#SVGID_43_);}
	.st72{opacity:0.52;}
	.st73{fill-rule:evenodd;clip-rule:evenodd;fill:url(#SVGID_44_);}
	.st74{fill-rule:evenodd;clip-rule:evenodd;fill:url(#SVGID_45_);}
	.st75{fill-rule:evenodd;clip-rule:evenodd;fill:url(#SVGID_46_);}
	.st76{fill-rule:evenodd;clip-rule:evenodd;fill:url(#SVGID_47_);}
	.st77{fill-rule:evenodd;clip-rule:evenodd;fill:url(#SVGID_48_);}
	.st78{fill-rule:evenodd;clip-rule:evenodd;fill:url(#SVGID_49_);}
	.st79{fill-rule:evenodd;clip-rule:evenodd;fill:url(#SVGID_50_);}
	.st80{fill-rule:evenodd;clip-rule:evenodd;fill:url(#SVGID_51_);}
	.st81{fill-rule:evenodd;clip-rule:evenodd;fill:url(#SVGID_52_);}
	.st82{fill-rule:evenodd;clip-rule:evenodd;fill:url(#SVGID_53_);}
	.st83{fill-rule:evenodd;clip-rule:evenodd;fill:url(#SVGID_54_);}
	.st84{fill-rule:evenodd;clip-rule:evenodd;fill:url(#SVGID_55_);}
	.st85{fill-rule:evenodd;clip-rule:evenodd;fill:url(#SVGID_56_);}
	.st86{fill-rule:evenodd;clip-rule:evenodd;fill:url(#SVGID_57_);}
	.st87{fill-rule:evenodd;clip-rule:evenodd;fill:url(#SVGID_58_);}
	.st88{fill-rule:evenodd;clip-rule:evenodd;fill:url(#SVGID_59_);}
	.st89{fill-rule:evenodd;clip-rule:evenodd;fill:url(#SVGID_60_);}
	.st90{fill-rule:evenodd;clip-rule:evenodd;fill:url(#SVGID_61_);}
	.st91{fill-rule:evenodd;clip-rule:evenodd;fill:url(#SVGID_62_);}
	.st92{fill-rule:evenodd;clip-rule:evenodd;fill:url(#SVGID_63_);}
	.st93{fill-rule:evenodd;clip-rule:evenodd;fill:url(#SVGID_64_);}
	.st94{fill-rule:evenodd;clip-rule:evenodd;fill:url(#SVGID_65_);}
	.st95{fill-rule:evenodd;clip-rule:evenodd;fill:url(#SVGID_66_);}
	.st96{fill-rule:evenodd;clip-rule:evenodd;fill:url(#SVGID_67_);}
	.st97{fill-rule:evenodd;clip-rule:evenodd;fill:url(#SVGID_68_);}
	.st98{fill-rule:evenodd;clip-rule:evenodd;fill:url(#SVGID_69_);}
	.st99{fill-rule:evenodd;clip-rule:evenodd;fill:url(#SVGID_70_);}
	.st100{fill-rule:evenodd;clip-rule:evenodd;fill:url(#SVGID_71_);}
	.st101{fill-rule:evenodd;clip-rule:evenodd;fill:url(#SVGID_72_);}
	.st102{fill-rule:evenodd;clip-rule:evenodd;fill:url(#SVGID_73_);}
	.st103{fill-rule:evenodd;clip-rule:evenodd;fill:url(#SVGID_74_);}
	.st104{fill-rule:evenodd;clip-rule:evenodd;fill:url(#SVGID_75_);}
	.st105{fill-rule:evenodd;clip-rule:evenodd;fill:url(#SVGID_76_);}
	.st106{fill-rule:evenodd;clip-rule:evenodd;fill:url(#SVGID_77_);}
	.st107{fill-rule:evenodd;clip-rule:evenodd;fill:url(#SVGID_78_);}
	.st108{fill-rule:evenodd;clip-rule:evenodd;fill:url(#SVGID_79_);}
	.st109{fill-rule:evenodd;clip-rule:evenodd;fill:url(#SVGID_80_);}
	.st110{fill-rule:evenodd;clip-rule:evenodd;fill:url(#SVGID_81_);}
	.st111{fill-rule:evenodd;clip-rule:evenodd;fill:url(#SVGID_82_);}
	.st112{fill-rule:evenodd;clip-rule:evenodd;fill:url(#SVGID_83_);}
	.st113{fill-rule:evenodd;clip-rule:evenodd;fill:url(#SVGID_84_);}
	.st114{fill-rule:evenodd;clip-rule:evenodd;fill:url(#SVGID_85_);}
	.st115{fill-rule:evenodd;clip-rule:evenodd;fill:url(#SVGID_86_);}
	.st116{fill-rule:evenodd;clip-rule:evenodd;fill:url(#SVGID_87_);}
	.st117{fill-rule:evenodd;clip-rule:evenodd;fill:url(#SVGID_88_);}
	.st118{fill-rule:evenodd;clip-rule:evenodd;fill:url(#SVGID_89_);}
	.st119{fill-rule:evenodd;clip-rule:evenodd;fill:url(#SVGID_90_);}
	.st120{fill-rule:evenodd;clip-rule:evenodd;fill:url(#SVGID_91_);}
	.st121{fill-rule:evenodd;clip-rule:evenodd;fill:url(#SVGID_92_);}
	.st122{fill-rule:evenodd;clip-rule:evenodd;fill:url(#SVGID_93_);}
	.st123{fill-rule:evenodd;clip-rule:evenodd;fill:url(#SVGID_94_);}
	.st124{fill-rule:evenodd;clip-rule:evenodd;fill:url(#SVGID_95_);}
	.st125{clip-path:url(#SVGID_97_);}
	.st126{fill:url(#SVGID_98_);}
	.st127{fill:#6CD0F5;}
	.st128{fill:#69B8D4;}
	.st129{fill:none;}
	.st130{fill:#E8F7F6;}
	.st131{fill:#DFEFEE;}
	.st132{fill:#E3BB7C;}
	.st133{fill:#D3A56A;}
	.st134{fill:#F2F0ED;}
	.st135{fill:#DDD9D4;}
	.st136{fill:#644930;}
	.st137{fill:#C39669;}
	.st138{fill:#A87441;}
	.st139{fill:#555A4C;}
	.st140{fill:#49321F;}
	.st141{fill:#4A3729;}
	.st142{fill:#755A48;}
	.st143{fill:#865932;}
	.st144{fill:none;stroke:#C1916C;stroke-width:4;stroke-miterlimit:10;}
	.st145{fill:none;stroke:#F9F9F9;stroke-miterlimit:10;}
	.st146{fill:#E8E8E8;}
	.st147{clip-path:url(#SVGID_100_);}
	.st148{fill:url(#SVGID_101_);}
	.st149{fill:#8E8684;}
	.st150{fill:#6C5A46;}
	.st151{opacity:0.47;}
	.st152{fill:#AD9279;}
	.st153{fill:#382F27;}
	.st154{fill:#937A65;}
	.st155{fill:#514336;}
	.st156{fill:none;stroke:#514336;stroke-width:3;stroke-miterlimit:10;}
	.st157{fill:#5E4F3F;}
	.st158{fill:#846C57;}
	.st159{fill:#6E9967;}
	.st160{fill:#42913E;}
	.st161{fill:#6AAA60;}
	.st162{fill:#65A544;}
	.st163{fill:#777271;}
	.st164{fill:#5A8E3C;}
	.st165{fill:none;stroke:#545450;stroke-width:4;stroke-miterlimit:10;}
	.st166{fill:none;stroke:#545450;stroke-width:5;stroke-miterlimit:10;}
	.st167{fill:none;stroke:#545450;stroke-width:6;stroke-miterlimit:10;}
	.st168{fill:none;stroke:#545450;stroke-width:8;stroke-miterlimit:10;}
	.st169{fill:#44372C;}
	.st170{clip-path:url(#SVGID_103_);}
	.st171{clip-path:url(#SVGID_105_);}
	.st172{fill:url(#SVGID_106_);}
	.st173{fill:#66A8DA;}
	.st174{fill:#E2994C;}
	.st175{fill:#7F7E7C;}
	.st176{fill:#A8A59D;}
	.st177{fill:#7A8F35;}
	.st178{fill:#5E6B26;}
	.st179{fill:#D6D1CC;}
	.st180{fill:#AF947B;}
	.st181{fill:none;stroke:#AF947B;stroke-width:3;stroke-miterlimit:10;}
	.st182{fill:#EDECE8;}
	.st183{fill:#C6BDA8;}
	.st184{fill:none;stroke:#FFFFFF;stroke-width:3;stroke-miterlimit:10;}
	.st185{fill-rule:evenodd;clip-rule:evenodd;fill:#2B6DAF;}
	.st186{fill:none;stroke:#AAA69B;stroke-width:4;stroke-miterlimit:10;}
	.st187{fill-rule:evenodd;clip-rule:evenodd;fill:url(#SVGID_107_);}
	.st188{fill-rule:evenodd;clip-rule:evenodd;fill:url(#SVGID_108_);}
	.st189{fill-rule:evenodd;clip-rule:evenodd;fill:url(#SVGID_109_);}
	.st190{fill-rule:evenodd;clip-rule:evenodd;fill:url(#SVGID_110_);}
	.st191{fill-rule:evenodd;clip-rule:evenodd;fill:url(#SVGID_111_);}
	.st192{fill-rule:evenodd;clip-rule:evenodd;fill:url(#SVGID_112_);}
	.st193{fill-rule:evenodd;clip-rule:evenodd;fill:url(#SVGID_113_);}
	.st194{fill-rule:evenodd;clip-rule:evenodd;fill:url(#SVGID_114_);}
	.st195{fill-rule:evenodd;clip-rule:evenodd;fill:url(#SVGID_115_);}
	.st196{fill-rule:evenodd;clip-rule:evenodd;fill:url(#SVGID_116_);}
	.st197{fill-rule:evenodd;clip-rule:evenodd;fill:url(#SVGID_117_);}
	.st198{fill-rule:evenodd;clip-rule:evenodd;fill:url(#SVGID_118_);}
	.st199{fill-rule:evenodd;clip-rule:evenodd;fill:url(#SVGID_119_);}
	.st200{fill-rule:evenodd;clip-rule:evenodd;fill:url(#SVGID_120_);}
	.st201{fill-rule:evenodd;clip-rule:evenodd;fill:url(#SVGID_121_);}
	.st202{fill-rule:evenodd;clip-rule:evenodd;fill:url(#SVGID_122_);}
	.st203{fill-rule:evenodd;clip-rule:evenodd;fill:url(#SVGID_123_);}
	.st204{fill-rule:evenodd;clip-rule:evenodd;fill:url(#SVGID_124_);}
	.st205{fill-rule:evenodd;clip-rule:evenodd;fill:url(#SVGID_125_);}
	.st206{fill-rule:evenodd;clip-rule:evenodd;fill:url(#SVGID_126_);}
	.st207{fill-rule:evenodd;clip-rule:evenodd;fill:url(#SVGID_127_);}
	.st208{fill-rule:evenodd;clip-rule:evenodd;fill:url(#SVGID_128_);}
	.st209{fill-rule:evenodd;clip-rule:evenodd;fill:url(#SVGID_129_);}
	.st210{fill-rule:evenodd;clip-rule:evenodd;fill:url(#SVGID_130_);}
	.st211{fill-rule:evenodd;clip-rule:evenodd;fill:url(#SVGID_131_);}
	.st212{fill-rule:evenodd;clip-rule:evenodd;fill:url(#SVGID_132_);}
	.st213{fill-rule:evenodd;clip-rule:evenodd;fill:url(#SVGID_133_);}
	.st214{fill-rule:evenodd;clip-rule:evenodd;fill:url(#SVGID_134_);}
	.st215{fill-rule:evenodd;clip-rule:evenodd;fill:url(#SVGID_135_);}
	.st216{fill-rule:evenodd;clip-rule:evenodd;fill:url(#SVGID_136_);}
	.st217{fill-rule:evenodd;clip-rule:evenodd;fill:url(#SVGID_137_);}
	.st218{fill-rule:evenodd;clip-rule:evenodd;fill:url(#SVGID_138_);}
	.st219{fill-rule:evenodd;clip-rule:evenodd;fill:url(#SVGID_139_);}
	.st220{fill-rule:evenodd;clip-rule:evenodd;fill:url(#SVGID_140_);}
	.st221{fill-rule:evenodd;clip-rule:evenodd;fill:url(#SVGID_141_);}
	.st222{fill-rule:evenodd;clip-rule:evenodd;fill:url(#SVGID_142_);}
	.st223{fill-rule:evenodd;clip-rule:evenodd;fill:url(#SVGID_143_);}
	.st224{fill-rule:evenodd;clip-rule:evenodd;fill:url(#SVGID_144_);}
	.st225{fill-rule:evenodd;clip-rule:evenodd;fill:url(#SVGID_145_);}
	.st226{fill-rule:evenodd;clip-rule:evenodd;fill:url(#SVGID_146_);}
	.st227{fill-rule:evenodd;clip-rule:evenodd;fill:url(#SVGID_147_);}
	.st228{fill-rule:evenodd;clip-rule:evenodd;fill:url(#SVGID_148_);}
	.st229{fill-rule:evenodd;clip-rule:evenodd;fill:url(#SVGID_149_);}
	.st230{fill-rule:evenodd;clip-rule:evenodd;fill:url(#SVGID_150_);}
	.st231{fill-rule:evenodd;clip-rule:evenodd;fill:url(#SVGID_151_);}
	.st232{fill-rule:evenodd;clip-rule:evenodd;fill:url(#SVGID_152_);}
	.st233{fill-rule:evenodd;clip-rule:evenodd;fill:url(#SVGID_153_);}
	.st234{fill-rule:evenodd;clip-rule:evenodd;fill:url(#SVGID_154_);}
	.st235{fill-rule:evenodd;clip-rule:evenodd;fill:url(#SVGID_155_);}
	.st236{fill-rule:evenodd;clip-rule:evenodd;fill:url(#SVGID_156_);}
	.st237{fill-rule:evenodd;clip-rule:evenodd;fill:url(#SVGID_157_);}
	.st238{fill-rule:evenodd;clip-rule:evenodd;fill:url(#SVGID_158_);}
	.st239{fill-rule:evenodd;clip-rule:evenodd;fill:url(#SVGID_159_);}
	.st240{fill-rule:evenodd;clip-rule:evenodd;fill:url(#SVGID_160_);}
	.st241{fill-rule:evenodd;clip-rule:evenodd;fill:url(#SVGID_161_);}
	.st242{fill-rule:evenodd;clip-rule:evenodd;fill:url(#SVGID_162_);}
	.st243{fill-rule:evenodd;clip-rule:evenodd;fill:url(#SVGID_163_);}
	.st244{fill-rule:evenodd;clip-rule:evenodd;fill:url(#SVGID_164_);}
	.st245{fill-rule:evenodd;clip-rule:evenodd;fill:url(#SVGID_165_);}
	.st246{fill-rule:evenodd;clip-rule:evenodd;fill:url(#SVGID_166_);}
	.st247{fill-rule:evenodd;clip-rule:evenodd;fill:url(#SVGID_167_);}
	.st248{fill-rule:evenodd;clip-rule:evenodd;fill:url(#SVGID_168_);}
	.st249{fill-rule:evenodd;clip-rule:evenodd;fill:url(#SVGID_169_);}
	.st250{fill-rule:evenodd;clip-rule:evenodd;fill:url(#SVGID_170_);}
	.st251{fill-rule:evenodd;clip-rule:evenodd;fill:url(#SVGID_171_);}
	.st252{fill-rule:evenodd;clip-rule:evenodd;fill:url(#SVGID_172_);}
	.st253{fill-rule:evenodd;clip-rule:evenodd;fill:url(#SVGID_173_);}
	.st254{fill-rule:evenodd;clip-rule:evenodd;fill:url(#SVGID_174_);}
	.st255{fill-rule:evenodd;clip-rule:evenodd;fill:url(#SVGID_175_);}
	.st256{fill-rule:evenodd;clip-rule:evenodd;fill:url(#SVGID_176_);}
	.st257{fill-rule:evenodd;clip-rule:evenodd;fill:url(#SVGID_177_);}
	.st258{fill-rule:evenodd;clip-rule:evenodd;fill:url(#SVGID_178_);}
	.st259{fill-rule:evenodd;clip-rule:evenodd;fill:url(#SVGID_179_);}
	.st260{fill-rule:evenodd;clip-rule:evenodd;fill:url(#SVGID_180_);}
	.st261{fill-rule:evenodd;clip-rule:evenodd;fill:url(#SVGID_181_);}
	.st262{fill-rule:evenodd;clip-rule:evenodd;fill:url(#SVGID_182_);}
	.st263{fill-rule:evenodd;clip-rule:evenodd;fill:url(#SVGID_183_);}
	.st264{fill-rule:evenodd;clip-rule:evenodd;fill:url(#SVGID_184_);}
	.st265{fill-rule:evenodd;clip-rule:evenodd;fill:url(#SVGID_185_);}
	.st266{fill-rule:evenodd;clip-rule:evenodd;fill:url(#SVGID_186_);}
	.st267{fill-rule:evenodd;clip-rule:evenodd;fill:url(#SVGID_187_);}
	.st268{fill-rule:evenodd;clip-rule:evenodd;fill:url(#SVGID_188_);}
	.st269{fill-rule:evenodd;clip-rule:evenodd;fill:url(#SVGID_189_);}
	.st270{fill-rule:evenodd;clip-rule:evenodd;fill:url(#SVGID_190_);}
	.st271{fill-rule:evenodd;clip-rule:evenodd;fill:url(#SVGID_191_);}
	.st272{fill-rule:evenodd;clip-rule:evenodd;fill:url(#SVGID_192_);}
	.st273{fill-rule:evenodd;clip-rule:evenodd;fill:url(#SVGID_193_);}
	.st274{fill-rule:evenodd;clip-rule:evenodd;fill:url(#SVGID_194_);}
	.st275{fill-rule:evenodd;clip-rule:evenodd;fill:url(#SVGID_195_);}
	.st276{fill-rule:evenodd;clip-rule:evenodd;fill:url(#SVGID_196_);}
	.st277{fill-rule:evenodd;clip-rule:evenodd;fill:url(#SVGID_197_);}
	.st278{fill-rule:evenodd;clip-rule:evenodd;fill:url(#SVGID_198_);}
	.st279{fill-rule:evenodd;clip-rule:evenodd;fill:url(#SVGID_199_);}
	.st280{fill-rule:evenodd;clip-rule:evenodd;fill:url(#SVGID_200_);}
	.st281{fill-rule:evenodd;clip-rule:evenodd;fill:url(#SVGID_201_);}
	.st282{fill-rule:evenodd;clip-rule:evenodd;fill:url(#SVGID_202_);}
	.st283{fill-rule:evenodd;clip-rule:evenodd;fill:url(#SVGID_203_);}
	.st284{fill-rule:evenodd;clip-rule:evenodd;fill:url(#SVGID_204_);}
	.st285{fill-rule:evenodd;clip-rule:evenodd;fill:url(#SVGID_205_);}
	.st286{fill-rule:evenodd;clip-rule:evenodd;fill:url(#SVGID_206_);}
	.st287{fill-rule:evenodd;clip-rule:evenodd;fill:url(#SVGID_207_);}
	.st288{fill-rule:evenodd;clip-rule:evenodd;fill:url(#SVGID_208_);}
	.st289{fill-rule:evenodd;clip-rule:evenodd;fill:url(#SVGID_209_);}
	.st290{fill-rule:evenodd;clip-rule:evenodd;fill:url(#SVGID_210_);}
	.st291{fill-rule:evenodd;clip-rule:evenodd;fill:url(#SVGID_211_);}
	.st292{fill-rule:evenodd;clip-rule:evenodd;fill:url(#SVGID_212_);}
	.st293{fill-rule:evenodd;clip-rule:evenodd;fill:url(#SVGID_213_);}
	.st294{fill-rule:evenodd;clip-rule:evenodd;fill:url(#SVGID_214_);}
	.st295{fill-rule:evenodd;clip-rule:evenodd;fill:url(#SVGID_215_);}
	.st296{fill-rule:evenodd;clip-rule:evenodd;fill:url(#SVGID_216_);}
	.st297{fill-rule:evenodd;clip-rule:evenodd;fill:url(#SVGID_217_);}
	.st298{fill-rule:evenodd;clip-rule:evenodd;fill:url(#SVGID_218_);}
	.st299{fill-rule:evenodd;clip-rule:evenodd;fill:url(#SVGID_219_);}
	.st300{fill-rule:evenodd;clip-rule:evenodd;fill:url(#SVGID_220_);}
	.st301{fill-rule:evenodd;clip-rule:evenodd;fill:url(#SVGID_221_);}
	.st302{fill-rule:evenodd;clip-rule:evenodd;fill:url(#SVGID_222_);}
	.st303{fill-rule:evenodd;clip-rule:evenodd;fill:url(#SVGID_223_);}
	.st304{fill-rule:evenodd;clip-rule:evenodd;fill:url(#SVGID_224_);}
	.st305{fill-rule:evenodd;clip-rule:evenodd;fill:url(#SVGID_225_);}
	.st306{fill-rule:evenodd;clip-rule:evenodd;fill:url(#SVGID_226_);}
	.st307{fill-rule:evenodd;clip-rule:evenodd;fill:url(#SVGID_227_);}
	.st308{fill-rule:evenodd;clip-rule:evenodd;fill:url(#SVGID_228_);}
	.st309{fill-rule:evenodd;clip-rule:evenodd;fill:url(#SVGID_229_);}
	.st310{fill-rule:evenodd;clip-rule:evenodd;fill:url(#SVGID_230_);}
	.st311{fill-rule:evenodd;clip-rule:evenodd;fill:url(#SVGID_231_);}
	.st312{fill-rule:evenodd;clip-rule:evenodd;fill:url(#SVGID_232_);}
	.st313{fill-rule:evenodd;clip-rule:evenodd;fill:url(#SVGID_233_);}
	.st314{fill-rule:evenodd;clip-rule:evenodd;fill:url(#SVGID_234_);}
	.st315{fill-rule:evenodd;clip-rule:evenodd;fill:url(#SVGID_235_);}
	.st316{fill-rule:evenodd;clip-rule:evenodd;fill:url(#SVGID_236_);}
	.st317{fill-rule:evenodd;clip-rule:evenodd;fill:url(#SVGID_237_);}
	.st318{fill-rule:evenodd;clip-rule:evenodd;fill:url(#SVGID_238_);}
	.st319{fill-rule:evenodd;clip-rule:evenodd;fill:url(#SVGID_239_);}
	.st320{fill-rule:evenodd;clip-rule:evenodd;fill:url(#SVGID_240_);}
	.st321{fill-rule:evenodd;clip-rule:evenodd;fill:url(#SVGID_241_);}
	.st322{fill-rule:evenodd;clip-rule:evenodd;fill:url(#SVGID_242_);}
	.st323{fill-rule:evenodd;clip-rule:evenodd;fill:url(#SVGID_243_);}
	.st324{fill-rule:evenodd;clip-rule:evenodd;fill:url(#SVGID_244_);}
	.st325{fill-rule:evenodd;clip-rule:evenodd;fill:url(#SVGID_245_);}
	.st326{fill-rule:evenodd;clip-rule:evenodd;fill:url(#SVGID_246_);}
	.st327{fill-rule:evenodd;clip-rule:evenodd;fill:url(#SVGID_247_);}
	.st328{fill-rule:evenodd;clip-rule:evenodd;fill:url(#SVGID_248_);}
	.st329{fill-rule:evenodd;clip-rule:evenodd;fill:url(#SVGID_249_);}
	.st330{fill-rule:evenodd;clip-rule:evenodd;fill:url(#SVGID_250_);}
	.st331{fill-rule:evenodd;clip-rule:evenodd;fill:url(#SVGID_251_);}
	.st332{fill-rule:evenodd;clip-rule:evenodd;fill:url(#SVGID_252_);}
	.st333{fill-rule:evenodd;clip-rule:evenodd;fill:url(#SVGID_253_);}
	.st334{fill-rule:evenodd;clip-rule:evenodd;fill:url(#SVGID_254_);}
	.st335{fill-rule:evenodd;clip-rule:evenodd;fill:url(#SVGID_255_);}
	.st336{fill-rule:evenodd;clip-rule:evenodd;fill:url(#SVGID_256_);}
	.st337{fill-rule:evenodd;clip-rule:evenodd;fill:url(#SVGID_257_);}
	.st338{fill-rule:evenodd;clip-rule:evenodd;fill:url(#SVGID_258_);}
	.st339{fill-rule:evenodd;clip-rule:evenodd;fill:url(#SVGID_259_);}
	.st340{fill-rule:evenodd;clip-rule:evenodd;fill:url(#SVGID_260_);}
	.st341{fill-rule:evenodd;clip-rule:evenodd;fill:url(#SVGID_261_);}
	.st342{fill-rule:evenodd;clip-rule:evenodd;fill:url(#SVGID_262_);}
	.st343{fill-rule:evenodd;clip-rule:evenodd;fill:url(#SVGID_263_);}
	.st344{fill-rule:evenodd;clip-rule:evenodd;fill:url(#SVGID_264_);}
	.st345{fill-rule:evenodd;clip-rule:evenodd;fill:url(#SVGID_265_);}
	.st346{fill-rule:evenodd;clip-rule:evenodd;fill:url(#SVGID_266_);}
	.st347{fill-rule:evenodd;clip-rule:evenodd;fill:url(#SVGID_267_);}
	.st348{fill-rule:evenodd;clip-rule:evenodd;fill:url(#SVGID_268_);}
	.st349{fill-rule:evenodd;clip-rule:evenodd;fill:url(#SVGID_269_);}
	.st350{fill-rule:evenodd;clip-rule:evenodd;fill:url(#SVGID_270_);}
	.st351{fill-rule:evenodd;clip-rule:evenodd;fill:url(#SVGID_271_);}
	.st352{fill-rule:evenodd;clip-rule:evenodd;fill:url(#SVGID_272_);}
	.st353{fill-rule:evenodd;clip-rule:evenodd;fill:url(#SVGID_273_);}
	.st354{fill-rule:evenodd;clip-rule:evenodd;fill:url(#SVGID_274_);}
	.st355{fill-rule:evenodd;clip-rule:evenodd;fill:url(#SVGID_275_);}
	.st356{fill-rule:evenodd;clip-rule:evenodd;fill:url(#SVGID_276_);}
	.st357{fill-rule:evenodd;clip-rule:evenodd;fill:url(#SVGID_277_);}
	.st358{fill-rule:evenodd;clip-rule:evenodd;fill:url(#SVGID_278_);}
	.st359{fill-rule:evenodd;clip-rule:evenodd;fill:url(#SVGID_279_);}
	.st360{fill-rule:evenodd;clip-rule:evenodd;fill:url(#SVGID_280_);}
	.st361{fill-rule:evenodd;clip-rule:evenodd;fill:url(#SVGID_281_);}
	.st362{fill-rule:evenodd;clip-rule:evenodd;fill:url(#SVGID_282_);}
	.st363{fill-rule:evenodd;clip-rule:evenodd;fill:url(#SVGID_283_);}
	.st364{fill-rule:evenodd;clip-rule:evenodd;fill:url(#SVGID_284_);}
	.st365{fill-rule:evenodd;clip-rule:evenodd;fill:url(#SVGID_285_);}
	.st366{fill-rule:evenodd;clip-rule:evenodd;fill:url(#SVGID_286_);}
	.st367{fill-rule:evenodd;clip-rule:evenodd;fill:url(#SVGID_287_);}
	.st368{fill-rule:evenodd;clip-rule:evenodd;fill:url(#SVGID_288_);}
	.st369{fill-rule:evenodd;clip-rule:evenodd;fill:url(#SVGID_289_);}
	.st370{fill-rule:evenodd;clip-rule:evenodd;fill:url(#SVGID_290_);}
	.st371{fill-rule:evenodd;clip-rule:evenodd;fill:url(#SVGID_291_);}
	.st372{fill-rule:evenodd;clip-rule:evenodd;fill:url(#SVGID_292_);}
	.st373{fill-rule:evenodd;clip-rule:evenodd;fill:url(#SVGID_293_);}
	.st374{fill-rule:evenodd;clip-rule:evenodd;fill:url(#SVGID_294_);}
	.st375{fill-rule:evenodd;clip-rule:evenodd;fill:url(#SVGID_295_);}
	.st376{fill-rule:evenodd;clip-rule:evenodd;fill:url(#SVGID_296_);}
	.st377{fill-rule:evenodd;clip-rule:evenodd;fill:url(#SVGID_297_);}
	.st378{fill-rule:evenodd;clip-rule:evenodd;fill:url(#SVGID_298_);}
	.st379{fill:#A8EBFA;}
	.st380{fill:#7ED8F6;}
	.st381{fill:#DAE5EF;}
	.st382{clip-path:url(#SVGID_300_);}
	.st383{fill:url(#SVGID_301_);}
	.st384{fill:#2B2524;}
	.st385{fill:#141212;}
	.st386{fill:#C0A47F;}
	.st387{fill:#3A3D4E;}
	.st388{fill:#435628;}
	.st389{fill:#293515;}
	.st390{fill:#F5855D;}
	.st391{fill:#BCA899;}
	.st392{fill:#998473;}
	.st393{fill:#65A844;}
	.st394{fill:#93793D;}
	.st395{fill:#5C9340;}
	.st396{clip-path:url(#SVGID_303_);fill:url(#SVGID_304_);}
	.st397{clip-path:url(#SVGID_306_);fill:#E8E8E8;}
	.st398{clip-path:url(#SVGID_308_);fill:#E8E8E8;}
	.st399{clip-path:url(#SVGID_312_);}
	.st400{fill:#CEA484;}
	.st401{fill:#E2B893;}
	.st402{fill:#B2835B;}
	.st403{fill:none;stroke:#9B683E;stroke-width:2;stroke-miterlimit:10;}
	.st404{clip-path:url(#SVGID_314_);}
	.st405{fill:#AF8275;}
	.st406{fill:#7C4E40;}
	.st407{clip-path:url(#SVGID_316_);}
	.st408{fill:#595759;}
	.st409{fill:#5584B0;}
	.st410{fill:url(#SVGID_317_);}
	.st411{fill:#FCFCFC;}
	.st412{opacity:0.5;fill:#A4D3F4;enable-background:new    ;}
	.st413{fill:#050505;}
	.st414{opacity:0.69;}
	.st415{clip-path:url(#SVGID_319_);}
	.st416{fill:url(#SVGID_320_);}
	.st417{clip-path:url(#SVGID_322_);}
	.st418{fill:#5C993C;}
	.st419{fill:#88C663;}
	.st420{fill:#406329;}
	.st421{fill:#B29312;}
	.st422{fill:none;stroke:#913A13;stroke-width:2;stroke-miterlimit:10;}
	.st423{fill:#A50A6A;}
	.st424{fill:#C40072;}
	.st425{clip-path:url(#SVGID_324_);}
	.st426{fill:#98D873;}
</style>
<g>
	<g>
		<defs>
			<path id="SVGID_99_" d="M240.2,55.2c-119.5,0-216.4,96.9-216.4,216.4c0,26.3,4.7,51.5,13.3,74.8l0,0
				C67.5,429.1,146.9,488,240.2,488c93.2,0,172.7-58.9,203.1-141.6l0,0c8.6-23.3,13.3-48.5,13.3-74.8
				C456.6,152.1,359.7,55.2,240.2,55.2z"/>
		</defs>
		<clipPath id="SVGID_2_">
			<use xlink:href="#SVGID_99_"  style="overflow:visible;"/>
		</clipPath>
		<g class="st0">
			
				<linearGradient id="SVGID_4_" gradientUnits="userSpaceOnUse" x1="233.475" y1="-21.7584" x2="233.475" y2="542.5376" gradientTransform="matrix(1 0 0 -1 0 542.5376)">
				<stop  offset="0.3212" style="stop-color:#DAE5EF"/>
				<stop  offset="1" style="stop-color:#6DAFDF"/>
			</linearGradient>
			<rect style="fill:url(#SVGID_4_);" width="466.9" height="564.3"/>
			<g>
				<path class="st149" d="M146.9,368.4l-3.8,2.2l-21.2,12.2c0,0,12.1-6.3,24.5-10.7c8.6-3.1,17.4-5.3,22.1-3.7
					c11.5,3.8,20.2,3.3,26.9,6.9c6.7,3.6,8.2,3.6,19.2,1.7s13.5-1.4,26.4,0s28.3-2.9,37-1.7s41.8-5.5,50.4-5
					c8.6,0.5,12.5,3.8,21.1,5s22.1,1.7,33.6,1.7s52.8-1,62,9.6c9.1,10.6,22.1,11.3,31.7,23.2c9.6,11.9,17.3,95.3,17.3,95.3
					s-477.1,9.1-477.1,6.7c0-2.4-5.3-98.3,8.6-98.3s20.2,1.9,28.8-0.5c8.6-2.4,22.1-9.6,28.3-13.9c6.2-4.3,1.4-9.3,11.1-6.3
					s10.1-1.8,13.5-4.7"/>
				<path class="st150" d="M113.9,385.3c0-1.9,1.9-25,4.8-32.2c2.9-7.2,4.3-14.4,4.3-14.4s-4.3-1,0-4.8s9.1-8.2,9.1-8.2
					s-12-7.2-9.1-13c2.9-5.8-2.4-12.5,0-14.9s7.2-3.4,4.8-6.2c-2.4-2.9,7.7-2.9,4.3-8.2c-3.4-5.3-4.3-9.6-2.4-9.6s1.9-3.8,3.1-6.2
					c1.2-2.4,0.3-3.8,2.2-5.8s6.7-0.5,7.7-4.8c1-4.3-1.4-10.1,2.9-12.5c4.3-2.4,7.7-1.9,8.6-6.2c1-4.3,3.4-5.3,4.8-10.1
					c1.4-4.8,7.7-4.3,8.2-5.8s1.4-5.8,3.8-3.4c2.4,2.4,6.7,1.4,6.7,1.4l4.3-4.3c0,0,1-6.2,2.4-7.2c1.4-1,4.3-7.7,10.6-13
					c6.2-5.3-6.7-2.9,0-6.2s7.7-6.2,7.7-7.7s11.1,0,11.1,0s1-3.4,6.7-6.7c5.8-3.4,4.8-9.6,11.1-8.6c6.2,1,24-7.7,24-7.7
					s19.7-6.7,29.8-7.7c10.1-1,11.1-4.8,14.4-9.1c3.4-4.3,41.8-10.6,41.8-10.6h8.2c0,0,44.7-1,46.1,0c1.4,1,10.1,6.7,13.9,2.9
					s7.2-4.2,9.1-3.3s19.7,6.2,19.7,6.2l20.7-0.5l13.9-2.4l6.2,0.5v253.2c0,0-47.1-2.4-52.4-4.3c-5.3-1.9-16.3-1-25-3.8
					c-8.6-2.9-26.9-1.9-26.9-1.9s-47.1,3.8-51.9,4.3c-4.8,0.5-16.3-1-22.6-1c-6.2,0-29.3,1-35.1,1s-14.4,0-14.4,0s-11.5,0-17.3,0
					s-18.7-5.8-21.1-5.8s-70.6,2.4-70.6,2.4L113.9,385.3z"/>
				<g class="st151">
					<path class="st152" d="M146.5,314.5c0,0-0.3,1.3-1.7,4.6c-1.3,3.3,3.6,0.8,3.3,2.9c-0.3,2.1-0.3,7,0,7s2.3-6.6,2.6,0
						c0.3,6.6,1,5,3.3,8.9c2.3,4-0.7,0.3,5.6,2s9.6-2,9.6-2s-5.9,5.9-3.3,8.2s0.3,1.6,2.6,2.3c2.3,0.7,5.9-2,2.3,0.7s-4.6,4-5.3,5.6
						c-0.7,1.6,0.3,2.7-2,2.8c-2.3,0.2-5.3,0.5-7.6,0c-2.3-0.5-3.6,1.5-6.3,0c-2.6-1.5-3.7-2.3-5.2,0.6c-1.4,2.9-1.4,2.9-3.1,5.5
						c-1.6,2.6-2,5.6-2,5.6L135,367c0,0-2.3-5.9-1.7-9.4s-0.9-9.7-0.1-11.4s5.4-7.4,5.1-10.8c-0.3-3.4-0.3-7.7-0.3-9
						c0-1.3,2.6-2.5,3.6-4.4C142.6,320.1,146.5,314.5,146.5,314.5z"/>
					<path class="st152" d="M173.7,354.2c0,0,4.2,2.3,0,5.6s-4.8,6.3-4.8,7.8s1.6,3.5-2.6,3.8s-5.8,1.3-6.1,2.6s0,2.6,0,2.6
						s5.2-1.6,7.6-1.6s7,0.3,7.7-0.3c0.7-0.6,1.7,1,1.7-2.9c0-3.8,2-6.7,0-10.2C175.2,358.1,173.7,354.2,173.7,354.2z"/>
					<path class="st152" d="M239.4,356.3c-1-0.2-6.1,3.4-5.4,5.6c0.6,2.2,2.1,4.2-0.1,5.8s-2.2,1.6-2.2,1.6h9.6L239.4,356.3z"/>
					<path class="st152" d="M243.5,287.6c1-0.3,5.1-3.5,6.4-5.8s7.4-2.9,8.6-3.2s6.1-1,7.4-2.9s6.1-2.6,6.1-2.6s0-4.3,4.2-3.3
						s6.7,3.8,9,3.3s5.8,0.1,5.8,2s-4.5,1.9-4.5,1.9l4.5,1.6c0,0-1.9,2.5-4.8,1.4c-2.9-1.1-4.5-4-7.7-1.4c-3.2,2.5-1.6,3.5-6.7,4.8
						s-7.4,2.2-7.4,2.2s7.7,0,2.9,1s-7.4,2.6-9.3,2.9c-1.9,0.3-3.8,0.3-7,2.2s-3.8,4.1-5.8,5.1s-4.2,5.6-3.8,2.8s0-4.4,5.4-8.2
						s3.8-1.6,5.4-3.8s4.2-2.6,1.6-2.2C251.2,285.7,243.5,287.6,243.5,287.6z"/>
					<path class="st152" d="M249.9,354.2v15.1c0,0,4.8-0.9,11.9-1.6c7-0.6,15.4,2.2,19.9,3.2s9-3.8,15.4,0s11.5,6.1,20.5,5.8
						s25.6-1.9,33.6,0c8,1.9,20.5,0,21.5,0c1,0-0.6-2,8.3-2.3c9-0.3,14.7-0.6,20.2-0.3c5.4,0.3,8-2.2,11.5-2.6
						c3.5-0.3,6.7-39.2,6.7-39.2s-1-2.4-10.6-3.4c-9.6-1-12.2-5.1-18.6-3.9c-6.4,1.3-6.7-1-10.6,0s-2.9-1.9-7.4-1.9s-1-0.2-9-1.4
						s-9.9,1.7-12.5-1.5c-2.6-3.2-7-8.4-8.3-9c-1.3-0.6-3.5-3.1-7.8-3.5s-7.2-0.3-10.4,0s-8.6-2.7-9.9-0.2s-7,3.1-10.2,2.2
						s-6.7-1.9-6.7-1.9s1.9-2-1-2.9s-7.7,0.4-7.4,2.9c0.3,2.6,1.9,5.1,1.9,5.1s-3.5,2.2-5.1,4.2c-1.6,1.9-1,3.3-2.9,4.7
						s-3.8,3.3-3.8,3.3h-7c0,0-0.3,10.9-0.6,12.2s1.9,20.8,1.9,20.8l1.9,9.6l-6.7-2.2l-2.1-7.8l-0.4-1.3c0,0-3.3-7.2-4.3-4.3
						c-1,2.9-1,2.9-1,2.9l-1.9-2.9l-3.5-2.2l-1.6,2.2l-1.9,2.2L249.9,354.2L249.9,354.2z"/>
					<path class="st152" d="M244.5,210.6l-5.8,6.2h5.8c0,0,0.3,1.3-3.2,3.8c-3.5,2.6-4.8,5.1-4.8,5.1s5.8-2.6,4.8-1.6
						s-4.8,5.1-4.8,5.1s1.3,2.6,4,0c2.7-2.6,9.4,1.1,9.4,1.1s2.6-3.1,4.5-3.7s13.1-1.2,11.7-6.2c-1.4-5-1.7-6.3-1.7-6.3
						s3.2,2.9,5.1,2.6c1.9-0.3,0.6,0,6.4-3.2s6.7-6.1,10.6-6.7s9,0.7,9.6-2.2c0.6-2.9-1.9-4.8,0-4.8s4.8,3.5,7.7,0s5.4-5.8,6.4-7
						s3.5-5.4,3.5-5.4s4.5,1,5.1-2.2s2.2-4.5,3.2-6.1s1.6-5.8,1.6-5.8s-12.2-0.3-14.1,0s-6.4,3.8-7.7,5.8s-3.5,3.8-5.1,2.9
						s-4.2-4.5-5.8-4.5s-9.6-4.3-9.6-4.3s-3.2,1.7-4.5,3s-2.2,4.8-6.4,5.8c-4.2,1-6.7,0-7,1.3c-0.3,1.3-3.2,6.1-1.6,8.6
						c1.6,2.6,1.6,0,0,6.7s-2.2,9-2.6,9.9c-0.3,1,0,1.1-1.3,2.2c-1.3,1-2.2,2.6-4.2,1.7s-5.4-1.7-5.4-1.7h-1.9L244.5,210.6
						L244.5,210.6z"/>
				</g>
				<polygon class="st153" points="336.8,327 340.4,354.3 359.3,352 354.1,324.5 				"/>
				<polygon class="st154" points="190.6,365.2 190.2,372.5 197.1,372.8 197.1,367.2 194.3,365.4 				"/>
				<rect x="193.1" y="365.2" class="st152" width="10.6" height="1.7"/>
				<rect x="194.3" y="367.2" class="st152" width="10.6" height="1.7"/>
				<rect x="195.7" y="369.2" class="st152" width="10.6" height="1.7"/>
				<rect x="197.1" y="371.1" class="st152" width="10.6" height="1.7"/>
				<path class="st155" d="M272.9,338.5c0.6,1.6-1-2.9,0.6,1.6c1.6,4.5,2.2,8.3,2.2,8.3s3.2-2.9,4.2-3.8c1-1-0.3-3.8,0-4.2
					c0.3-0.3-4.8-1.9-4.8-1.9H272.9z"/>
				<path class="st155" d="M293.4,329.2c0.3,1.3,0,4.9,0,4.9s-2.2,0.6-1.9,2.5s3.8,1.5,3.8,1.5l1.9,2.4c0,0,1.6-2.9,2.6-1.9
					s1.9,1.9,1.9,1.9v-8.8l-5.1-2.4h-5.1"/>
				<path class="st155" d="M313.9,331.6l2.9,42.4h1.9l-2.4-37.5c0,0,3.7-3,5-2.5s3.2,0.7,3.2,0.7s0.3-6.9-1.9-6.6s-6.1-0.9-7,0
					s-3.2,3.4-3.2,3.4L313.9,331.6L313.9,331.6z"/>
				<line class="st156" x1="329" y1="329.2" x2="332.1" y2="370.8"/>
				<path class="st157" d="M131.6,304.9c0,0,28.7-1.7,26.8-5.9c-1.8-4.2-0.3-12.2,0-15.4c0.3-3.2,3.1-6.9,6-6.8s10.1,0,10.1,0
					s-0.3-5.9,0.3-8.3s19.4-6.8,19.4-6.8l12.4-1.2c0,0,5.5-2.5,4-7.4s16.9-14.6,18.6-16.7s7.7-5.6,8.2-9.9s7-13.2,7-13.2l26.1-10.5
					c0,0,24.9,12.1,31.9,2.8c7-9.3,37.7-31.9,42.1-44.1c4.5-12.2,15.6,2.8,36.3,0s29.4-8.7,30.8-10.1c1.4-1.4,10.3-5.8,10.3-5.8
					l18.5-5.8c0,0,22.6-1.7,22.1,0s11,0,11,0l11.5-8.2c0,0-33.9-13.2-38.9-12.5c-5,0.7-3.6-1.5-21.2,0s-23.4,2.2-34.2,2.9
					s-45.7,6.6-49.1,7.2s-19.4-5-25.1-1.8s-12.4,7.1-15.9,12.4c-3.6,5.3-24.8,14.7-31.5,17.2s-31.9,6.3-31.9,6.3s-5.3-3.7-8.2,2.5
					s-19.1,9.5-23.9,11s-11.4-0.5-14.9,10.2c-3.5,10.7,0.4,15.2-6.6,18.7c-7,3.5-1.3,4.2-10.9,13.4c-9.6,9.1-18.4,11.5-20,16.8
					s5.4,7.2-4.5,17.8s-14.3,19.9-12.4,23.2c1.8,3.3,2.7,11,2.7,11L135,300L131.6,304.9z"/>
				<polygon class="st153" points="143.7,359.1 141.5,374.8 150.4,374.8 153,360.7 				"/>
				<polygon class="st153" points="178.6,354.3 176.1,372.5 181.5,372.5 184.7,354.3 				"/>
				<path class="st153" d="M268.6,304.3c0.3,1,0,17.6,0,17.6s8.3-4.5,8.3-5.4s-4.2-10.6-4.2-13.5S268.6,304.3,268.6,304.3z"/>
				<path class="st153" d="M343.2,281.6c0,1,0,14.1,0,14.1l10.9-3.8c0,0-0.3-9-2.9-10.2S343.2,281.6,343.2,281.6z"/>
				<polygon class="st153" points="264.8,346.6 264.8,368 270.9,368 270.9,344.3 				"/>
				<path class="st153" d="M223.5,347.9V368c0,0,4.8,0.6,6.4-1.1c1.6-1.8,1.6-7.5,1.6-7.8s0-11.2,0-11.2v-1.6L223.5,347.9z"/>
				<path class="st153" d="M238.8,342.4v25.7c0,0,7.7,1.2,8-1.2c0.3-2.4,2.2-24.5,0-24.5s-8-3-8-3"/>
				<path class="st155" d="M153,321.9l-9-7c0,0-2.6,6.7-2.6,7s3.2-1.9,2.6,0s-5.4,5.8-2.6,6.1c2.9,0.3,6.5-4.2,5.3,0
					s0.5,6.4,0.5,6.4s-3.2,3.8,0,5s4.5,0,4.5,0L153,321.9z"/>
				<path class="st155" d="M197.8,203.1c0,0,2.2,9.6,3.5,19.5s3.2,15.4,5.1,19.9c1.9,4.5,2.6,3.8,5.8,0s5.4-6.4,5.4-9.3
					s0.6-8-1.9-13.1c-2.6-5.1-7.6-9.9-8-14.7c-0.4-4.8-0.7-9.3-2-10.2s-8,2.6-8,2.6"/>
				<path class="st155" d="M184.7,214.3c0,0-0.3,7.7,2.9,14.1s-1.3,8.6,3.2,13.5s6.4,2.9,7,7.4c0.3,2.1,0.7,3.3,1,4.5
					c0.4,1.4,0.9,2.6,1.2,4.8c0.6,4.2,2.9,9.3,3.5,7.7c0.6-1.6,1.6-21.8-5.8-28.8c-7.4-7-6.7-8-8-12.2s4.5-13.5,1.3-13.5
					C187.9,211.7,184.7,214.3,184.7,214.3z"/>
				<path class="st155" d="M168.4,229.7c0,0-1.9,5.4,1.9,11.9s4.5,13.8,5.8,15.1s0,1.6-2.6,0s-9.3-14.1-9.9-16
					c-0.6-1.9-3.5-3.9-3.5-1.5s-0.6,10.5,0,13s0.3,7,1.3,9.2s-2.6,3.2-4.5-2.9c-1.9-6.1-3.5-9.4-2.6-12.9c1-3.4-0.3-7.9,3.2-9.5
					s4.5,0,5.8-1.9C164.5,232.2,168.4,229.7,168.4,229.7z"/>
				<path class="st155" d="M223.5,246.4c0,0-1.9-0.6-7.4,5.8c-5.4,6.3-4.2,7.2-6.1,11s3.7,8.1,2.2,6.6c-0.8-0.8-6.3-1.9-4.4-9.3
					c1.9-7.4,0.9-11.9,4.1-11.9s2.5-0.1,5.8-0.6C221.1,247.4,223.5,246.4,223.5,246.4z"/>
				<path class="st155" d="M217.8,270c2.5-2.2,7.3-2.9,8.3-1.6c1,1.3-1.9,2.9-2.6,6.4c-0.6,3.5-3.7,4.6-5.7,6.2
					c-2,1.5-7.1,4.9-3.6,0C217.7,276.1,217.8,270,217.8,270z"/>
				<path class="st155" d="M231.5,256.9c0.3,1.6-0.6,2.5,0,6.2c0.6,3.7,0.6-2.1,4.2,0s9.4,3.3,7.7,0s-3.9-5.2-2-6.2
					s-0.6-3.2-0.6-3.2s7.7-7,2.9-3.8s-2.6,4.5-7.4,5.8C231.5,256.9,231.5,256.9,231.5,256.9z"/>
				<path class="st155" d="M260.9,246.4c0,0,5.8,2.4,7.7,2.6c1.9,0.2,2.6-2.8,2.2-1.3c-0.3,1.5-6.7,9.2-8.6,6
					C260.3,250.5,260.9,246.4,260.9,246.4z"/>
				<path class="st155" d="M260.8,244.1c3.6,0,3.3,4.5,7.8,0c4.5-4.5,3.5-5.1,8.3-5c4.8,0.2,4.8,3.4,9-1.4c4.2-4.8,3.5-3.5,5.8-6.4
					c2.2-2.9,10.9-4.8,13.5-9.3c1.9-3.3,1.3-4.4,2.9-5.4c0.5-0.4,1.3-0.8,2.6-1.3c4.8-1.9,15.1-8.3,8-5.4s-26.9,16.4-27.7,19.9
					c-0.8,3.5-3.1,5.1-6,5.4s-3.8,1.3-6.4,1.3c-2.6,0-9.9,1.3-9.9,1.3l-2.7,4.2L260.8,244.1z"/>
				<path class="st155" d="M252,254.5c0,0,1.9,5,0,6.9s-4.3,4.4-4.1,5.1c0.2,0.7,4.7-0.7,2.4,0c-2.2,0.7-7.7,7-3.8,3.5
					c3.8-3.5,6.7-2.2,8-2.2c1.3,0,0.6-1.1,0-2.6s-2.7-6.9,0.7-8.1s2.3-5.8,0-4.9c-2.3,0.9-7.1-2.3-5.2,0c1.9,2.3,1.3,4.9,1.3,4.9"/>
				<path class="st155" d="M160.4,285.7c0,0-1.8,2.3-1.7,4.1c0.1,0.8,0.5,1.6,1.7,1.9c3.8,1.3,1.9,1.9,1.3,3.8
					c-0.6,1.9-0.3,1.6-1,4.5s-2.1,4.5-2,5.4c0.1,1,2.7,3.2,0.1,1c-2.6-2.2-0.5-3.5-0.1-7s-0.8-4.5-1.2-6.4S160.4,285.7,160.4,285.7z
					"/>
				<path class="st155" d="M174.8,271.1c1,2.2,0.3,8.6,3.8,4.6c3.5-4,8.6-7.3,6.1-5.7s-6.8,3.8-8.1,3.3
					C175.2,272.7,174.8,271.1,174.8,271.1z"/>
				<path class="st155" d="M202.3,275.7c0.6,0.8,3.1,3.2,1.7,5.3c-1.4,2.2-0.8,2.6-3,2.5c-2.2-0.1,0.3-1-2.2-0.1
					c-2.6,1-1.5,2.2-4.4,2.2s-4.9,3.2-5.2,0c-0.3-3.2-2.9-8.3,0-6.1s1.9,7.4,2.9,2.2s-0.3-6.1,1-5.1s2.1,7.5,3.1,4.2
					s1.7-7.7,1.7-7.7s0,2.4,2.2,2.4S202.3,275.7,202.3,275.7z"/>
				<path class="st155" d="M209.4,298.2c1,0.6,5.4,3.4,1.6,3.8c-3.8,0.4-6.5,0-6.5,0s-4.9-3.8,0-3.8
					C209.4,298.2,209.4,298.2,209.4,298.2z"/>
				<path class="st155" d="M340.7,187.1c1,0,9.6,0,10.6,0s4.2,0,4.5-2.2c0.3-2.2,2.2-5.4,0-4.5s-4.5,3.5-9,5.1
					C342.3,187.1,340.7,187.1,340.7,187.1z"/>
				<path class="st155" d="M143.4,312c1-0.3,6.7,2.9,9.6,2c2.9-1,7.2-3.8,9.7-4.5s4.4-4.2,5-1.9s-0.3,2.8,0,4.5s3.4,3.2-2.5,4.2
					c-5.9,1-10.4,2.9-12.3,1.9C151.1,317.1,143.4,312,143.4,312z"/>
				<path class="st155" d="M176.1,306.8c2.2-0.2,14.4-0.5,17,0.7s11.5,8,6.1,1.9s-7.4-9.2-8.3-9.2c-1-0.1,3.8-4.2,3.8-4.2
					s-5.3,1.3-6.8,2.2c-1.5,1-3.1,3.4-5.1,3.8c-1.9,0.4-2.9-0.7-4.2,0.2C177.3,303,176.1,306.8,176.1,306.8z"/>
				<path class="st155" d="M247.9,288.3c0,0-2.3,0.9-2.7,1.9s-4.2,1-4.5,1.9c-0.3,1,1.9,3.2,0,3.8c-1.9,0.6,0.3,4.8-1.9,0.6
					c-2.2-4.2-3.5-6.7-2.2-6.7s2.2-3.5,5.4-1.6s0.6-0.7,5.9-2.6c1.6-0.6,3.1-1,4.3-1.4c2.9-0.8,4.8-1,5.2-0.8c0.6,0.3,6-2.5,6-2.5
					s0.1,2.5-2.7,3.8C258.1,286.1,247.9,288.3,247.9,288.3z"/>
				<path class="st155" d="M276.9,287.2c0,0,10.2,0.2,12.5-1.4c2.2-1.6,5.1-1.2,9-2.2c3.8-1,3.8-1,3.8-1s8.3-0.2,3.8,0
					s-9.9-3.4-12.2-1.5c-2.2,1.9-0.6,5.4-7,4.7c-6.4-0.6-9.9,0-9.9,0S275,287.2,276.9,287.2z"/>
				<path class="st155" d="M231.5,312c0.5-0.5,1.1-1.2,1.8-2c1.5-1.6,3.4-3.1,5.5-2.5c3.2,1,2.9,1.9,6.4,0s7-5.5,8-3.5
					c1,1.9,1.9,3.5,1.9,3.5s0.3-2.8-3.9-0.7c-4.2,2-6,4.6-10.2,2.7S231.5,312,231.5,312z"/>
				<path class="st155" d="M283.1,295.5c0.5-0.5,1.1-1.2,1.8-2c1.5-1.6,3.4-3.1,5.5-2.5c3.2,1,2.9,1.9,6.4,0c3.5-1.9,7-5.5,8-3.5
					s1.9,3.5,1.9,3.5s0.3-2.8-3.9-0.7c-4.2,2-6,4.6-10.2,2.7C288.4,291,283.1,295.5,283.1,295.5z"/>
				<path class="st155" d="M279.6,305c0.5-0.5,1.1-1.2,1.8-2c1.5-1.6,3.4-3.1,5.5-2.5c3.2,1,2.9,1.9,6.4,0c3.5-1.9,7-5.5,8-3.5
					s1.9,3.5,1.9,3.5s0.3-2.8-3.9-0.7c-4.2,2-6,4.6-10.2,2.7S279.6,305,279.6,305z"/>
				<path class="st155" d="M229.4,318.8c0.5-0.5,1.1-1.2,1.8-2c1.5-1.6,3.4-3.1,5.5-2.5c3.2,1,2.9,1.9,6.4,0c3.5-1.9,7-5.5,8-3.5
					c1,1.9,1.9,3.5,1.9,3.5s0.3-2.8-3.9-0.7c-4.2,2-6,4.6-10.2,2.7S229.4,318.8,229.4,318.8z"/>
				<path class="st155" d="M178.4,338.8c0.5-0.5,1.1-1.2,1.8-2c1.5-1.6,3.4-3.1,5.5-2.5c3.2,1,2.9,1.9,6.4,0s7-5.5,8-3.5
					c1,1.9,1.9,3.5,1.9,3.5s0.3-2.8-3.9-0.7c-4.2,2-6,4.6-10.2,2.7S178.4,338.8,178.4,338.8z"/>
				<path class="st155" d="M189,331.6c0.5-0.5,1.1-1.2,1.8-2c1.5-1.6,3.4-3.1,5.5-2.5c3.2,1,2.9,1.9,6.4,0c3.5-1.9,7-5.5,8-3.5
					s1.9,3.5,1.9,3.5s0.3-2.8-3.9-0.7c-4.2,2-6,4.6-10.2,2.7C194.3,327.1,189,331.6,189,331.6z"/>
				<path class="st155" d="M215.4,312c2.3-0.6,6.4-1,5.8,0s-4.4,4.2,0.1,2.9c4.4-1.3,6-5.1,4.4-1.3c-1.6,3.8,5.5,4.7,5.5,4.7
					s-3.9,1.3-5,2.3c-1.2,1-4,0.3-4.4,1.3c-0.3,1-5.3,1.9-4.1,2.6s-2.5,3.2-4.8,2.9s-13.1,1.3-8.5,0s13.4-3.3,12.8-7.8
					S215.4,312,215.4,312z"/>
				<path class="st155" d="M168.8,318.3c0.8,1.3-1.4,18.6-1.4,18.6l-4.7,2.4L168.8,318.3z"/>
				<path class="st155" d="M191.1,339.4c0,0,5,1.1,9.7,0c0.5-0.1,0.9-0.2,1.4-0.3c4.5-0.6,9.9,0.5,10.2-1.5c0.4-2.2,2.9-5.4,2.9-5.4
					s2.9,1.6-2.5,3.2s-18.5,2.9-18.5,2.9L191.1,339.4z"/>
				<path class="st155" d="M223.4,323c0,0,5,1.1,9.7,0c0.5-0.1,0.9-0.2,1.4-0.3c4.5-0.6,9.9,0.5,10.2-1.5c0.4-2.2,2.9-5.4,2.9-5.4
					s2.9,1.6-2.5,3.2s-18.5,2.9-18.5,2.9L223.4,323z"/>
				<path class="st155" d="M134.2,345.2c0,0,5,1.1,9.7,0c0.5-0.1,0.9-0.2,1.4-0.3c4.5-0.6,9.9,0.5,10.2-1.5c0.4-2.2,2.9-5.4,2.9-5.4
					s2.9,1.6-2.5,3.2s-18.5,2.9-18.5,2.9L134.2,345.2z"/>
				<path class="st155" d="M191.1,343.8c0,0,5,1.1,9.7,0c0.5-0.1,0.9-0.2,1.4-0.3c4.5-0.6,9.9,0.5,10.2-1.5c0.4-2.2,2.9-5.4,2.9-5.4
					s2.9,1.6-2.5,3.2s-18.5,2.9-18.5,2.9L191.1,343.8z"/>
				<path class="st155" d="M134.2,350.2c0,0,5,1.1,9.7,0c0.5-0.1,0.9-0.2,1.4-0.3c4.5-0.6,9.9,0.5,10.2-1.5c0.4-2.2,2.9-5.4,2.9-5.4
					s2.9,1.6-2.5,3.2s-18.5,2.9-18.5,2.9L134.2,350.2z"/>
				<path class="st155" d="M181.1,347.6c0,0,5,1.1,9.7,0c0.5-0.1,0.9-0.2,1.4-0.3c4.5-0.6,9.9,0.5,10.2-1.5c0.4-2.2,2.9-5.4,2.9-5.4
					s2.9,1.6-2.5,3.2s-18.5,2.9-18.5,2.9L181.1,347.6z"/>
				<path class="st155" d="M217.8,328.9c-0.7,1.4-5.8,5.2-10,5.6s-11,0-7,0c4,0,11.7-2.6,9.8-2.2s-11.6-0.3-8.4-0.5s9.2,1.5,10.2,0
					s3.7-2.8,3.7-2.8H217.8z"/>
				<path class="st155" d="M266.1,313.4c0,0-0.8,0-1.9,0.2c-1.7,0.2-4,0.8-5.1,2c-1.8,2-10.6,6.8-12.9,6.1s-9.1,0-9.1,0
					s1.8-3.2,6.4-2.6s8.1,0,8.1,0s0.7-3.6,4.1-3.6c3.4,0,6,0,6,0s-8.8-0.4-10.2,0c-1.4,0.4-4-0.1-5.4,0.1s-4.5-0.1-4.5-0.1
					s7-1.9,7.9-2.2c1-0.3,9.8-3.6,12.2-3.6"/>
				<path class="st155" d="M301.9,305.3l2.9-0.2l38.4-3c0,0-1.2-1.5,5.5-3.8s8.3-1,11.8-2.6c3.5-1.6,8.3-3.2,11.2-3.5
					c1.1-0.1,2.5-0.7,3.9-1.2c2.1-0.8,4.3-1.7,5.7-1.2c2.2,0.8,7.4-0.1,7.4-0.1s-21.8,6.1-25,6.1s-4.2-1.9-9.6,0.3s-9,1.7-10.9,2.5
					c-1.9,0.7-3.8,1.2-5.1,1.8c-1.3,0.6-1-0.6-6.1,0c-5.1,0.6-6.4-1.2-9.6,0s-8.1-0.7-11.5,2C307.5,304.8,301.9,305.3,301.9,305.3z"
					/>
				<path class="st155" d="M290.9,252.2c-0.7,0.3,12.1-1.1,16.5-3.1c4.4-2,6,0.7,10.2-3.4c4.2-4.1,11.5-6.5,11.5-6.5
					s-0.6,1.5-7.4,2.4s-9.3,1-9.3,1s0.5-3.5-2.5-2.2s0.5,1.6-5.9,2.6s-4.8,0.6-6.4,1c-1.6,0.3-1.9,1.5-4.5,1.8s-8.3,1.6-4.2,0.8
					c4.2-0.8,8.3-0.9,7.4,0C295.5,247.3,293.3,251.3,290.9,252.2z"/>
				<path class="st155" d="M298.1,231.3c-1,0-4.8,4.2-2.2,4.2s-4.2,2.9,6.1,0s20.8-3.5,22.1-4.2c1.3-0.6,5.8-4.5,7.7-1.6
					s5.1,3,5.1,3s0.3-5.3,3.8-5.1c3.5,0.2,5.4,3,7.4,0c1.9-3,6.1-7.3,6.1-7.3s-2.2-3.7-6.1-2.1s-14.7,5.1-18.9,6.1
					c-4.2,1-5.1-1-9.9,0.6c-4.8,1.6-6.4,0.3-9,2.7C307.7,230,298.1,231.3,298.1,231.3z"/>
				<path class="st155" d="M361.2,202.5c1-1.3,2.2-7.1,7-7.5c4.8-0.5,9.6,0,9.6,0s2.6,3.3,0,3.7s-4.2,0.6-5.1,0s-1.3-3.6-4.2,0
					S361.2,202.5,361.2,202.5z"/>
				<path class="st155" d="M380.7,190.3c0.4-0.1,1.4-0.4,2.9-0.9c4.8-1.7,13.7-5.2,14.4-5.7c1-0.7,1.6-0.4,7.7-3.5c6.1-3,9-3,10.2-3
					s-0.6-1.6-5.8,3s-7,4.7-7.7,6.9s-5.1,2.9-9.9,3.2s-10.4-0.4-10.4-0.4"/>
				<path class="st155" d="M338.1,254.5c3.2,0.2,8.6,0,8.6,0s2-3,2-3.2s-9,1.1-9.8,0c-0.8-1.1-1.8-7.1-3.4-4.9s-1.9,3.8-3.5,4.9
					c-1.6,1.1-3.8-3.8-2.9,0.9C330,256.9,334.9,254.3,338.1,254.5z"/>
				<path class="st155" d="M310.9,283.5c0,0,6.4-1.5,7-2.5c0.6-1,6.2-3.8,6.6-4s2.4,1.2,4.6,0c2.2-1.2,7-5.8,7.7-5.9
					c0.6-0.1,6.4-1.1,6.4-1.1s2.2,1.4,4.8,1.1s8.2-0.3,8.8-1.5s4.4-1.8,4.4-1.8s-2.6-4.6-7-2.6c-4.5,2-5.8,3.5-7.4,2.6
					c-1.6-0.9-3.8-3.5-6.1-1.3c-2.2,2.3-7.7,3-9.3,4.6s-1.9,2-4.2,3s-0.3,2.6-2.2,1c-1.9-1.6-7.4-3.5-4-7.4s6.6-9.4,5-6.6
					s-7.1,3.1-6.4,6.6c0.7,3.5,0.6,4.5-1,7.9s-2.2,3.8-3.8,4.5S310.9,283.5,310.9,283.5z"/>
				<path class="st155" d="M354.1,281c0,0,1-0.3,2.3-0.9c2.1-0.8,5.2-2.1,6.9-3.2c2.9-1.8,4-4.3,6.7-3.7c2.6,0.6,7.8-0.9,8.9,0
					s10.7,1.6,1.7,2.4s-8.5,0.8-10.6,1.3s-1.5-0.2-5.4,1.7C360.9,280.6,354.1,281,354.1,281z"/>
				<path class="st155" d="M415.7,297.7c0,0,1-0.3,2.3-0.9c2.1-0.8,5.2-2.1,6.9-3.2c2.9-1.8,4-4.3,6.6-3.7s7.8-1,8.9,0
					c1.1,0.9,10.7,1.6,1.8,2.4s-8.5,0.9-10.6,1.3s-1.5-0.2-5.4,1.7C422.4,297.3,415.7,297.7,415.7,297.7z"/>
				<path class="st155" d="M328.1,280.9c0,0,1-0.3,2.3-0.9c2.1-0.8,5.2-2.1,6.9-3.2c2.9-1.8,4-4.3,6.7-3.7c2.6,0.6,7.8-0.9,8.9,0
					s10.7,1.6,1.7,2.4c-9,0.8-8.5,0.8-10.6,1.3s-1.5-0.2-5.4,1.7C334.8,280.5,328.1,280.9,328.1,280.9z"/>
				<path class="st155" d="M297.1,318.5c0,0,1-0.3,2.3-0.9c2.1-0.8,5.2-2.1,6.9-3.2c2.9-1.8,4-4.3,6.7-3.7c2.6,0.6,7.8-0.9,8.9,0
					s10.7,1.6,1.7,2.4c-9,0.8-8.5,0.8-10.6,1.3s-1.5-0.2-5.4,1.7C303.8,318.1,297.1,318.5,297.1,318.5z"/>
				<path class="st155" d="M309.4,320.8c0,0,1-0.3,2.3-0.9c2.1-0.8,5.2-2.1,6.9-3.2c2.9-1.8,4-4.3,6.7-3.7s7.8-0.9,8.9,0
					s10.7,1.6,1.7,2.4c-9,0.8-8.5,0.8-10.6,1.3s-1.5-0.2-5.4,1.7S309.4,320.8,309.4,320.8z"/>
				<path class="st155" d="M253.4,300c0,0,1-0.3,2.3-0.9c2.1-0.8,5.2-2.1,6.9-3.2c2.9-1.8,4-4.3,6.7-3.7c2.6,0.6,7.8-0.9,8.9,0
					s10.7,1.6,1.7,2.4c-9,0.8-8.5,0.8-10.6,1.3s-1.5-0.2-5.4,1.7S253.4,300,253.4,300z"/>
				<path class="st155" d="M303.7,300.6c0,0,1-0.3,2.3-0.9c2.1-0.8,5.2-2.1,6.9-3.2c2.9-1.8,4-4.3,6.7-3.7c2.6,0.6,7.8-0.9,8.9,0
					s10.7,1.6,1.7,2.4c-9,0.8-8.5,0.8-10.6,1.3s-1.5-0.2-5.4,1.7C310.4,300.2,303.7,300.6,303.7,300.6z"/>
				<path class="st155" d="M308.4,293.6c0,0,1-0.3,2.3-0.9c2.1-0.8,5.2-2.1,6.9-3.2c2.9-1.8,4-4.3,6.7-3.7c2.6,0.6,7.8-0.9,8.9,0
					s10.7,1.6,1.7,2.4c-9,0.8-8.5,0.8-10.6,1.3s-1.5-0.2-5.4,1.7C315.1,293.2,308.4,293.6,308.4,293.6z"/>
				<path class="st155" d="M356.8,287.2c0.2-0.4,0.6-0.9,1.1-1.4c1.6-1.7,4.5-3.7,7.1-4.7c3.5-1.4,6.4-2.6,12.2-2.6s6.1-1.2,9.9-1.4
					s6.4,0,6.4,0s-9.3,3.5-12.8,4c-3.5,0.6-9.7-0.1-11.4,1s0.3,1-4.9,1.8s-7.4,2.9-7.4,2.9"/>
				<path class="st155" d="M260.8,232.6c0,0,5.2-4.5,7.8-2.9c2.6,1.6,6.7,2.6,5.8,2.9c-1,0.3-4.2-1-6.6,0
					C265.4,233.5,260.8,232.6,260.8,232.6z"/>
				<path class="st155" d="M238.8,242.2c1-2.6,2.7-6.1,4.5-5.4c1.9,0.6,6.4,2.7,6.4,2.7s0.8,2.8-1.9,2.8s-0.1,2.6-4.6,1.3
					s-4.5-3.2-4.5-3.2"/>
				<path class="st155" d="M178.6,217.8c0,0-0.3,28.8,1.8,31.3c2.1,2.4,7,15.8,8.1,16.2c1.1,0.4-2.6-4.1-4.9-7s-7.1-9.1-7-16.7
					c0.1-7.6-0.5-13.1,0-16S178.6,217.8,178.6,217.8z"/>
				<path class="st155" d="M221.2,222c0.3,1,6.2,7.3,6.2,7.3s5.9-2.2,5.9-7.3c0-5.1,2.5-9.6,2.7-10.2c0.2-0.6,7.2,1.3,7.2,1.3l1.9-7
					c0,0,1.5,5.9,2.7,3.1s3.5,5.2,1.9-10.5c-1.7-15.7-5.8-21.4-4.5-21.4c1.3,0-7.7-7-9.5-5.8c-1.8,1.3-5.9,1.9-9.6,5.8
					c-3.7,3.8-10.5,4.6-10,6.5s-0.3,16,0,18.8C216.4,205.3,221.2,222,221.2,222z"/>
				<path class="st157" d="M318.9,193.2c0,0,0,1.5,2.7-1s0,0,0.8-2.8s0,0,2.1-2.2s5.6-7,6.2-9.9c0.6-2.9,5.4-5.1,8.1-7.4
					s4.1,2.9,4.4,4.2s3.2,3.2,2.1,6.2s-1.8,2.4-3.7,3.5c-1.9,1-6.4,2.2-9.6,3.5c-3.2,1.3-12.8,5.4-13.1,7.6"/>
				<path class="st155" d="M359.3,245.7c0,0,7.3-3.3,10.1-4.2s8.7,0,15.2-2.4s17-8.1,18.9-8c1.9,0.1,12.8-1.9,4.2,1.8
					c-8.6,3.7-18.3,5.6-20.2,7.2c-1.9,1.6-5.8,5.3-9.9,6.2c-4.2,0.9-12.5-2.2-13.8,0s-8.1,5.7-6.9,4.9c1.2-0.8,4.4-4.9,4.4-4.9"/>
				<path class="st155" d="M380.7,249c2.6-0.4,11.2,2.3,11.2,2.3s-1.3,0.1-5.1,0.1s-6.7-0.7-7.8,0S378.2,249.5,380.7,249z"/>
				<path class="st155" d="M356.7,305.3c0.2-0.1,4.3-0.3,9.9-0.6c12.8-0.6,33.4-1.6,34.3-2.5c1.3-1.4,1.7-3.2-2.4-2
					c-4,1.2-21.6,2.1-24.9,3.2c-3.2,1.1-12.7,1.6-12.7,1.6"/>
				<path class="st155" d="M326.2,306.1c0.2-0.1,4.3-0.3,9.9-0.6c12.8-0.6,33.4-1.6,34.3-2.5c1.3-1.4,1.7-3.2-2.4-2
					c-4,1.2-21.6,2.1-24.9,3.2c-3.2,1.1-12.7,1.6-12.7,1.6"/>
				<path class="st155" d="M216.3,327.3c0.2-0.1,4.3-0.3,9.9-0.6c12.8-0.6,33.4-1.6,34.3-2.5c1.3-1.4,1.7-3.2-2.4-2
					c-4,1.2-21.6,2.1-24.9,3.2c-3.2,1.1-12.7,1.6-12.7,1.6"/>
				<path class="st155" d="M270.9,324.5c0,0-2.8,1.2-3.2,2.8c-0.3,1.6,0.9,4.8,0.9,4.8l2.3,2.4l-0.1,7.2l-3.2,2.6
					c0,0-2.8-3.5-2.8,2.2s-1.3,10.6-1.3,10.6s-5.8,0.6-5.4-1c0.3-1.6-4.7-6.7-4.7-6.7l-2,2.2l-1.5,0.6v-6.1c0,0-12.1,5-11.5,7.6
					c0.6,2.6-1.7,3.2-2.2,3.4s-1.1,1.8-2.8,1.8s2.1-20.8,0-23.1s-5.8-4.3-5.8-4.3s-13.9,1.5-2.4,0s14.1-2,20.2-2.8
					c6.1-0.9,11.3-1.8,15.6-4.4c4.3-2.6,10.1-7.4,10.1-7.4l8.6-2.2h3.2c0,0-3.2,2.4-3.5,3.5s1,2-0.6,3.6c-1.6,1.6-0.4,2.5-4,2.6
					C270.9,324.5,270.9,324.5,270.9,324.5z"/>
				<path class="st155" d="M359.3,289.6c1.3-0.6,10.6-3.2,14.7-3.8s7.9-1.9,11.1-1.9s13.4-3.3,13.4-3.3s3.3,4.9-5,5.3
					s-11.2,1.2-12.8,1.4c-1.6,0.2-7.7-0.7-11.4,1.2s-10.1,2.8-10.1,2.8L359.3,289.6L359.3,289.6z"/>
				<path class="st155" d="M399.4,322.1c1.3-0.6,10.6-3.2,14.7-3.8s7.9-1.9,11.1-1.9s13.4-3.3,13.4-3.3s3.3,4.9-5,5.3
					s-11.2,1.2-12.8,1.4c-1.6,0.2-7.7-0.7-11.4,1.2s-10.1,2.8-10.1,2.8L399.4,322.1L399.4,322.1z"/>
				<path class="st155" d="M396.4,287.3c1.3-0.6,10.6-3.2,14.7-3.8c4.2-0.6,7.9-1.9,11.1-1.9s13.4-3.3,13.4-3.3s3.3,4.9-5,5.3
					s-11.2,1.2-12.8,1.4s-7.7-0.7-11.4,1.2s-10.1,2.8-10.1,2.8L396.4,287.3L396.4,287.3z"/>
				<path class="st155" d="M378.6,297.4c1.3-0.6,10.6-3.2,14.7-3.8s7.9-1.9,11.1-1.9s13.4-3.3,13.4-3.3s3.3,4.9-5,5.3
					s-11.2,1.2-12.8,1.4c-1.6,0.2-7.7-0.7-11.4,1.2s-10.1,2.8-10.1,2.8L378.6,297.4L378.6,297.4z"/>
				<path class="st155" d="M410.9,309c1.3-0.6,10.6-3.2,14.7-3.8s7.9-1.9,11.1-1.9s13.4-3.3,13.4-3.3s3.3,4.9-5,5.3
					s-11.2,1.2-12.8,1.4c-1.6,0.2-7.7-0.7-11.4,1.2s-10.1,2.8-10.1,2.8L410.9,309L410.9,309z"/>
				<path class="st155" d="M256.1,303.6c1.3-0.6,10.6-3.2,14.7-3.8s7.9-1.9,11.1-1.9s13.4-3.3,13.4-3.3s3.3,4.9-5,5.3
					s-11.2,1.2-12.8,1.4c-1.6,0.2-7.7-0.7-11.4,1.2s-10.1,2.8-10.1,2.8L256.1,303.6L256.1,303.6z"/>
				<path class="st155" d="M378.4,263.1c1.7-2,4.9-4.5,10.4-6s25.9-4.9,25.9-4.9s0.3-0.2,1-0.4c0.7-0.2,1.8-0.4,3.4-0.4
					c3.2,0,7.7,0.7,7.7,0.7s-15.4,1-22.4,2.9s-8,2.9-10.9,2.2c-2.8-0.6-2.9,4.2-6.7,3.2S378.4,263.1,378.4,263.1z"/>
				<path class="st155" d="M284.6,255c-1,0.9-7.1,2.5-10.1,3.2c-2.1,0.4-5,0.3-6.8,0.9c-0.8,0.3-1.5,0.7-1.8,1.4
					c-1.1,2.2-2.4,3.1-3.7,2.7s-4.8,0-4.8,0s0-3.4,3.4-1.9s14.6-4.2,16.1-4.1s3.8-4.9,5.8-4.9C284.6,252.1,284.6,255,284.6,255z"/>
				<path class="st155" d="M329,202.5c0.2-1.3,3.3-3.9,3.3-3.9h4.6c0,0-1.2,1.8-3.9,1.9S329,202.5,329,202.5z"/>
				<path class="st155" d="M336.8,202.5c0,0-3-4.2,2-3.9c5,0.3,5.7,0.6,4.4,1.9c-1.3,1.3,0.2,0.7,2.3,1.9c2.1,1.3,3.6,4.8,0,3.5
					c-3.6-1.3-9.6-1.6-9.6-1.6L336.8,202.5z"/>
				<path class="st155" d="M231.2,274.5c0,0,3.4,1,4.8,1.1s3.7-0.2,5-1.1s5.3-0.9,6.8-1.6c1.5-0.7,5.4-1,5.4-1l-9,4.9
					c0,0-4,1.2-6.1,0C236.1,275.7,231.2,274.5,231.2,274.5z"/>
				<path class="st155" d="M223.5,283.5c0.3-1,4.7-8,7.8-6.1s7.6,3.5,8.9,3c1.3-0.5,7.8-3.4,7.8-3.4s2.3,3.4-2.7,3.4s-7.6,2-9.2,1.6
					s-4.5-1.8-4.5-1.8s-1.9-0.1-4,0.1C225.4,280.5,223.5,283.5,223.5,283.5z"/>
				<path class="st155" d="M356.7,311.4c0,0,20.7-4.1,22.6-3.7c1.8,0.5,18.9,0.2,19.3-0.2c0.4-0.3,9.7-2.9,10.7-2.2
					c1,0.6-1.1,3.5-7.4,3c-6.4-0.5-34.8,2.4-36.1,3.1C364.4,312,356.7,311.4,356.7,311.4z"/>
				<path class="st155" d="M352,317.7c0,0,20.7-4.1,22.6-3.7s18.9,0.2,19.3-0.2c0.4-0.3,9.7-2.9,10.7-2.2c1,0.6-1.1,3.5-7.4,3
					c-6.4-0.5-34.8,2.4-36.1,3.1C359.7,318.3,352,317.7,352,317.7z"/>
				<path class="st155" d="M380.7,315.5c0,0,20.7-4.1,22.6-3.7c1.8,0.5,18.9,0.2,19.3-0.2c0.4-0.3,9.7-2.9,10.7-2.2s-1.1,3.5-7.4,3
					c-6.4-0.5-34.8,2.4-36.1,3.1C388.4,316.2,380.7,315.5,380.7,315.5z"/>
				<path class="st155" d="M158.8,344.3c0,0,1.8-1.3,3.9-1.9c0.4-0.1,0.9-0.3,1.4-0.6c2.4-1.1,6-3,8.1-2c1.6,0.8,5.4,0.6,7.9,0.3
					c1.4-0.2,2.4-0.3,2.4-0.3l2.9-0.5c0,0,0.4,2.9,0,2.5c-0.4-0.4-9.9-0.4-11.5-1.2c-1.6-0.8-1.6,3.2-3.2,1.2
					S158.8,344.3,158.8,344.3z"/>
				<path class="st155" d="M161.4,346.8c0,0,1.8-1.3,3.9-1.9c0.4-0.1,0.9-0.3,1.4-0.6c2.4-1.1,6-3,8.1-2c1.6,0.8,5.4,0.6,7.9,0.3
					c1.4-0.2,2.4-0.3,2.4-0.3l2.9-0.5c0,0,0.4,2.9,0,2.5c-0.4-0.4-9.9-0.4-11.5-1.2c-1.6-0.8-1.6,3.2-3.2,1.2
					S161.4,346.8,161.4,346.8z"/>
				<path class="st158" d="M371.3,327.9l3.9,44.9l40.5-2c0,0-3.4-38.9-4.8-39.3s-15.8-1.2-19-2.7c-3.2-1.5-5.2-5.5-6.8-3.5
					s-7.5,3.1-10,2.5S371.3,327.9,371.3,327.9z"/>
				<g>
					<path class="st159" d="M477.9,123.4c0,0-16.7,2.5-22,5.7s-18.7,15.1-17.9,18.6c0.9,3.6-6.1,11.4-14.3,15.5s-18.3,2.1-16.1,11.3
						s6.9,17.1,9.1,22c2.2,4.9,18.1-0.4,5.1,10.2c-13,10.6-27.4,17.5-14.2,15s18.5-6.6,19.2-4.5c0.7,2.1-2.8,6.2-8.7,9.9
						s-22.8-0.1-10.8,5.6c12,5.8,15.5,5.3,20,4.8s16.8-1.5,4.9,3.8s-36.9-2.9-19.6,3.6s38.7,1.2,38.1,3.4s-15.3,6.9-13.7,11.7
						c1.6,4.9,3.9-4.7,4.2,6.3c0.3,11,8.8,8.7,1.6,13.2c-7.1,4.5,2.2,14.2-5.9,19.9c-8,5.7-10-5.1-9.6,9.4
						c0.4,14.5,0.1-1.5-1.8,18.3s-3.5,26.9-10.2,38.2c-6.6,11.4-73.4,12.8-10.9,21.5c62.4,8.6,67.3,8.8,75.5,6.2s12.5-6.2,12.5-6.2
						s16.7,7.2,17.2-0.5s0-6.6,0-59s6.2-206.5,3.8-207.5c-2.4-1-32.2,3.6-32.2,3.6"/>
					<g>
						<path class="st160" d="M461.6,321c0,0-6.7,2.5-1.9,12.2c4.8,9.7,17.3,16.4,17.3,16.4s2.9-7.9,0-17.6c-2-6.7-8.5-9.3-12.4-10.3
							C462.8,321.1,461.6,321,461.6,321z"/>
						<path class="st161" d="M465.7,320.9c0,0,3.8-4.2,6.2,1s6.8,9.2,6.3,16.9c-0.5,7.7-1.3,10.8-1.3,10.8s-5.3-14.9-8.9-21.5
							s-3.5-6.5-3.5-6.5"/>
					</g>
					<g>
						<path class="st160" d="M438.8,226.3c0,0-4.3-5.7-12.2,1.6s-10.8,21.3-10.8,21.3s8.4,0.5,16.9-5c5.9-3.8,6.5-10.8,6.4-14.8
							C439.1,227.5,438.8,226.3,438.8,226.3z"/>
						<path class="st161" d="M440.1,230.2c0,0,5.1,2.4,0.8,6.3s-6.8,9.2-14.3,10.9c-7.5,1.7-10.7,1.9-10.7,1.9s12.8-9.4,18-14.6
							c5.3-5.3,5.3-5.3,5.3-5.3"/>
					</g>
					<g>
						<path class="st160" d="M426.3,357.8c0,0-3.7,1.4-1.1,6.8s9.6,9.1,9.6,9.1s1.6-4.4,0-9.8c-1.1-3.7-4.7-5.2-6.9-5.8
							C427,357.9,426.3,357.8,426.3,357.8z"/>
						<path class="st161" d="M428.6,357.8c0,0,2.1-2.4,3.5,0.6c1.4,2.9,3.8,5.1,3.5,9.4c-0.3,4.3-0.7,6-0.7,6s-3-8.3-4.9-12
							s-2-3.6-2-3.6"/>
					</g>
					<g>
						<path class="st160" d="M483.9,350.7c0,0-7.1,4.8,1.2,14.6c8.3,9.8,24.6,14.1,24.6,14.1s1.1-10-5-20.4
							c-4.2-7.2-12.5-8.4-17.3-8.5C485.3,350.5,483.9,350.7,483.9,350.7z"/>
						<path class="st161" d="M488.6,349.5c0,0,3.2-6,7.5-0.6c4.3,5.4,10.5,8.7,12.1,17.7c1.6,9,1.6,12.8,1.6,12.8
							s-10.4-15.7-16.3-22.3s-5.9-6.6-5.9-6.6"/>
					</g>
					<g>
						<path class="st160" d="M472.5,307.2c0,0-0.8,8.5,12,8.3s26.5-10.1,26.5-10.1s-7-7.2-18.9-9.1c-8.2-1.3-14.4,4.3-17.5,7.9
							C473.2,305.9,472.5,307.2,472.5,307.2z"/>
						<path class="st161" d="M474.5,302.7c0,0-2.6-6.3,4.3-6.2c6.9,0.1,13.4-2.6,21.3,1.9c8,4.5,10.9,7,10.9,7s-18.8-2-27.6-1.6
							c-8.8,0.4-8.8,0.4-8.8,0.4"/>
					</g>
					<g>
						<path class="st160" d="M486.4,173.5c0,0-7-4.9-13.2,6.4s-4.2,28.1-4.2,28.1s9.7-2.6,17.2-12c5.2-6.5,3.3-14.7,1.7-19.2
							C487.1,174.7,486.4,173.5,486.4,173.5z"/>
						<path class="st161" d="M489.3,177.4c0,0,6.7,0.8,3.3,6.8c-3.4,6-4.3,12.9-12.1,17.7c-7.8,4.7-11.4,6.1-11.4,6.1
							s10.9-15.4,14.9-23.3c4-7.9,4-7.9,4-7.9"/>
					</g>
					<g>
						<path class="st160" d="M485.6,173.5c0,0-7-4.9-13.2,6.4s-4.2,28.1-4.2,28.1s9.7-2.6,17.2-12c5.2-6.5,3.3-14.7,1.7-19.2
							C486.3,174.7,485.6,173.5,485.6,173.5z"/>
						<path class="st161" d="M488.4,177.4c0,0,6.7,0.8,3.3,6.8c-3.4,6-4.3,12.9-12.1,17.7s-11.4,6.1-11.4,6.1s10.9-15.4,14.9-23.3
							s4-7.9,4-7.9"/>
					</g>
					<g>
						<path class="st160" d="M450.2,332.1c0,0,5.9-0.4,6.6,9.5c0.7,9.9-5.4,20.1-5.4,20.1s-5.5-5.6-7.6-14.8
							c-1.5-6.4,2.1-11,4.5-13.3C449.4,332.6,450.2,332.1,450.2,332.1z"/>
						<path class="st161" d="M447.2,333.5c0,0-4.5-2.1-4,3.2c0.5,5.3-1,10.2,2.7,16.5s5.6,8.6,5.6,8.6s-2.6-14.5-2.9-21.3
							c-0.3-6.8-0.3-6.8-0.3-6.8"/>
					</g>
					<g>
						<path class="st160" d="M495.7,152.3c0,0,5.9-0.4,6.6,9.5c0.7,9.9-5.4,20.1-5.4,20.1s-5.5-5.6-7.6-14.8
							c-1.5-6.4,2.1-11,4.5-13.3C494.8,152.9,495.7,152.3,495.7,152.3z"/>
						<path class="st161" d="M492.7,153.7c0,0-4.5-2.1-4,3.2c0.5,5.3-1,10.2,2.7,16.5s5.6,8.6,5.6,8.6s-2.6-14.5-2.9-21.3
							c-0.3-6.8-0.3-6.8-0.3-6.8"/>
					</g>
					<g>
						<path class="st160" d="M469.2,143c0,0,5.9-0.4,6.6,9.5c0.7,9.9-5.4,20.1-5.4,20.1s-5.5-5.6-7.6-14.8c-1.5-6.4,2.1-11,4.5-13.3
							C468.3,143.6,469.2,143,469.2,143z"/>
						<path class="st161" d="M466.2,144.4c0,0-4.5-2.1-4,3.2c0.5,5.3-1,10.2,2.7,16.5s5.6,8.6,5.6,8.6s-2.6-14.5-2.9-21.3
							c-0.3-6.8-0.3-6.8-0.3-6.8"/>
					</g>
					<g>
						<path class="st160" d="M465.8,349.4c0,0,5.9-0.4,6.6,9.5c0.7,9.9-5.4,20.1-5.4,20.1s-5.5-5.6-7.6-14.8
							c-1.5-6.4,2.1-11,4.5-13.3C465,349.9,465.8,349.4,465.8,349.4z"/>
						<path class="st161" d="M462.8,350.8c0,0-4.5-2.1-4,3.2c0.5,5.3-1,10.2,2.7,16.5s5.6,8.6,5.6,8.6s-2.6-14.5-2.9-21.3
							c-0.3-6.8-0.3-6.8-0.3-6.8"/>
					</g>
					<g>
						<path class="st160" d="M416.5,365.4c0,0-5.4,2-1.6,9.9c3.8,7.9,13.8,13.4,13.8,13.4s2.3-6.4,0.1-14.3
							c-1.6-5.4-6.8-7.6-9.9-8.4C417.4,365.5,416.5,365.4,416.5,365.4z"/>
						<path class="st161" d="M419.7,365.3c0,0,3.1-3.4,5,0.8s5.4,7.5,5,13.7c-0.4,6.2-1.1,8.8-1.1,8.8s-4.2-12.1-7-17.4
							c-2.8-5.3-2.8-5.3-2.8-5.3"/>
					</g>
					<g>
						<path class="st160" d="M427.8,330.5c0,0,4.9,0.2,3.8,7.4s-7.8,14.2-7.8,14.2s-3.5-4.5-3.7-11.4c-0.1-4.7,3.6-7.8,5.9-9.3
							C427,330.8,427.8,330.5,427.8,330.5z"/>
						<path class="st161" d="M425.1,331.3c0,0-3.4-1.9-3.9,2s-2.5,7.4-0.6,12.2c1.9,4.8,3.1,6.7,3.1,6.7s0.4-10.7,1.3-15.7
							c0.9-5,0.9-5,0.9-5"/>
					</g>
					<g>
						<path class="st160" d="M456.2,168c0,0,4.4,2.1,0.6,8.3s-12.8,10.1-12.8,10.1s-1.5-5.5,1-11.9c1.7-4.4,6.4-5.8,9.1-6.3
							C455.4,168,456.2,168,456.2,168z"/>
						<path class="st161" d="M453.5,167.7c0,0-2.4-3.1-4.3,0.3c-2,3.4-5.2,5.8-5.3,11s0.3,7.4,0.3,7.4s4.5-9.8,7.3-14
							c2.8-4.2,2.8-4.2,2.8-4.2"/>
					</g>
					<g>
						<path class="st160" d="M444.5,263.6c0,0,4.4,2.1,0.6,8.3S432.4,282,432.4,282s-1.5-5.5,1-11.9c1.7-4.4,6.4-5.8,9.1-6.3
							C443.7,263.6,444.5,263.6,444.5,263.6z"/>
						<path class="st161" d="M441.7,263.3c0,0-2.4-3.1-4.3,0.3c-2,3.4-5.2,5.8-5.3,11s0.3,7.4,0.3,7.4s4.5-9.8,7.3-14
							c2.8-4.2,2.8-4.2,2.8-4.2"/>
					</g>
					<g>
						<path class="st160" d="M439.4,368.3c0,0-2.6,2,0.8,5.5s9.9,4.5,9.9,4.5s0.2-3.8-2.4-7.5c-1.8-2.6-5.1-2.8-6.9-2.6
							C439.9,368.2,439.4,368.3,439.4,368.3z"/>
						<path class="st161" d="M441.2,367.7c0,0,1.1-2.3,2.9-0.5s4.3,2.9,5.1,6.3s0.9,4.8,0.9,4.8s-4.4-5.6-6.9-7.9
							c-2.5-2.3-2.5-2.3-2.5-2.3"/>
					</g>
					<g>
						<path class="st160" d="M434.4,339.5c0,0-3.1-1.2-4.2,3.6c-1.1,4.8,1.4,10.8,1.4,10.8s3.3-1.9,5.1-6.1c1.2-2.9-0.3-5.7-1.4-7.2
							C434.8,339.9,434.4,339.5,434.4,339.5z"/>
						<path class="st161" d="M435.9,340.7c0,0,2.6-0.3,1.9,2.2c-0.6,2.5-0.2,5.2-2.6,7.7s-3.6,3.3-3.6,3.3s2.4-6.7,3-10
							s0.6-3.3,0.6-3.3"/>
					</g>
					<g>
						<path class="st160" d="M412.2,365.3c0,0,3.3,1.4,0.5,5.5c-2.8,4.1-9.4,6.5-9.4,6.5s-1.1-3.7,0.7-7.9c1.3-2.9,4.7-3.8,6.7-4
							C411.6,365.3,412.2,365.3,412.2,365.3z"/>
						<path class="st161" d="M410.1,365.1c0,0-1.7-2.1-3.2,0.2s-3.8,3.8-3.9,7.2s0.2,4.9,0.2,4.9s3.3-6.4,5.3-9.2c2-2.8,2-2.8,2-2.8
							"/>
					</g>
					<g>
						<path class="st160" d="M448.9,316.4c0,0,3.1,1.9-0.3,6.2c-3.4,4.3-10.3,6.3-10.3,6.3s-0.6-4.2,1.8-8.7
							c1.7-3.1,5.2-3.8,7.2-3.9C448.3,316.3,448.9,316.4,448.9,316.4z"/>
						<path class="st161" d="M446.9,316c0,0-1.5-2.5-3.2-0.1s-4.3,3.8-4.8,7.7c-0.5,3.8-0.4,5.5-0.4,5.5s4.2-6.8,6.6-9.7
							c2.4-2.9,2.4-2.9,2.4-2.9"/>
					</g>
					<g>
						<path class="st160" d="M442.5,285.9c0,0,3.1,1.9-0.3,6.2c-3.4,4.3-10.3,6.3-10.3,6.3s-0.6-4.2,1.8-8.7
							c1.7-3.1,5.2-3.8,7.2-3.9C441.9,285.8,442.5,285.9,442.5,285.9z"/>
						<path class="st161" d="M440.5,285.4c0,0-1.5-2.5-3.2-0.1s-4.3,3.8-4.8,7.7s-0.4,5.5-0.4,5.5s4.2-6.8,6.6-9.7
							c2.4-2.9,2.4-2.9,2.4-2.9"/>
					</g>
					<g>
						<path class="st160" d="M476.4,332.8c0,0-3.8,1.3-1,6.1s10,8.1,10,8.1s1.6-4-0.2-8.9c-1.2-3.3-4.9-4.6-7.2-5.1
							C477.1,332.9,476.4,332.8,476.4,332.8z"/>
						<path class="st161" d="M478.8,332.7c0,0,2.1-2.2,3.6,0.4s4,4.5,3.8,8.4s-0.6,5.4-0.6,5.4s-3.2-7.4-5.3-10.7
							c-2.1-3.3-2.1-3.3-2.1-3.3"/>
					</g>
					<g>
						<path class="st160" d="M469.3,262.2c0,0-6.7,2.5-1.9,12.2c4.8,9.7,17.3,16.4,17.3,16.4s2.9-7.9,0-17.6
							c-2-6.7-8.5-9.3-12.4-10.3C470.5,262.3,469.3,262.2,469.3,262.2z"/>
						<path class="st161" d="M473.4,262.1c0,0,3.8-4.2,6.2,1s6.8,9.2,6.3,16.9c-0.5,7.7-1.3,10.8-1.3,10.8s-5.3-14.9-8.9-21.5
							s-3.5-6.5-3.5-6.5"/>
					</g>
					<g>
						<path class="st159" d="M498.1,223.7c-0.4-0.7-1-1.2-1.6-1.7c-2.6-1.9-6.8-1.9-10.8-0.9c-5,1.2-18.4,3.2-19.4,3.3
							c-1,0.1-3.9,1.4-1.4,2.9c2.6,1.5,8.5,2.5-3.5,4s-12.5-2-17.5,2.2c-5,4.2-8,7.5-11.8,8.7c-3.8,1.2-5.2,4.7-6.6,5.2
							c-1.4,0.5-3.2-2.7-5.1,1.4s0.4,3.5-3,6.3s-7.9,11.1-7.9,11.1s6.6-5.2-3.1,2.1c-9.7,7.3-5.2-1-9.7,7.3s-6.4,10.4-8.7,10.8
							c-2.3,0.4-5.8,3.5-1.5,3.2s7.8-4.6,10.2-4.7s-2.2,7.3,12.6-3.3s16.6-13.8,19.9-15s7.3,1.6,13.3-1.7s5.8-0.3,13.1-3.9
							s7.2-5.8,12.6-6.5c5.4-0.7-3.5-4,9.2-4.3s17.4-5.4,19.1-7c1.6-1.6,4.3-11,6.2-13.1"/>
						<path class="st160" d="M494.4,227.3c0,0-5.2,10.3-7.2,7s-5.1-6.9-4.8-4.3c0.3,2.5,2,5.4-1.9,3.5c-3.9-1.8-6.5-5.2-5.4-2.5
							s-1.9,1.5-0.9,3.7c1,2.3,0.8,1.6-2.2,1.3s-3.3-1-6.3,0.9c-3,1.9-2.8,5.8-4.3,4.8c-1.6-1-0.5,3.6-0.5,3.6s-6.2,0.6-8.3-1.3
							s-3.9-4.2-3.9-4.2s-1.5,5-1,5.8c0.5,0.8,0.2,1.6-2.3,1c-2.4-0.5-8.6-2-6.1,1.6c2.5,3.6,5.4,6.1,4.3,5.9s-3.8-0.1-6,0.1
							s-5,1.2-5,1.2s-5.8,3.5-5.4,4.6c0.4,1.1-6.2,2.4-6.2,2.4s-3.2-2.7-2.7-1.3s-2.4,3-2.1,4.1s-3.4,1.7-2,3.8
							c1.4,2.2,1.4,2.2,1.4,2.2s-10.8,2-8.8,3s2.8,2.8,2.8,2.8s-3.8,0-3.7,0.9c0.1,1-5.5-2.9-4.4,0.6s-2,1.9-1.6,5.2
							s-3.1,5.6,1.7,2.7c4.8-2.8,2.6-6.7,5.1-5.8c2.5,0.9-5.3,2.9,5.3-1s9.7-9.8,14.4-11.7c4.8-1.9,4.9-1.6,7.4-1.5s-0.4-5.6,6.3-6
							s1.9-3.9,5.7-3.5s3.6-2.9,3.6-2.9s-0.8-5.2,2.6-0.5c3.5,4.6,4.4,2.1,5.3,0.7c0.9-1.3,1.4-1.7,3.6-2.5s2.7-7.6,3.5-3.7
							s3.4,7.3,4.5,3.6s1.9-5.3,4.3-4.8c2.4,0.5,8.2,5,10,2.6c1.8-2.4,5.6-2.4,6.7-4c1-1.6-2.1-1.9,1.6-3.4s8.4-0.3,7.4-4
							c-1-3.7-5-2.9-1.8-5.2c3.2-2.4,4.6-2.9,1.7-3.6C495.8,228.5,494.4,227.3,494.4,227.3z"/>
						<path class="st160" d="M454.9,258.6c-1.1-0.2-5.1,1.4-7.8,2c-2.6,0.5-2.3-2.3-4.8,1.6s-4.7,4.3-4.7,4.3l-0.4,6.4
							c0,0,2.5,2.7,3.8-2.7s2.7-6,3.9-4.9s1.7,2.4,4.3,2c2.6-0.4,1.3-2.1,4.4-3.1s-1.5-4.3,1.8-3.3s2.3-0.4,4.9-1
							c2.6-0.5,4.5-8.4,2.5-5.3c-1.9,3-2.9,3.1-4.3,3.3C457.4,258.3,454.9,258.6,454.9,258.6z"/>
						<path class="st160" d="M433.8,266.5c-0.2,0.3-0.6,0.6-1.1,0.9c-2.3,1.1-7.1,2-7.4,3.1c-0.3,1.3-1.1,4.8-1.1,4.8
							s-9.3,8.4-2.2,2.2"/>
					</g>
					<g>
						<path class="st159" d="M486.2,227.2c0.4-0.7,0.6-1.4,0.8-2.2c0.5-3.2-1.3-6.9-4-10.1c-3.3-4-11.1-15.1-11.7-15.9
							c-0.6-0.8-3-2.9-3.2,0.1s1.6,8.8-5.1-1.4s-3.8-12.1-9.8-14.7c-6-2.5-10.3-3.8-13.1-6.7c-2.8-2.9-6.5-2.5-7.6-3.6
							s1-4.1-3.6-3.9s-2.9,2-7,0.2c-4.1-1.8-13.5-2.1-13.5-2.1s7.6,3.6-3.3-1.8s-1.5-5.1-10.9-5.4s-12.1-1.1-13.5-2.9
							s-5.7-3.6-3.5,0.1c2.2,3.7,7.6,4.9,8.8,7c1.1,2.1-7.5,1.3,8.6,9.7c16.1,8.5,19.8,8.7,22.3,11c2.5,2.4,1.8,7.2,7.5,11.1
							c5.7,3.9,2.8,5,9.4,10s8.4,3.8,11.5,8.3s2-4.9,7.9,6.3s12.7,13.1,14.9,13.9s11.8-1.1,14.5-0.4"/>
						<path class="st160" d="M481.3,225.4c0,0-11.6,0-9.5-3.3c2.1-3.3,3.8-7.6,1.7-6.2c-2.1,1.4-3.9,4.2-4-0.2s1.7-8.1-0.1-5.9
							c-1.8,2.2-2.2-1-3.7,0.9s-1,1.5-2.2-1.4c-1.1-2.8-0.6-3.4-3.6-5.2c-3-1.8-6.4,0.2-6.2-1.7s-3.5,1.2-3.5,1.2s-3.4-5.3-2.6-8
							c0.7-2.7,2-5.4,2-5.4s-5.1,0.9-5.6,1.7c-0.5,0.8-1.3,0.8-1.9-1.6c-0.6-2.4-2.1-8.6-4.1-4.7s-3,7.6-3.3,6.5
							c-0.3-1.1-1.6-3.5-2.8-5.3s-3.4-4-3.4-4s-5.7-3.6-6.5-2.8c-0.8,0.8-4.9-4.5-4.9-4.5s1-4.1-0.1-3s-3.8-0.8-4.6-0.1
							c-0.8,0.7-3-2.3-4.3-0.1c-1.3,2.3-1.3,2.3-1.3,2.3s-6.7-8.7-6.6-6.6c0.1,2.2-1.3,3.8-1.3,3.8s-1.7-3.5-2.5-2.9
							s0.1-6.2-2.5-3.7s-2.6-0.9-5.4,0.9s-6.4-0.3-1.7,2.7s7.1-0.7,7.5,2c0.3,2.7-5-3.4,3.3,4.2c8.3,7.6,13,4.3,16.9,7.7
							c3.8,3.4,3.6,3.7,4.6,5.9c1,2.2,4.8-2.9,8.2,2.9c3.4,5.8,4.4-0.1,5.6,3.5c1.3,3.6,4.2,1.9,4.2,1.9s4.2-3.1,1.7,2.1
							c-2.6,5.2,0.1,4.8,1.7,5.1c1.6,0.2,2.2,0.5,3.8,2.1c1.7,1.6,8-1,4.9,1.5c-3.2,2.5-5,6.3-1.2,5.7c3.8-0.6,5.6-0.7,6.2,1.7
							c0.6,2.4-0.8,9.6,2.1,10.1s4.6,4,6.5,4.2c1.9,0.2,0.7-2.7,3.8-0.1c3,2.6,4.1,7.4,6.9,4.8c2.8-2.6,0.3-5.8,3.9-4s4.6,2.8,4-0.1
							C480.8,227.3,481.3,225.4,481.3,225.4z"/>
						<path class="st160" d="M435.6,204.2c-0.3-1.1-3.6-3.9-5.3-6.1c-1.7-2.1,1-3-3.6-3.6s-6-2.2-6-2.2l-5.9,2.5
							c0,0-1.3,3.4,4.1,2.2s6.6-0.3,6.1,1.3s-1.4,2.6,0.1,4.8s2.5,0.2,4.7,2.6s3.1-3.3,3.8,0.2c0.6,3.5,1.4,1.8,3.1,4
							s9.5,0.2,5.9-0.1s-4.1-1.2-4.9-2.3C437,206.3,435.6,204.2,435.6,204.2z"/>
						<path class="st160" d="M419,188.9c-0.3,0-0.8-0.2-1.3-0.6c-2-1.6-5-5.5-6.1-5.2c-1.3,0.3-4.8,1.2-4.8,1.2s-11.7-4.6-3-1"/>
					</g>
					<g>
						<path class="st159" d="M492.4,293.7c-0.1-0.5-0.3-1-0.6-1.4c-1.2-1.8-3.9-2.7-6.7-3.1c-3.5-0.4-12.4-2.2-13.1-2.3
							s-2.8,0-1.5,1.5c1.3,1.5,4.8,3.5-3.2,1.7s-7.5-4.1-11.6-2.6c-4.1,1.5-6.8,2.9-9.5,2.8c-2.7-0.1-4.3,1.8-5.4,1.8
							s-1.4-2.4-3.6-0.3c-2.2,2.2-0.5,2.3-3.3,3.3c-2.8,1-7.5,5.2-7.5,5.2s5.4-1.8-2.4,0.6c-7.8,2.4-3.1-1.8-7.8,2.4
							c-4.7,4.2-6.4,5.1-7.9,4.9s-4.5,0.9-1.7,1.7c2.8,0.8,6-1.2,7.6-0.6s-3.1,4.1,8.7,0.8s13.7-5,16-5c2.3,0,4.2,2.7,8.8,1.9
							s3.7,1.2,9.2,0.5c5.5-0.6,5.9-2,9.5-1.3s-1.3-3.3,6.8-0.6s12.3,0.5,13.7-0.1s5.2-6,6.9-6.9"/>
						<path class="st160" d="M489.2,295.1c0,0-5.6,5.4-6.1,2.8s-1.7-5.5-2-3.8c-0.4,1.7,0,3.9-2,1.8c-2.1-2.1-3-4.7-2.8-2.8
							s-1.5,0.5-1.4,2.2c0.1,1.7,0.2,1.2-1.7,0.3s-1.9-1.4-4.2-0.9c-2.3,0.5-3.1,3.1-3.8,2c-0.8-1-1.2,2.2-1.2,2.2s-4.1-1-5-2.7
							c-0.9-1.7-1.5-3.6-1.5-3.6s-2,2.8-1.9,3.5s-0.3,1-1.7,0.1c-1.4-0.9-5-3.2-4.2-0.4s2.1,5.1,1.4,4.7s-2.4-0.9-3.8-1.3
							s-3.5-0.4-3.5-0.4s-4.5,0.9-4.5,1.7s-4.5,0.1-4.5,0.1s-1.4-2.4-1.4-1.4c0,1-2.2,1.4-2.3,2.1c0,0.7-2.5,0.3-2.1,2
							c0.4,1.7,0.4,1.7,0.4,1.7s-7.3-1.1-6.3-0.1c1,1,1.2,2.4,1.2,2.4s-2.4-0.9-2.6-0.3s-2.8-3.1-2.9-0.6c-0.1,2.4-1.7,0.8-2.2,2.9
							c-0.5,2.2-3.2,2.8,0.4,2.1c3.7-0.7,3.2-3.6,4.6-2.5c1.4,1.2-4,0.7,3.6,0.5s8.3-4,11.8-4.1c3.5-0.1,3.5,0.1,5,0.7
							s1-3.7,5.3-2.4c4.4,1.3,2.1-2.1,4.4-0.9s2.9-1,2.9-1s0.6-3.5,1.8,0.3s2.3,2.3,3.2,1.7c0.9-0.6,1.3-0.8,2.8-0.8
							c1.5,0,3.5-4.2,3.1-1.5c-0.4,2.7,0.5,5.4,2,3.3c1.5-2,2.4-2.9,3.8-2c1.4,0.9,4.1,5,5.7,3.9c1.7-1.1,4.1-0.2,5.1-1
							s-0.9-1.7,1.8-1.8c2.7-0.1,5.4,1.7,5.6-0.9s-2.5-3,0.1-3.7c2.6-0.8,3.6-0.8,1.9-1.9C489.9,296.2,489.2,295.1,489.2,295.1z"/>
						<path class="st160" d="M457.1,306c-0.6-0.4-3.6-0.3-5.4-0.5c-1.8-0.3-0.9-1.9-3.4-0.1s-3.9,1.7-3.9,1.7l-1.7,3.9
							c0,0,1,2.3,3-0.8c2-3.1,3.1-3.2,3.6-2.2c0.5,0.9,0.6,1.9,2.3,2.3c1.7,0.3,1.3-1.1,3.5-0.9s0-3.1,1.9-1.7
							c1.9,1.4,1.5,0.3,3.3,0.5s4.7-4.3,2.8-2.8s-2.6,1.3-3.5,1.2C458.8,306.4,457.1,306,457.1,306z"/>
						<path class="st160" d="M441.9,306.2c-0.2,0.2-0.5,0.2-0.9,0.3c-1.7,0.2-5-0.4-5.4,0.3c-0.5,0.8-1.8,2.8-1.8,2.8
							s-7.8,3.2-1.9,0.9"/>
					</g>
					<g>
						<path class="st159" d="M468.4,340.4c0.1-0.4,0.2-0.8,0.1-1.1c-0.1-1.6-1.4-3.2-3.1-4.5c-2-1.6-7-6.1-7.4-6.4s-1.8-1.1-1.6,0.4
							c0.2,1.5,1.7,4.1-2.6-0.1s-3.2-5.5-6.3-6s-5.4-0.7-7.1-1.8c-1.7-1.1-3.4-0.5-4.1-0.9s0-2.1-2.2-1.5c-2.2,0.6-1.2,1.3-3.4,0.8
							c-2.2-0.4-6.8,0.5-6.8,0.5s4.1,0.9-1.8-0.5s-1.3-2.3-5.9-1.4s-6,0.8-6.9,0.1s-3.2-1.1-1.7,0.4c1.5,1.6,4.3,1.5,5,2.5
							s-3.5,1.4,5.2,3.8s10.6,2,12,2.9c1.5,0.9,1.7,3.3,4.9,4.6c3.2,1.3,1.9,2.1,5.6,3.8s4.5,0.9,6.5,2.8s0.4-2.6,4.5,2.2
							c4.1,4.8,7.6,5,8.7,5.1c1.1,0.1,5.6-1.8,7-1.8"/>
						<path class="st160" d="M465.8,340.1c0,0-5.6,1.3-5-0.5s1-4.1,0.2-3.2c-0.9,0.9-1.5,2.5-2,0.4c-0.5-2.1-0.1-4.1-0.7-2.9
							s-1.2-0.3-1.7,0.8s-0.3,0.8-1.2-0.4c-0.9-1.3-0.7-1.6-2.3-2.1s-3.1,0.8-3.2-0.2c-0.1-0.9-1.6,0.9-1.6,0.9s-2.2-2.2-2.1-3.6
							s0.4-2.9,0.4-2.9s-2.4,1-2.5,1.5c-0.2,0.5-0.6,0.6-1.1-0.5s-2-3.9-2.5-1.8c-0.6,2.1-0.6,4-0.9,3.5s-1.2-1.5-1.9-2.3
							s-2.1-1.5-2.1-1.5s-3.2-1.1-3.5-0.6c-0.3,0.5-2.9-1.6-2.9-1.6s0-2.1-0.4-1.4c-0.4,0.6-1.9,0-2.2,0.5s-1.7-0.8-2.1,0.4
							s-0.4,1.2-0.4,1.2s-4.2-3.5-3.9-2.5c0.3,1-0.2,2-0.2,2s-1.2-1.5-1.5-1.1s-0.6-3-1.6-1.5c-1,1.5-1.4-0.1-2.5,1
							s-3.1,0.6-0.5,1.5c2.6,0.9,3.4-1.1,3.8,0.2c0.5,1.3-2.8-1.1,2.1,1.7s6.8,0.6,9,1.9c2.2,1.2,2.2,1.4,2.9,2.4s2-2,4.3,0.5
							c2.3,2.5,2.1-0.5,3.1,1.1s2.2,0.5,2.2,0.5s1.7-1.9,1,0.8c-0.7,2.8,0.6,2.3,1.4,2.3c0.8-0.1,1.1,0,2.1,0.6
							c1,0.6,3.8-1.4,2.5,0.2c-1.3,1.6-1.7,3.6,0,2.9s2.7-0.9,3.2,0.2c0.6,1.1,0.7,4.7,2.1,4.7s2.7,1.4,3.6,1.3
							c0.9-0.1,0.1-1.4,1.8-0.5c1.8,0.9,2.8,3.1,3.9,1.6s-0.5-2.8,1.4-2.3s2.6,0.9,1.9-0.5C465.8,341.1,465.8,340.1,465.8,340.1z"/>
						<path class="st160" d="M441.3,334.8c-0.3-0.5-2.2-1.5-3.2-2.4s0.2-1.6-2.1-1.3s-3.1-0.4-3.1-0.4l-2.6,1.9c0,0-0.2,1.8,2.2,0.6
							c2.5-1.2,3.2-0.8,3.1-0.1s-0.4,1.4,0.6,2.3c0.9,0.9,1.2-0.2,2.6,0.7c1.3,0.9,1.2-1.9,1.8-0.3s0.9,0.7,1.9,1.6s4.6-0.9,2.9-0.7
							s-2.1-0.2-2.6-0.6C442.2,335.7,441.3,334.8,441.3,334.8z"/>
						<path class="st160" d="M431.6,329.2c-0.2,0-0.4,0-0.7-0.2c-1.2-0.5-3-2.1-3.5-1.9c-0.6,0.3-2.2,1.1-2.2,1.1s-6.2-0.9-1.6-0.2"
							/>
					</g>
					<g>
						<path class="st159" d="M477.3,124c-0.3-0.5-0.6-0.9-1-1.2c-1.7-1.3-4.5-1.5-7.2-1c-3.4,0.6-12.5,1.5-13.2,1.6
							c-0.7,0.1-2.7,0.8-1,1.9s5.7,2-2.5,2.5c-8.2,0.5-8.3-1.8-11.8,0.8c-3.5,2.7-5.6,4.8-8.3,5.4s-3.6,3-4.6,3.3
							c-1,0.3-2.1-1.9-3.5,0.8s0.2,2.4-2.2,4.1c-2.4,1.8-5.7,7.2-5.7,7.2s4.6-3.3-2.1,1.3c-6.8,4.6-3.5-0.8-6.8,4.6
							s-4.7,6.7-6.2,6.9s-4,2.2-1.1,2.1s5.4-2.8,7-2.8s-1.8,4.8,8.6-1.8s11.7-8.7,13.9-9.4c2.2-0.7,4.8,1.4,9-0.7
							c4.2-2.1,3.9,0,9-2.2s5-3.7,8.7-4s-2.2-2.8,6.3-2.6c8.5,0.2,11.9-3.1,13.1-4.1s3.3-7.3,4.6-8.6"/>
						<path class="st160" d="M474.6,126.3c0,0-3.8,6.8-5.1,4.5c-1.2-2.3-3.2-4.8-3.1-3.1s1.1,3.7-1.4,2.3c-2.6-1.4-4.2-3.7-3.5-1.9
							c0.7,1.8-1.3,0.9-0.7,2.5s0.5,1.1-1.5,0.8c-2-0.3-2.2-0.8-4.3,0.4s-2.1,3.8-3.1,3.1c-1-0.8-0.5,2.4-0.5,2.4s-4.2,0.2-5.6-1.1
							c-1.3-1.3-2.5-3-2.5-3s-1.1,3.3-0.8,3.9c0.3,0.6,0.1,1.1-1.6,0.6c-1.6-0.5-5.7-1.6-4.2,0.9c1.5,2.5,3.4,4.3,2.7,4.1
							s-2.6-0.2-4-0.1c-1.5,0.1-3.4,0.6-3.4,0.6s-4,2.2-3.8,2.9c0.2,0.7-4.3,1.4-4.3,1.4s-2.1-1.9-1.8-0.9s-1.7,1.9-1.6,2.7
							c0.2,0.7-2.4,1-1.5,2.5c0.9,1.5,0.9,1.5,0.9,1.5s-7.3,1-6,1.7s1.8,2,1.8,2s-2.6-0.2-2.5,0.5s-3.6-2.1-3,0.2s-1.4,1.2-1.2,3.4
							s-2.3,3.6,1,1.9c3.3-1.7,2-4.4,3.7-3.7c1.7,0.7-3.6,1.8,3.6-0.5s6.8-6.2,10.1-7.3c3.3-1.1,3.4-0.9,5-0.7
							c1.6,0.2-0.1-3.8,4.4-3.8c4.5,0,1.4-2.6,3.9-2.1c2.5,0.5,2.5-1.8,2.5-1.8s-0.4-3.5,1.8-0.3c2.2,3.2,2.9,1.5,3.5,0.7
							c0.7-0.9,1-1.1,2.5-1.5s2.1-5,2.5-2.4c0.4,2.7,2,5,2.9,2.6c0.9-2.4,1.5-3.5,3.1-3.1s5.3,3.7,6.6,2.1c1.3-1.6,3.9-1.4,4.6-2.4
							s-1.3-1.3,1.2-2.2s5.7,0.1,5.1-2.4c-0.6-2.5-3.3-2.1-1-3.6c2.2-1.5,3.2-1.8,1.3-2.4C475.6,127.2,474.6,126.3,474.6,126.3z"/>
						<path class="st160" d="M447,146c-0.7-0.2-3.5,0.8-5.3,1.1s-1.4-1.6-3.3,0.9c-1.8,2.5-3.3,2.8-3.3,2.8l-0.5,4.3
							c0,0,1.6,1.9,2.7-1.7s2-3.9,2.8-3.2c0.8,0.8,1.1,1.7,2.8,1.5c1.7-0.2,1-1.4,3.1-1.9s-0.9-2.9,1.4-2.1s1.5-0.2,3.3-0.5
							c1.8-0.3,3.3-5.5,1.9-3.5c-1.4,2-2.1,2-3,2.1C448.7,145.9,447,146,447,146z"/>
						<path class="st160" d="M432.5,150.6c-0.1,0.2-0.4,0.4-0.8,0.5c-1.6,0.7-4.9,1.1-5.1,1.8c-0.3,0.9-0.9,3.2-0.9,3.2
							s-6.6,5.3-1.6,1.4"/>
					</g>
					<g>
						<path class="st159" d="M460.3,201.5c-0.3-0.5-0.6-0.9-1-1.2c-1.7-1.3-4.5-1.5-7.2-1c-3.4,0.6-12.5,1.5-13.2,1.6
							c-0.7,0.1-2.7,0.8-1,1.9c1.7,1.1,5.7,2-2.5,2.5c-8.2,0.5-8.3-1.8-11.8,0.8s-5.6,4.8-8.3,5.4s-3.6,3-4.6,3.3
							c-1,0.3-2.1-1.9-3.5,0.8s0.2,2.4-2.2,4.1c-2.4,1.8-5.7,7.2-5.7,7.2s4.6-3.3-2.1,1.3c-6.8,4.6-3.5-0.8-6.8,4.6
							s-4.7,6.7-6.2,6.9s-4,2.2-1.1,2.1s5.4-2.8,7-2.8s-1.8,4.8,8.6-1.8s11.7-8.7,13.9-9.4c2.2-0.7,4.8,1.4,9-0.7s3.9,0,9-2.2
							s5-3.7,8.7-4s-2.2-2.8,6.3-2.6c8.5,0.2,11.9-3.1,13.1-4.1s3.3-7.3,4.6-8.6"/>
						<path class="st160" d="M457.6,203.7c0,0-3.8,6.8-5.1,4.5c-1.2-2.3-3.2-4.8-3.1-3.1c0.1,1.7,1.1,3.7-1.4,2.3
							c-2.6-1.4-4.2-3.7-3.5-1.9c0.7,1.8-1.3,0.9-0.7,2.5s0.5,1.1-1.5,0.8c-2-0.3-2.2-0.8-4.3,0.4s-2.1,3.8-3.1,3.1
							c-1-0.8-0.5,2.4-0.5,2.4s-4.2,0.2-5.6-1.1c-1.3-1.3-2.5-3-2.5-3s-1.1,3.3-0.8,3.9c0.3,0.6,0.1,1.1-1.6,0.6s-5.7-1.6-4.2,0.9
							s3.4,4.3,2.7,4.1c-0.7-0.2-2.6-0.2-4-0.1c-1.5,0.1-3.4,0.6-3.4,0.6s-4,2.2-3.8,2.9c0.2,0.7-4.3,1.4-4.3,1.4s-2.1-1.9-1.8-0.9
							s-1.7,1.9-1.6,2.7c0.2,0.7-2.4,1-1.5,2.5c0.9,1.5,0.9,1.5,0.9,1.5s-7.3,1-6,1.7s1.8,2,1.8,2s-2.6-0.2-2.5,0.5s-3.6-2.1-3,0.2
							s-1.4,1.2-1.2,3.4c0.2,2.2-2.3,3.6,1,1.9c3.3-1.7,2-4.4,3.7-3.7s-3.6,1.8,3.6-0.5s6.8-6.2,10.1-7.3c3.3-1.1,3.4-0.9,5-0.7
							c1.6,0.2-0.1-3.8,4.4-3.8s1.4-2.6,3.9-2.1c2.5,0.5,2.5-1.8,2.5-1.8s-0.4-3.5,1.8-0.3c2.2,3.2,2.9,1.5,3.5,0.7
							c0.7-0.9,1-1.1,2.5-1.5c1.5-0.4,2.1-5,2.5-2.4c0.4,2.7,2,5,2.9,2.6s1.5-3.5,3.1-3.1s5.3,3.7,6.6,2.1s3.9-1.4,4.6-2.4
							s-1.3-1.3,1.2-2.2c2.5-0.9,5.7,0.1,5.1-2.4c-0.6-2.5-3.3-2.1-1-3.6s3.2-1.8,1.3-2.4C458.5,204.7,457.6,203.7,457.6,203.7z"/>
						<path class="st160" d="M430,223.4c-0.7-0.2-3.5,0.8-5.3,1.1s-1.4-1.6-3.3,0.9c-1.8,2.5-3.3,2.8-3.3,2.8l-0.5,4.3
							c0,0,1.6,1.9,2.7-1.7c1.1-3.5,2-3.9,2.8-3.2c0.8,0.8,1.1,1.7,2.8,1.5c1.7-0.2,1-1.4,3.1-1.9s-0.9-2.9,1.4-2.1s1.5-0.2,3.3-0.5
							c1.8-0.3,3.3-5.5,1.9-3.5s-2.1,2-3,2.1C431.7,223.3,430,223.4,430,223.4z"/>
						<path class="st160" d="M415.5,228c-0.1,0.2-0.4,0.4-0.8,0.5c-1.6,0.7-4.9,1.1-5.1,1.8c-0.3,0.9-0.9,3.2-0.9,3.2
							s-6.6,5.3-1.6,1.4"/>
					</g>
				</g>
				<path class="st162" d="M133.1,387.5c0,0,6.6-3.5,8.3-7c0.7-1.3,0.7-2.6-0.7-3.6c-4.8-3.8-2.4-6.7-7.7-7.2s-6.7,3.2-14.4-4.4
					c-7.7-7.6-4.3-11.4-10.6-11.2c-6.2,0.2-12.5-2.2-16.8,0s-7.7,0.9-14.4,2.5s-9.1,5.5-13.9,1.4s-9.6-5.5-15.4-12.8
					s-8.6-10.8-8.6-10.8l-7.2-1.4h-4.8l-2.4,90.5c0,0,42.3-4.3,46.6-9.6c4.3-5.3-6.7-10.8,8.6-11.6s21.6,3.9,28.8-2.3
					s12-12.5,18.3-12.5"/>
				<path class="st163" d="M113.2,423.9c5.8-3.5,24.5-8.3,25.5-12.7c1-4.3,11.1-3.8,7.7-5.3s-12.5,0.5-12-3.8
					c0.5-4.3-1.9-8.2,3.8-6.2s5.2,4.8,8.9,1.4c3.6-3.4,8.9-5.2,8.9-5.2s4.3,5.2,4.3,7.6s-1,3.8-4.3,5.8
					C152.6,407.4,113.2,423.9,113.2,423.9z"/>
				<path class="st163" d="M178.6,392.2c1.9,0.4,34.1-3.7,25.9,0s-9.7,3.2-12.3,3.7s-11.7,0-11.7,0L178.6,392.2z"/>
				<path class="st163" d="M213.6,396.1c1.4-1.2,11.5-0.3,14.9,0c3.4,0.3,7-0.7,14.3,0s14.5,0.8,18.8,0s11.5-2.5,13.5-2.8
					c1.9-0.3,5.8-1.4,3.4,2.8s2.4,6.5,5.8,3.6s6.5-3.9,11.7-3.6c5.1,0.3,6.6,3.6,6.6,3.6s1-2.1,8.6-2.7c7.7-0.6,13-5,12-0.9
					s-9.6,9.9,6.7,3.6s18.3-9.2,18.3-6.8c0,2.4,0.5,7.7,0,9.2s2.9,5.9,2.9,5.9s7.2-10.2,6.7-5.9c-0.5,4.3,4.8,15.9-18.3,9.1
					c-23.1-6.7-13-10.3-25.5-8.5s-20.9-2.3-28.2,0c-7.3,2.3-7.8,2.8-11.2,2.3c-3.4-0.5,2.4-1.9-9.6-2.9s-5.3-0.9-25.9-2.4
					c-20.7-1.4-25.5,0-25.5,0L213.6,396.1L213.6,396.1z"/>
				<path class="st164" d="M31.3,405.1c0,0,5.8-15.9,10.9-19.3c5.1-3.4,21.5-4.7,22.4-5.3c1-0.6,2.6-2,8.3-3.9s8.3,0.3,9,0
					s8.6,1.3,9.7,1.6c1.2,0.4,2.4,2.5,5,0s6.7-4.4,7.7-3.5c1,1,7.6,9,8.3,5.8c0.7-3.2,2.6-6.7,4.2-5.8s14.6-0.1,14.8,3.5s3-0.3,0,2
					s-5.5,0.3-11.3,4.2s-5.4,10.7-9.3,11.8s-0.7,3-9.3,3s-8.4-0.5-18.7,0.1c-10.4,0.6-19.3-2-20.3,1.4c-1,3.4,1.9,8.2-2.2,9.4
					s-0.7,3.6-9.5,3.9c-8.8,0.3-14.4-0.9-15.1,0s-1.1-0.5-3,0c-1.9,0.5-1.6-7.5-1.6-7.5"/>
				<g>
					<path class="st165" d="M76.7,385.8h25l-9,29.5c0,0-24.3,2.2-24,0C69,413,76.7,385.8,76.7,385.8z"/>
					<line class="st165" x1="90.5" y1="385.8" x2="68.7" y2="415.3"/>
					<line class="st165" x1="92.7" y1="415.3" x2="90.5" y2="385.8"/>
					<line class="st165" x1="81.5" y1="414.6" x2="90.5" y2="385.8"/>
					<line class="st165" x1="117.1" y1="390.6" x2="108.1" y2="429.4"/>
					<line class="st166" x1="131.5" y1="397" x2="120.6" y2="440"/>
					<line class="st167" x1="153.3" y1="407.3" x2="144.9" y2="444.1"/>
					<line class="st168" x1="185" y1="427.5" x2="175" y2="471"/>
				</g>
				<path class="st169" d="M172.6,305.1c0,0,9.3-3.2,11.5,0c2.2,3.2,6.7,8.3,9.9,7.7s4.2-4.5,7.7-1.9c3.5,2.6,6.7,0.3,9.3,3.5
					s4.8-1.3,6.7,2.2s3.8,7,3.5,8.3c-0.3,1.3-5.4-2.6-9.3,0s-8.3,3.5-12.8,3.8s-5.8-2.9-7.7,0s-0.3,4.2-4.8,4.2s-4.5-1.6-8.6,0
					s-10.6,2.6-10.6,2.6L172.6,305.1z"/>
				<path class="st169" d="M153,321.9c0,0-0.5-4,4.5-3.6s11.6-3.5,11.6-3.5s-2.9,9.2-3.8,14c-0.9,4.8-2.6,10.5-2.6,10.5
					s-1.9-1.3-5.2-1.4c-3.3-0.1-5.6-0.8-5.5-2.5S153,321.9,153,321.9z"/>
			</g>
		</g>
	</g>
</g>
</svg>
