<?xml version="1.0" encoding="utf-8"?>
<!-- Generator: Adobe Illustrator 23.0.6, SVG Export Plug-In . SVG Version: 6.00 Build 0)  -->
<svg version="1.1" id="Capa_1" xmlns="http://www.w3.org/2000/svg" xmlns:xlink="http://www.w3.org/1999/xlink" x="0px" y="0px"
	 viewBox="0 0 618.4 569.2" style="enable-background:new 0 0 618.4 569.2;" xml:space="preserve">
<style type="text/css">
	.st0{clip-path:url(#SVGID_2_);}
	.st1{clip-path:url(#SVGID_4_);}
	.st2{fill:#954524;}
	.st3{fill:#A5756A;}
	.st4{fill:#592718;}
	.st5{fill:#441A11;}
	.st6{fill:#280E09;}
	.st7{opacity:0.89;clip-path:url(#SVGID_6_);}
	.st8{fill:#DD7F2A;}
	.st9{fill:#F4F3F2;}
	.st10{fill:#BA3C0F;}
	.st11{clip-path:url(#SVGID_8_);fill:#BC967D;}
	.st12{clip-path:url(#SVGID_10_);fill:#BC967D;}
	.st13{clip-path:url(#SVGID_12_);fill:#D1A288;}
	.st14{clip-path:url(#SVGID_14_);fill:url(#SVGID_15_);}
	.st15{clip-path:url(#SVGID_17_);fill:#A0918B;}
	.st16{clip-path:url(#SVGID_19_);fill:#BFB1AC;}
	.st17{clip-path:url(#SVGID_21_);fill:#BFB1AC;}
	.st18{clip-path:url(#SVGID_23_);fill:#E8E8E8;}
	.st19{clip-path:url(#SVGID_25_);fill:#DAE5EF;}
	.st20{clip-path:url(#SVGID_27_);fill:#DAE5EF;}
	.st21{clip-path:url(#SVGID_29_);}
	.st22{fill:#867971;}
	.st23{fill:none;stroke:#565351;stroke-width:2;stroke-miterlimit:10;}
	.st24{fill:#FFFFFF;}
	.st25{fill:#635852;}
	.st26{fill:#0097FE;}
	.st27{fill:none;stroke:#635852;stroke-width:2;stroke-miterlimit:10;}
	.st28{fill:#965636;}
	.st29{fill:none;stroke:#563A2E;stroke-width:7;stroke-miterlimit:10;}
	.st30{fill:none;stroke:#563A2E;stroke-width:2;stroke-miterlimit:10;}
	.st31{fill:#705C54;}
	.st32{fill:#847067;}
	.st33{fill:none;stroke:#705C54;stroke-width:3;stroke-miterlimit:10;}
	.st34{fill:none;stroke:#705C54;stroke-width:6;stroke-miterlimit:10;}
	.st35{fill:none;stroke:#6D3E2B;stroke-miterlimit:10;}
	.st36{fill:#563A2E;}
	.st37{clip-path:url(#SVGID_31_);}
	.st38{fill-rule:evenodd;clip-rule:evenodd;fill:#998675;}
	.st39{fill-rule:evenodd;clip-rule:evenodd;fill:#978474;}
	.st40{fill-rule:evenodd;clip-rule:evenodd;fill:#958372;}
	.st41{fill-rule:evenodd;clip-rule:evenodd;fill:#948171;}
	.st42{fill-rule:evenodd;clip-rule:evenodd;fill:#927F6F;}
	.st43{fill-rule:evenodd;clip-rule:evenodd;fill:#907E6E;}
	.st44{fill-rule:evenodd;clip-rule:evenodd;fill:#8E7C6C;}
	.st45{fill-rule:evenodd;clip-rule:evenodd;fill:#8C7A6B;}
	.st46{fill-rule:evenodd;clip-rule:evenodd;fill:#8B796A;}
	.st47{fill-rule:evenodd;clip-rule:evenodd;fill:#897768;}
	.st48{fill-rule:evenodd;clip-rule:evenodd;fill:#877567;}
	.st49{fill-rule:evenodd;clip-rule:evenodd;fill:#857465;}
	.st50{fill-rule:evenodd;clip-rule:evenodd;fill:#837264;}
	.st51{fill-rule:evenodd;clip-rule:evenodd;fill:#817062;}
	.st52{fill-rule:evenodd;clip-rule:evenodd;fill:#806F61;}
	.st53{fill-rule:evenodd;clip-rule:evenodd;fill:#7E6D60;}
	.st54{fill-rule:evenodd;clip-rule:evenodd;fill:#7C6B5E;}
	.st55{fill-rule:evenodd;clip-rule:evenodd;fill:#7A6A5D;}
	.st56{fill-rule:evenodd;clip-rule:evenodd;fill:#78685B;}
	.st57{fill-rule:evenodd;clip-rule:evenodd;fill:#77665A;}
	.st58{fill-rule:evenodd;clip-rule:evenodd;fill:#756558;}
	.st59{fill-rule:evenodd;clip-rule:evenodd;fill:#736357;}
	.st60{fill-rule:evenodd;clip-rule:evenodd;fill:url(#SVGID_32_);}
	.st61{fill-rule:evenodd;clip-rule:evenodd;fill:url(#SVGID_33_);}
	.st62{fill-rule:evenodd;clip-rule:evenodd;fill:url(#SVGID_34_);}
	.st63{fill-rule:evenodd;clip-rule:evenodd;fill:url(#SVGID_35_);}
	.st64{fill-rule:evenodd;clip-rule:evenodd;fill:url(#SVGID_36_);}
	.st65{fill-rule:evenodd;clip-rule:evenodd;fill:url(#SVGID_37_);}
	.st66{fill-rule:evenodd;clip-rule:evenodd;fill:url(#SVGID_38_);}
	.st67{fill-rule:evenodd;clip-rule:evenodd;fill:url(#SVGID_39_);}
	.st68{fill-rule:evenodd;clip-rule:evenodd;fill:url(#SVGID_40_);}
	.st69{fill-rule:evenodd;clip-rule:evenodd;fill:url(#SVGID_41_);}
	.st70{fill-rule:evenodd;clip-rule:evenodd;fill:url(#SVGID_42_);}
	.st71{fill-rule:evenodd;clip-rule:evenodd;fill:url(#SVGID_43_);}
	.st72{opacity:0.52;}
	.st73{fill-rule:evenodd;clip-rule:evenodd;fill:url(#SVGID_44_);}
	.st74{fill-rule:evenodd;clip-rule:evenodd;fill:url(#SVGID_45_);}
	.st75{fill-rule:evenodd;clip-rule:evenodd;fill:url(#SVGID_46_);}
	.st76{fill-rule:evenodd;clip-rule:evenodd;fill:url(#SVGID_47_);}
	.st77{fill-rule:evenodd;clip-rule:evenodd;fill:url(#SVGID_48_);}
	.st78{fill-rule:evenodd;clip-rule:evenodd;fill:url(#SVGID_49_);}
	.st79{fill-rule:evenodd;clip-rule:evenodd;fill:url(#SVGID_50_);}
	.st80{fill-rule:evenodd;clip-rule:evenodd;fill:url(#SVGID_51_);}
	.st81{fill-rule:evenodd;clip-rule:evenodd;fill:url(#SVGID_52_);}
	.st82{fill-rule:evenodd;clip-rule:evenodd;fill:url(#SVGID_53_);}
	.st83{fill-rule:evenodd;clip-rule:evenodd;fill:url(#SVGID_54_);}
	.st84{fill-rule:evenodd;clip-rule:evenodd;fill:url(#SVGID_55_);}
	.st85{fill-rule:evenodd;clip-rule:evenodd;fill:url(#SVGID_56_);}
	.st86{fill-rule:evenodd;clip-rule:evenodd;fill:url(#SVGID_57_);}
	.st87{fill-rule:evenodd;clip-rule:evenodd;fill:url(#SVGID_58_);}
	.st88{fill-rule:evenodd;clip-rule:evenodd;fill:url(#SVGID_59_);}
	.st89{fill-rule:evenodd;clip-rule:evenodd;fill:url(#SVGID_60_);}
	.st90{fill-rule:evenodd;clip-rule:evenodd;fill:url(#SVGID_61_);}
	.st91{fill-rule:evenodd;clip-rule:evenodd;fill:url(#SVGID_62_);}
	.st92{fill-rule:evenodd;clip-rule:evenodd;fill:url(#SVGID_63_);}
	.st93{fill-rule:evenodd;clip-rule:evenodd;fill:url(#SVGID_64_);}
	.st94{fill-rule:evenodd;clip-rule:evenodd;fill:url(#SVGID_65_);}
	.st95{fill-rule:evenodd;clip-rule:evenodd;fill:url(#SVGID_66_);}
	.st96{fill-rule:evenodd;clip-rule:evenodd;fill:url(#SVGID_67_);}
	.st97{fill-rule:evenodd;clip-rule:evenodd;fill:url(#SVGID_68_);}
	.st98{fill-rule:evenodd;clip-rule:evenodd;fill:url(#SVGID_69_);}
	.st99{fill-rule:evenodd;clip-rule:evenodd;fill:url(#SVGID_70_);}
	.st100{fill-rule:evenodd;clip-rule:evenodd;fill:url(#SVGID_71_);}
	.st101{fill-rule:evenodd;clip-rule:evenodd;fill:url(#SVGID_72_);}
	.st102{fill-rule:evenodd;clip-rule:evenodd;fill:url(#SVGID_73_);}
	.st103{fill-rule:evenodd;clip-rule:evenodd;fill:url(#SVGID_74_);}
	.st104{fill-rule:evenodd;clip-rule:evenodd;fill:url(#SVGID_75_);}
	.st105{fill-rule:evenodd;clip-rule:evenodd;fill:url(#SVGID_76_);}
	.st106{fill-rule:evenodd;clip-rule:evenodd;fill:url(#SVGID_77_);}
	.st107{fill-rule:evenodd;clip-rule:evenodd;fill:url(#SVGID_78_);}
	.st108{fill-rule:evenodd;clip-rule:evenodd;fill:url(#SVGID_79_);}
	.st109{fill-rule:evenodd;clip-rule:evenodd;fill:url(#SVGID_80_);}
	.st110{fill-rule:evenodd;clip-rule:evenodd;fill:url(#SVGID_81_);}
	.st111{fill-rule:evenodd;clip-rule:evenodd;fill:url(#SVGID_82_);}
	.st112{fill-rule:evenodd;clip-rule:evenodd;fill:url(#SVGID_83_);}
	.st113{fill-rule:evenodd;clip-rule:evenodd;fill:url(#SVGID_84_);}
	.st114{fill-rule:evenodd;clip-rule:evenodd;fill:url(#SVGID_85_);}
	.st115{fill-rule:evenodd;clip-rule:evenodd;fill:url(#SVGID_86_);}
	.st116{fill-rule:evenodd;clip-rule:evenodd;fill:url(#SVGID_87_);}
	.st117{fill-rule:evenodd;clip-rule:evenodd;fill:url(#SVGID_88_);}
	.st118{fill-rule:evenodd;clip-rule:evenodd;fill:url(#SVGID_89_);}
	.st119{fill-rule:evenodd;clip-rule:evenodd;fill:url(#SVGID_90_);}
	.st120{fill-rule:evenodd;clip-rule:evenodd;fill:url(#SVGID_91_);}
	.st121{fill-rule:evenodd;clip-rule:evenodd;fill:url(#SVGID_92_);}
	.st122{fill-rule:evenodd;clip-rule:evenodd;fill:url(#SVGID_93_);}
	.st123{fill-rule:evenodd;clip-rule:evenodd;fill:url(#SVGID_94_);}
	.st124{fill-rule:evenodd;clip-rule:evenodd;fill:url(#SVGID_95_);}
	.st125{clip-path:url(#SVGID_97_);}
	.st126{fill:url(#SVGID_98_);}
	.st127{fill:#6CD0F5;}
	.st128{fill:#69B8D4;}
	.st129{fill:none;}
	.st130{fill:#E8F7F6;}
	.st131{fill:#DFEFEE;}
	.st132{fill:#E3BB7C;}
	.st133{fill:#D3A56A;}
	.st134{fill:#F2F0ED;}
	.st135{fill:#DDD9D4;}
	.st136{fill:#644930;}
	.st137{fill:#C39669;}
	.st138{fill:#A87441;}
	.st139{fill:#555A4C;}
	.st140{fill:#49321F;}
	.st141{fill:#4A3729;}
	.st142{fill:#755A48;}
	.st143{fill:#865932;}
	.st144{fill:none;stroke:#C1916C;stroke-width:4;stroke-miterlimit:10;}
	.st145{fill:none;stroke:#F9F9F9;stroke-miterlimit:10;}
	.st146{fill:#E8E8E8;}
	.st147{clip-path:url(#SVGID_100_);}
	.st148{fill:url(#SVGID_101_);}
	.st149{fill:#8E8684;}
	.st150{fill:#6C5A46;}
	.st151{opacity:0.47;}
	.st152{fill:#AD9279;}
	.st153{fill:#382F27;}
	.st154{fill:#937A65;}
	.st155{fill:#514336;}
	.st156{fill:none;stroke:#514336;stroke-width:3;stroke-miterlimit:10;}
	.st157{fill:#5E4F3F;}
	.st158{fill:#846C57;}
	.st159{fill:#6E9967;}
	.st160{fill:#42913E;}
	.st161{fill:#6AAA60;}
	.st162{fill:#65A544;}
	.st163{fill:#777271;}
	.st164{fill:#5A8E3C;}
	.st165{fill:none;stroke:#545450;stroke-width:4;stroke-miterlimit:10;}
	.st166{fill:none;stroke:#545450;stroke-width:5;stroke-miterlimit:10;}
	.st167{fill:none;stroke:#545450;stroke-width:6;stroke-miterlimit:10;}
	.st168{fill:none;stroke:#545450;stroke-width:8;stroke-miterlimit:10;}
	.st169{fill:#44372C;}
	.st170{clip-path:url(#SVGID_103_);}
	.st171{clip-path:url(#SVGID_105_);}
	.st172{fill:url(#SVGID_106_);}
	.st173{fill:#66A8DA;}
	.st174{fill:#E2994C;}
	.st175{fill:#7F7E7C;}
	.st176{fill:#A8A59D;}
	.st177{fill:#7A8F35;}
	.st178{fill:#5E6B26;}
	.st179{fill:#D6D1CC;}
	.st180{fill:#AF947B;}
	.st181{fill:none;stroke:#AF947B;stroke-width:3;stroke-miterlimit:10;}
	.st182{fill:#EDECE8;}
	.st183{fill:#C6BDA8;}
	.st184{fill:none;stroke:#FFFFFF;stroke-width:3;stroke-miterlimit:10;}
	.st185{fill-rule:evenodd;clip-rule:evenodd;fill:#2B6DAF;}
	.st186{fill:none;stroke:#AAA69B;stroke-width:4;stroke-miterlimit:10;}
	.st187{fill-rule:evenodd;clip-rule:evenodd;fill:url(#SVGID_107_);}
	.st188{fill-rule:evenodd;clip-rule:evenodd;fill:url(#SVGID_108_);}
	.st189{fill-rule:evenodd;clip-rule:evenodd;fill:url(#SVGID_109_);}
	.st190{fill-rule:evenodd;clip-rule:evenodd;fill:url(#SVGID_110_);}
	.st191{fill-rule:evenodd;clip-rule:evenodd;fill:url(#SVGID_111_);}
	.st192{fill-rule:evenodd;clip-rule:evenodd;fill:url(#SVGID_112_);}
	.st193{fill-rule:evenodd;clip-rule:evenodd;fill:url(#SVGID_113_);}
	.st194{fill-rule:evenodd;clip-rule:evenodd;fill:url(#SVGID_114_);}
	.st195{fill-rule:evenodd;clip-rule:evenodd;fill:url(#SVGID_115_);}
	.st196{fill-rule:evenodd;clip-rule:evenodd;fill:url(#SVGID_116_);}
	.st197{fill-rule:evenodd;clip-rule:evenodd;fill:url(#SVGID_117_);}
	.st198{fill-rule:evenodd;clip-rule:evenodd;fill:url(#SVGID_118_);}
	.st199{fill-rule:evenodd;clip-rule:evenodd;fill:url(#SVGID_119_);}
	.st200{fill-rule:evenodd;clip-rule:evenodd;fill:url(#SVGID_120_);}
	.st201{fill-rule:evenodd;clip-rule:evenodd;fill:url(#SVGID_121_);}
	.st202{fill-rule:evenodd;clip-rule:evenodd;fill:url(#SVGID_122_);}
	.st203{fill-rule:evenodd;clip-rule:evenodd;fill:url(#SVGID_123_);}
	.st204{fill-rule:evenodd;clip-rule:evenodd;fill:url(#SVGID_124_);}
	.st205{fill-rule:evenodd;clip-rule:evenodd;fill:url(#SVGID_125_);}
	.st206{fill-rule:evenodd;clip-rule:evenodd;fill:url(#SVGID_126_);}
	.st207{fill-rule:evenodd;clip-rule:evenodd;fill:url(#SVGID_127_);}
	.st208{fill-rule:evenodd;clip-rule:evenodd;fill:url(#SVGID_128_);}
	.st209{fill-rule:evenodd;clip-rule:evenodd;fill:url(#SVGID_129_);}
	.st210{fill-rule:evenodd;clip-rule:evenodd;fill:url(#SVGID_130_);}
	.st211{fill-rule:evenodd;clip-rule:evenodd;fill:url(#SVGID_131_);}
	.st212{fill-rule:evenodd;clip-rule:evenodd;fill:url(#SVGID_132_);}
	.st213{fill-rule:evenodd;clip-rule:evenodd;fill:url(#SVGID_133_);}
	.st214{fill-rule:evenodd;clip-rule:evenodd;fill:url(#SVGID_134_);}
	.st215{fill-rule:evenodd;clip-rule:evenodd;fill:url(#SVGID_135_);}
	.st216{fill-rule:evenodd;clip-rule:evenodd;fill:url(#SVGID_136_);}
	.st217{fill-rule:evenodd;clip-rule:evenodd;fill:url(#SVGID_137_);}
	.st218{fill-rule:evenodd;clip-rule:evenodd;fill:url(#SVGID_138_);}
	.st219{fill-rule:evenodd;clip-rule:evenodd;fill:url(#SVGID_139_);}
	.st220{fill-rule:evenodd;clip-rule:evenodd;fill:url(#SVGID_140_);}
	.st221{fill-rule:evenodd;clip-rule:evenodd;fill:url(#SVGID_141_);}
	.st222{fill-rule:evenodd;clip-rule:evenodd;fill:url(#SVGID_142_);}
	.st223{fill-rule:evenodd;clip-rule:evenodd;fill:url(#SVGID_143_);}
	.st224{fill-rule:evenodd;clip-rule:evenodd;fill:url(#SVGID_144_);}
	.st225{fill-rule:evenodd;clip-rule:evenodd;fill:url(#SVGID_145_);}
	.st226{fill-rule:evenodd;clip-rule:evenodd;fill:url(#SVGID_146_);}
	.st227{fill-rule:evenodd;clip-rule:evenodd;fill:url(#SVGID_147_);}
	.st228{fill-rule:evenodd;clip-rule:evenodd;fill:url(#SVGID_148_);}
	.st229{fill-rule:evenodd;clip-rule:evenodd;fill:url(#SVGID_149_);}
	.st230{fill-rule:evenodd;clip-rule:evenodd;fill:url(#SVGID_150_);}
	.st231{fill-rule:evenodd;clip-rule:evenodd;fill:url(#SVGID_151_);}
	.st232{fill-rule:evenodd;clip-rule:evenodd;fill:url(#SVGID_152_);}
	.st233{fill-rule:evenodd;clip-rule:evenodd;fill:url(#SVGID_153_);}
	.st234{fill-rule:evenodd;clip-rule:evenodd;fill:url(#SVGID_154_);}
	.st235{fill-rule:evenodd;clip-rule:evenodd;fill:url(#SVGID_155_);}
	.st236{fill-rule:evenodd;clip-rule:evenodd;fill:url(#SVGID_156_);}
	.st237{fill-rule:evenodd;clip-rule:evenodd;fill:url(#SVGID_157_);}
	.st238{fill-rule:evenodd;clip-rule:evenodd;fill:url(#SVGID_158_);}
	.st239{fill-rule:evenodd;clip-rule:evenodd;fill:url(#SVGID_159_);}
	.st240{fill-rule:evenodd;clip-rule:evenodd;fill:url(#SVGID_160_);}
	.st241{fill-rule:evenodd;clip-rule:evenodd;fill:url(#SVGID_161_);}
	.st242{fill-rule:evenodd;clip-rule:evenodd;fill:url(#SVGID_162_);}
	.st243{fill-rule:evenodd;clip-rule:evenodd;fill:url(#SVGID_163_);}
	.st244{fill-rule:evenodd;clip-rule:evenodd;fill:url(#SVGID_164_);}
	.st245{fill-rule:evenodd;clip-rule:evenodd;fill:url(#SVGID_165_);}
	.st246{fill-rule:evenodd;clip-rule:evenodd;fill:url(#SVGID_166_);}
	.st247{fill-rule:evenodd;clip-rule:evenodd;fill:url(#SVGID_167_);}
	.st248{fill-rule:evenodd;clip-rule:evenodd;fill:url(#SVGID_168_);}
	.st249{fill-rule:evenodd;clip-rule:evenodd;fill:url(#SVGID_169_);}
	.st250{fill-rule:evenodd;clip-rule:evenodd;fill:url(#SVGID_170_);}
	.st251{fill-rule:evenodd;clip-rule:evenodd;fill:url(#SVGID_171_);}
	.st252{fill-rule:evenodd;clip-rule:evenodd;fill:url(#SVGID_172_);}
	.st253{fill-rule:evenodd;clip-rule:evenodd;fill:url(#SVGID_173_);}
	.st254{fill-rule:evenodd;clip-rule:evenodd;fill:url(#SVGID_174_);}
	.st255{fill-rule:evenodd;clip-rule:evenodd;fill:url(#SVGID_175_);}
	.st256{fill-rule:evenodd;clip-rule:evenodd;fill:url(#SVGID_176_);}
	.st257{fill-rule:evenodd;clip-rule:evenodd;fill:url(#SVGID_177_);}
	.st258{fill-rule:evenodd;clip-rule:evenodd;fill:url(#SVGID_178_);}
	.st259{fill-rule:evenodd;clip-rule:evenodd;fill:url(#SVGID_179_);}
	.st260{fill-rule:evenodd;clip-rule:evenodd;fill:url(#SVGID_180_);}
	.st261{fill-rule:evenodd;clip-rule:evenodd;fill:url(#SVGID_181_);}
	.st262{fill-rule:evenodd;clip-rule:evenodd;fill:url(#SVGID_182_);}
	.st263{fill-rule:evenodd;clip-rule:evenodd;fill:url(#SVGID_183_);}
	.st264{fill-rule:evenodd;clip-rule:evenodd;fill:url(#SVGID_184_);}
	.st265{fill-rule:evenodd;clip-rule:evenodd;fill:url(#SVGID_185_);}
	.st266{fill-rule:evenodd;clip-rule:evenodd;fill:url(#SVGID_186_);}
	.st267{fill-rule:evenodd;clip-rule:evenodd;fill:url(#SVGID_187_);}
	.st268{fill-rule:evenodd;clip-rule:evenodd;fill:url(#SVGID_188_);}
	.st269{fill-rule:evenodd;clip-rule:evenodd;fill:url(#SVGID_189_);}
	.st270{fill-rule:evenodd;clip-rule:evenodd;fill:url(#SVGID_190_);}
	.st271{fill-rule:evenodd;clip-rule:evenodd;fill:url(#SVGID_191_);}
	.st272{fill-rule:evenodd;clip-rule:evenodd;fill:url(#SVGID_192_);}
	.st273{fill-rule:evenodd;clip-rule:evenodd;fill:url(#SVGID_193_);}
	.st274{fill-rule:evenodd;clip-rule:evenodd;fill:url(#SVGID_194_);}
	.st275{fill-rule:evenodd;clip-rule:evenodd;fill:url(#SVGID_195_);}
	.st276{fill-rule:evenodd;clip-rule:evenodd;fill:url(#SVGID_196_);}
	.st277{fill-rule:evenodd;clip-rule:evenodd;fill:url(#SVGID_197_);}
	.st278{fill-rule:evenodd;clip-rule:evenodd;fill:url(#SVGID_198_);}
	.st279{fill-rule:evenodd;clip-rule:evenodd;fill:url(#SVGID_199_);}
	.st280{fill-rule:evenodd;clip-rule:evenodd;fill:url(#SVGID_200_);}
	.st281{fill-rule:evenodd;clip-rule:evenodd;fill:url(#SVGID_201_);}
	.st282{fill-rule:evenodd;clip-rule:evenodd;fill:url(#SVGID_202_);}
	.st283{fill-rule:evenodd;clip-rule:evenodd;fill:url(#SVGID_203_);}
	.st284{fill-rule:evenodd;clip-rule:evenodd;fill:url(#SVGID_204_);}
	.st285{fill-rule:evenodd;clip-rule:evenodd;fill:url(#SVGID_205_);}
	.st286{fill-rule:evenodd;clip-rule:evenodd;fill:url(#SVGID_206_);}
	.st287{fill-rule:evenodd;clip-rule:evenodd;fill:url(#SVGID_207_);}
	.st288{fill-rule:evenodd;clip-rule:evenodd;fill:url(#SVGID_208_);}
	.st289{fill-rule:evenodd;clip-rule:evenodd;fill:url(#SVGID_209_);}
	.st290{fill-rule:evenodd;clip-rule:evenodd;fill:url(#SVGID_210_);}
	.st291{fill-rule:evenodd;clip-rule:evenodd;fill:url(#SVGID_211_);}
	.st292{fill-rule:evenodd;clip-rule:evenodd;fill:url(#SVGID_212_);}
	.st293{fill-rule:evenodd;clip-rule:evenodd;fill:url(#SVGID_213_);}
	.st294{fill-rule:evenodd;clip-rule:evenodd;fill:url(#SVGID_214_);}
	.st295{fill-rule:evenodd;clip-rule:evenodd;fill:url(#SVGID_215_);}
	.st296{fill-rule:evenodd;clip-rule:evenodd;fill:url(#SVGID_216_);}
	.st297{fill-rule:evenodd;clip-rule:evenodd;fill:url(#SVGID_217_);}
	.st298{fill-rule:evenodd;clip-rule:evenodd;fill:url(#SVGID_218_);}
	.st299{fill-rule:evenodd;clip-rule:evenodd;fill:url(#SVGID_219_);}
	.st300{fill-rule:evenodd;clip-rule:evenodd;fill:url(#SVGID_220_);}
	.st301{fill-rule:evenodd;clip-rule:evenodd;fill:url(#SVGID_221_);}
	.st302{fill-rule:evenodd;clip-rule:evenodd;fill:url(#SVGID_222_);}
	.st303{fill-rule:evenodd;clip-rule:evenodd;fill:url(#SVGID_223_);}
	.st304{fill-rule:evenodd;clip-rule:evenodd;fill:url(#SVGID_224_);}
	.st305{fill-rule:evenodd;clip-rule:evenodd;fill:url(#SVGID_225_);}
	.st306{fill-rule:evenodd;clip-rule:evenodd;fill:url(#SVGID_226_);}
	.st307{fill-rule:evenodd;clip-rule:evenodd;fill:url(#SVGID_227_);}
	.st308{fill-rule:evenodd;clip-rule:evenodd;fill:url(#SVGID_228_);}
	.st309{fill-rule:evenodd;clip-rule:evenodd;fill:url(#SVGID_229_);}
	.st310{fill-rule:evenodd;clip-rule:evenodd;fill:url(#SVGID_230_);}
	.st311{fill-rule:evenodd;clip-rule:evenodd;fill:url(#SVGID_231_);}
	.st312{fill-rule:evenodd;clip-rule:evenodd;fill:url(#SVGID_232_);}
	.st313{fill-rule:evenodd;clip-rule:evenodd;fill:url(#SVGID_233_);}
	.st314{fill-rule:evenodd;clip-rule:evenodd;fill:url(#SVGID_234_);}
	.st315{fill-rule:evenodd;clip-rule:evenodd;fill:url(#SVGID_235_);}
	.st316{fill-rule:evenodd;clip-rule:evenodd;fill:url(#SVGID_236_);}
	.st317{fill-rule:evenodd;clip-rule:evenodd;fill:url(#SVGID_237_);}
	.st318{fill-rule:evenodd;clip-rule:evenodd;fill:url(#SVGID_238_);}
	.st319{fill-rule:evenodd;clip-rule:evenodd;fill:url(#SVGID_239_);}
	.st320{fill-rule:evenodd;clip-rule:evenodd;fill:url(#SVGID_240_);}
	.st321{fill-rule:evenodd;clip-rule:evenodd;fill:url(#SVGID_241_);}
	.st322{fill-rule:evenodd;clip-rule:evenodd;fill:url(#SVGID_242_);}
	.st323{fill-rule:evenodd;clip-rule:evenodd;fill:url(#SVGID_243_);}
	.st324{fill-rule:evenodd;clip-rule:evenodd;fill:url(#SVGID_244_);}
	.st325{fill-rule:evenodd;clip-rule:evenodd;fill:url(#SVGID_245_);}
	.st326{fill-rule:evenodd;clip-rule:evenodd;fill:url(#SVGID_246_);}
	.st327{fill-rule:evenodd;clip-rule:evenodd;fill:url(#SVGID_247_);}
	.st328{fill-rule:evenodd;clip-rule:evenodd;fill:url(#SVGID_248_);}
	.st329{fill-rule:evenodd;clip-rule:evenodd;fill:url(#SVGID_249_);}
	.st330{fill-rule:evenodd;clip-rule:evenodd;fill:url(#SVGID_250_);}
	.st331{fill-rule:evenodd;clip-rule:evenodd;fill:url(#SVGID_251_);}
	.st332{fill-rule:evenodd;clip-rule:evenodd;fill:url(#SVGID_252_);}
	.st333{fill-rule:evenodd;clip-rule:evenodd;fill:url(#SVGID_253_);}
	.st334{fill-rule:evenodd;clip-rule:evenodd;fill:url(#SVGID_254_);}
	.st335{fill-rule:evenodd;clip-rule:evenodd;fill:url(#SVGID_255_);}
	.st336{fill-rule:evenodd;clip-rule:evenodd;fill:url(#SVGID_256_);}
	.st337{fill-rule:evenodd;clip-rule:evenodd;fill:url(#SVGID_257_);}
	.st338{fill-rule:evenodd;clip-rule:evenodd;fill:url(#SVGID_258_);}
	.st339{fill-rule:evenodd;clip-rule:evenodd;fill:url(#SVGID_259_);}
	.st340{fill-rule:evenodd;clip-rule:evenodd;fill:url(#SVGID_260_);}
	.st341{fill-rule:evenodd;clip-rule:evenodd;fill:url(#SVGID_261_);}
	.st342{fill-rule:evenodd;clip-rule:evenodd;fill:url(#SVGID_262_);}
	.st343{fill-rule:evenodd;clip-rule:evenodd;fill:url(#SVGID_263_);}
	.st344{fill-rule:evenodd;clip-rule:evenodd;fill:url(#SVGID_264_);}
	.st345{fill-rule:evenodd;clip-rule:evenodd;fill:url(#SVGID_265_);}
	.st346{fill-rule:evenodd;clip-rule:evenodd;fill:url(#SVGID_266_);}
	.st347{fill-rule:evenodd;clip-rule:evenodd;fill:url(#SVGID_267_);}
	.st348{fill-rule:evenodd;clip-rule:evenodd;fill:url(#SVGID_268_);}
	.st349{fill-rule:evenodd;clip-rule:evenodd;fill:url(#SVGID_269_);}
	.st350{fill-rule:evenodd;clip-rule:evenodd;fill:url(#SVGID_270_);}
	.st351{fill-rule:evenodd;clip-rule:evenodd;fill:url(#SVGID_271_);}
	.st352{fill-rule:evenodd;clip-rule:evenodd;fill:url(#SVGID_272_);}
	.st353{fill-rule:evenodd;clip-rule:evenodd;fill:url(#SVGID_273_);}
	.st354{fill-rule:evenodd;clip-rule:evenodd;fill:url(#SVGID_274_);}
	.st355{fill-rule:evenodd;clip-rule:evenodd;fill:url(#SVGID_275_);}
	.st356{fill-rule:evenodd;clip-rule:evenodd;fill:url(#SVGID_276_);}
	.st357{fill-rule:evenodd;clip-rule:evenodd;fill:url(#SVGID_277_);}
	.st358{fill-rule:evenodd;clip-rule:evenodd;fill:url(#SVGID_278_);}
	.st359{fill-rule:evenodd;clip-rule:evenodd;fill:url(#SVGID_279_);}
	.st360{fill-rule:evenodd;clip-rule:evenodd;fill:url(#SVGID_280_);}
	.st361{fill-rule:evenodd;clip-rule:evenodd;fill:url(#SVGID_281_);}
	.st362{fill-rule:evenodd;clip-rule:evenodd;fill:url(#SVGID_282_);}
	.st363{fill-rule:evenodd;clip-rule:evenodd;fill:url(#SVGID_283_);}
	.st364{fill-rule:evenodd;clip-rule:evenodd;fill:url(#SVGID_284_);}
	.st365{fill-rule:evenodd;clip-rule:evenodd;fill:url(#SVGID_285_);}
	.st366{fill-rule:evenodd;clip-rule:evenodd;fill:url(#SVGID_286_);}
	.st367{fill-rule:evenodd;clip-rule:evenodd;fill:url(#SVGID_287_);}
	.st368{fill-rule:evenodd;clip-rule:evenodd;fill:url(#SVGID_288_);}
	.st369{fill-rule:evenodd;clip-rule:evenodd;fill:url(#SVGID_289_);}
	.st370{fill-rule:evenodd;clip-rule:evenodd;fill:url(#SVGID_290_);}
	.st371{fill-rule:evenodd;clip-rule:evenodd;fill:url(#SVGID_291_);}
	.st372{fill-rule:evenodd;clip-rule:evenodd;fill:url(#SVGID_292_);}
	.st373{fill-rule:evenodd;clip-rule:evenodd;fill:url(#SVGID_293_);}
	.st374{fill-rule:evenodd;clip-rule:evenodd;fill:url(#SVGID_294_);}
	.st375{fill-rule:evenodd;clip-rule:evenodd;fill:url(#SVGID_295_);}
	.st376{fill-rule:evenodd;clip-rule:evenodd;fill:url(#SVGID_296_);}
	.st377{fill-rule:evenodd;clip-rule:evenodd;fill:url(#SVGID_297_);}
	.st378{fill-rule:evenodd;clip-rule:evenodd;fill:url(#SVGID_298_);}
	.st379{fill:#A8EBFA;}
	.st380{fill:#7ED8F6;}
	.st381{fill:#DAE5EF;}
	.st382{clip-path:url(#SVGID_300_);}
	.st383{fill:url(#SVGID_301_);}
	.st384{fill:#2B2524;}
	.st385{fill:#141212;}
	.st386{fill:#C0A47F;}
	.st387{fill:#3A3D4E;}
	.st388{fill:#435628;}
	.st389{fill:#293515;}
	.st390{fill:#F5855D;}
	.st391{fill:#BCA899;}
	.st392{fill:#998473;}
	.st393{fill:#65A844;}
	.st394{fill:#93793D;}
	.st395{fill:#5C9340;}
	.st396{clip-path:url(#SVGID_303_);fill:url(#SVGID_304_);}
	.st397{clip-path:url(#SVGID_306_);fill:#E8E8E8;}
	.st398{clip-path:url(#SVGID_308_);fill:#E8E8E8;}
	.st399{clip-path:url(#SVGID_312_);}
	.st400{fill:#CEA484;}
	.st401{fill:#E2B893;}
	.st402{fill:#B2835B;}
	.st403{fill:none;stroke:#9B683E;stroke-width:2;stroke-miterlimit:10;}
	.st404{clip-path:url(#SVGID_314_);}
	.st405{fill:#AF8275;}
	.st406{fill:#7C4E40;}
	.st407{clip-path:url(#SVGID_316_);}
	.st408{fill:#595759;}
	.st409{fill:#5584B0;}
	.st410{fill:url(#SVGID_317_);}
	.st411{fill:#FCFCFC;}
	.st412{opacity:0.5;fill:#A4D3F4;enable-background:new    ;}
	.st413{fill:#050505;}
	.st414{opacity:0.69;}
	.st415{clip-path:url(#SVGID_319_);}
	.st416{fill:url(#SVGID_320_);}
	.st417{clip-path:url(#SVGID_322_);}
	.st418{fill:#5C993C;}
	.st419{fill:#88C663;}
	.st420{fill:#406329;}
	.st421{fill:#B29312;}
	.st422{fill:none;stroke:#913A13;stroke-width:2;stroke-miterlimit:10;}
	.st423{fill:#A50A6A;}
	.st424{fill:#C40072;}
	.st425{clip-path:url(#SVGID_324_);}
	.st426{fill:#98D873;}
</style>
<g>
	<g>
		<defs>
			<path id="SVGID_302_" d="M257.5,6.3C137.9,6.3,41,103.2,41,222.7c0,26.3,4.7,51.5,13.3,74.8l0,0
				c30.5,82.7,109.9,141.6,203.1,141.6c93.2,0,172.7-58.9,203.1-141.6l0,0c8.6-23.3,13.3-48.5,13.3-74.8
				C473.9,103.2,377,6.3,257.5,6.3z"/>
		</defs>
		<clipPath id="SVGID_2_">
			<use xlink:href="#SVGID_302_"  style="overflow:visible;"/>
		</clipPath>
		
			<linearGradient id="SVGID_4_" gradientUnits="userSpaceOnUse" x1="257.4456" y1="2476.459" x2="257.4456" y2="2920.99" gradientTransform="matrix(1 0 0 -1 0 2920.99)">
			<stop  offset="0" style="stop-color:#DAE5EF"/>
			<stop  offset="1" style="stop-color:#6DAFDF"/>
		</linearGradient>
		<rect x="35.2" style="clip-path:url(#SVGID_2_);fill:url(#SVGID_4_);" width="444.5" height="444.5"/>
	</g>
	<g>
		<defs>
			<path id="SVGID_305_" d="M257.5,6.3C137.9,6.3,41,103.2,41,222.7c0,26.3,4.7,51.5,13.3,74.8l0,0
				c30.5,82.7,109.9,141.6,203.1,141.6c93.2,0,172.7-58.9,203.1-141.6l0,0c8.6-23.3,13.3-48.5,13.3-74.8
				C473.9,103.2,377,6.3,257.5,6.3z"/>
		</defs>
		<clipPath id="SVGID_6_">
			<use xlink:href="#SVGID_305_"  style="overflow:visible;"/>
		</clipPath>
		<path style="clip-path:url(#SVGID_6_);fill:#E8E8E8;" d="M176.9,85.7h15.4c0,0.3-0.1,0.7-0.1,1c0,6.9,5.6,12.4,12.4,12.4h74.5
			c6.9,0,12.4-5.6,12.4-12.4s-5.6-12.4-12.4-12.4h-40.3c0-0.3,0.1-0.7,0.1-1c0-6.9-5.6-12.4-12.4-12.4h-49.6
			c-6.9,0-12.4,5.6-12.4,12.4S170.1,85.7,176.9,85.7z"/>
	</g>
	<g>
		<defs>
			<path id="SVGID_307_" d="M257.5,6.3C137.9,6.3,41,103.2,41,222.7c0,26.3,4.7,51.5,13.3,74.8l0,0
				c30.5,82.7,109.9,141.6,203.1,141.6c93.2,0,172.7-58.9,203.1-141.6l0,0c8.6-23.3,13.3-48.5,13.3-74.8
				C473.9,103.2,377,6.3,257.5,6.3z"/>
		</defs>
		<clipPath id="SVGID_8_">
			<use xlink:href="#SVGID_307_"  style="overflow:visible;"/>
		</clipPath>
		<path style="clip-path:url(#SVGID_8_);fill:#E8E8E8;" d="M388.7,9.4c-6.9,0-12.4,5.6-12.4,12.4c0,0.7,0.1,1.3,0.2,1.9h-40.7
			c-6.9,0-12.4,5.6-12.4,12.4s5.6,12.4,12.4,12.4h11c-1.1,1.9-1.8,4.1-1.8,6.4c0,6.9,5.6,12.4,12.4,12.4h122.4v-58L388.7,9.4
			L388.7,9.4z"/>
	</g>
	<g>
		<defs>
			<path id="SVGID_309_" d="M257.5,6.3C137.9,6.3,41,103.2,41,222.7c0,26.3,4.7,51.5,13.3,74.8l0,0
				c30.5,82.7,109.9,141.6,203.1,141.6c93.2,0,172.7-58.9,203.1-141.6l0,0c8.6-23.3,13.3-48.5,13.3-74.8
				C473.9,103.2,377,6.3,257.5,6.3z"/>
		</defs>
		<clipPath id="SVGID_10_">
			<use xlink:href="#SVGID_309_"  style="overflow:visible;"/>
		</clipPath>
	</g>
	<g>
		<defs>
			<path id="SVGID_311_" d="M257.5,6.3C137.9,6.3,41,103.2,41,222.7c0,26.3,4.7,51.5,13.3,74.8l0,0
				c30.5,82.7,109.9,141.6,203.1,141.6c93.2,0,172.7-58.9,203.1-141.6l0,0c8.6-23.3,13.3-48.5,13.3-74.8
				C473.9,103.2,377,6.3,257.5,6.3z"/>
		</defs>
		<clipPath id="SVGID_12_">
			<use xlink:href="#SVGID_311_"  style="overflow:visible;"/>
		</clipPath>
		<g style="clip-path:url(#SVGID_12_);">
			<path class="st137" d="M0,185.6l154.8-23.5c0,0,58.3,26.1,77.4,36.5c19.1,10.4,87.8,8.7,87.8,8.7l129.6-7.8L584.4,183v386.1H12.2
				L0,185.6z"/>
			<path class="st400" d="M576.6,195.5c0,0-247,37.1-260.9,33.6c-13.9-3.5,171.6-3.5,163.5,2.3c-8.1,5.8-35.9,24.4-32.5,30.1
				s223.8-8.1,48.7,17.4s-202.9,47.5-189,52.2c13.9,4.6,192.5,15.1,165.8,22c-26.7,7-313.1,35.9-271.3,40.6
				c41.7,4.6,280.6,0,293.4,0s124.1-17.4,124.1-17.4L576.6,195.5z"/>
			<path class="st401" d="M156.5,162.1c0,0-18.3,0-17.4,18.3s31.3,19.1,31.3,19.1l34.8,3.5l40.9,2.6l-93.1-44.4"/>
			<path class="st402" d="M2.6,331.7c0,0,416.6-80,423.5-85.2s8.7-3.5-89.6-3.5S33.9,235.2,27,233.5c-7-1.7-23.5-4.3-23.5-4.3
				L2.6,331.7z"/>
			<path class="st403" d="M265.8,244.2c0,0,5.8,15.7-7,22c-12.8,6.4-29,11.6-19.7,14.5s30.1,6.4,19.1,8.1s-27.2,4.6-24.4,7
				c2.9,2.3,69.6,6.4,43.5,8.1c-26.1,1.7-81.8,1.2-74.2,5.2c7.5,4.1,59.1,5.2,43.5,8.7s-32.5,5.2-29,10.4s2.9,11-2.3,16.8
				s-20.3,9.3-24.4,12.8c-4.1,3.5,72.5,8.1,48.1,9.9c-24.4,1.7-55.1,4.1-55.7,7c-0.6,2.9,22,13.3,10.4,17.4
				c-11.6,4.1-38.8,7-35.9,14.5c2.9,7.5,43.5,4.1,18,9.9S140,428.6,140,432s-8.1,8.1-5.8,11"/>
			<path class="st403" d="M275.7,243c0,0,4.6,15.7-3.5,23.8s-9.3,13.3-6.4,13.9c2.9,0.6,19.7-2.3,16.2,2.3s-22,10.4-11,11
				s39.4,9.3,34.2,11.6s-47,1.7-40.6,7c6.4,5.2,26.1,7,13.3,8.1s-24.9,7-26.7,8.7s-7.5,4.1-11,12.2c-3.5,8.1-32.5,13.9-13.9,14.5
				s57.4,18.6,43.5,19.1c-13.9,0.6-40.6,3.5-33,5.8c7.5,2.3,44.6,21.5,26.1,22.6c-18.6,1.2-41.7,0-38.8,5.8s37.7,12.8,31.9,15.1
				s-33.6,1.2-36.5,7.5c-2.9,6.4-0.6,14.5,1.2,17.4c1.7,2.9,4.6,11.6,4.6,11.6"/>
			<path class="st403" d="M286.7,243.6c0,0,13.9,23.8,7,24.9c-7,1.2-7.5,7-2.3,8.1s30.1,0.6,18.6,5.8s-16.8,8.7-10.4,8.7
				c6.4,0,15.7,2.9,16.8,8.1c1.2,5.2,2.9,8.7-0.6,10.4s-2.9,7,2.3,7.5c5.2,0.6,23.2-2.3,18,1.2s-51,12.2-49.9,19.1
				c1.2,7,11,6.4,4.1,12.8c-7,6.4-8.1,11-4.6,12.2s46.4,1.7,38.3,8.7c-8.1,7-46.4,9.3-42.3,12.2c4.1,2.9,37.1,15.7,26.1,21.5
				c-11,5.8-26.7,4.6-7.5,10.4c19.1,5.8,24.4,7.5,18.6,11s16.8,20.3,16.8,25.5s13.9,1.2,13.9,1.2"/>
			<path class="st403" d="M301.2,241.9c0,0,14.5,20.3,11.6,22.6s6.4,7,6.4,7s19.1,1.7,11,5.8s-20.9,12.2-12.8,11.6
				c8.1-0.6,27.8,11.6,22.6,13.3c-5.2,1.7-13.9,7-7,7c7,0,26.1,5.2,23.8,6.4s-19.1,3.5-19.7,9.3s-29,4.6-26.7,9.9
				c2.3,5.2,27.2,8.7,22.6,12.2s-12.2,9.3-0.6,11c11.6,1.7,59.7,11,44.6,15.7c-15.1,4.6-60.9,3.5-50.4,9.9s42.9,12.2,33.6,16.8
				s-8.1,8.7-3.5,9.3s45.2,12.8,21.5,8.7s-37.1-9.9-25.5-3.5c11.6,6.4,59.7,14.5,48.1,15.7s-37.7,2.3-16.8,7
				c20.9,4.6,31.3,9.9,26.7,11c-4.6,1.2-12.8,5.2-2.3,5.8s13.9,1.2,13.9,1.2"/>
			<path class="st403" d="M318,244.2c0,0,38.3,16.2,32.5,20.3c-5.8,4.1-1.7,5.8,1.7,7.5c3.5,1.7-2.3,1.7-2.3,6.4
				c0,4.6,16.8,2.9,16.8,7s-23.2,8.7-7.5,11s14.5,8.7,13.3,10.4s34.8,3.5,20.9,8.1c-13.9,4.6-43.5,7.5-26.7,12.2
				c16.8,4.6-4.6,4.1-0.6,9.9c4.1,5.8-8.1,13.9,8.7,19.1s10.4,16.8,27.2,16.2s47.5,9.9,18.6,12.8c-29,2.9-35.9,3.5-24.9,6.4
				s71.9,7.5,40,11.6s-39.4,8.1-21.5,9.9c18,1.7,43.5,11.6,32.5,12.8c-11,1.2-33,8.7-11,9.3s22.6,5.2,16.2,10.4
				c-6.4,5.2,44.1,9.3,44.1,9.3"/>
			<path class="st403" d="M245.5,242.4c0,0-4.6,9.9-23.8,16.8c-19.1,7-42.3,13.9-38.3,14.5c4.1,0.6,47,0,37.1,2.9
				s-44.1,6.4-43.5,9.3s39.4,5.8,23.2,7.5s-40.6,1.7-38.8,5.2s33.6,6.4,15.1,8.7c-18.6,2.3-26.7,8.1-17.4,8.1s31.9-1.2,30.1,1.2
				c-1.7,2.3,12.8,0.6,5.8,6.4s-22.6,4.6-24.9,10.4s29,9.3,15.7,11.6c-13.3,2.3-47,18.6-37.1,20.3c9.9,1.7,31.3,4.1,12.8,5.8
				c-18.6,1.7-60.3,8.1-48.7,11.6s29.6,11,16.2,14.5c-13.3,3.5-8.1,9.9-18,15.1c-9.9,5.2,70.7-2.3,18.6,5.2s-73.1,15.1-64.9,17.4
				s41.7,4.1,23.8,7c-18,2.9-22.6,4.6-22.6,4.6"/>
			<path class="st403" d="M351.1,243c0,0-1.2,11.6,9.3,13.9c10.4,2.3,13.9,9.3,11.6,9.9c-2.3,0.6,7.5,3.5,2.9,7s24.9-1.2,18,4.6
				s-22,11.6-12.8,12.2c9.3,0.6,18,3.5,13.9,7.5c-4.1,4.1,11.6,1.2,13.3,5.8s74.8,2.3,44.6,10.4c-30.1,8.1-51,13.9-41.7,15.1
				c9.3,1.2,20.3,0,14.5,8.1s3.5,13.9,6.4,15.7c2.9,1.7,34.8,0.6,26.1,8.1s1.7,7.5,12.8,11.6s29,11.6,22.6,14.5s4.6,14.5,9.3,15.7
				c4.6,1.2-9.9,1.2-7,5.2s48.7,14.5,48.7,16.8s-15.7,1.2-11.6,8.1c4.1,7,38.8,13.9,38.8,13.9"/>
			<path class="st403" d="M213.1,242.4c0,0-47,26.7-54.5,30.7s11,8.7-2.9,11s-48.7,7.5-40,11s19.1,7,13.3,7.5s-21.5,0-21.5,2.9
				s10.4,11.6-4.1,12.2c-14.5,0.6-22-0.6-21.5,4.6c0.6,5.2,40.6,0,42.9,4.1s-7,14.5-17.4,16.2s-5.8-5.2-15.1,7.5s10.4,19.7,2.9,21.5
				s-27.2,3.5-24.9,4.6s37.1,12.8,18.6,14.5s-35.4,12.8-35.4,12.8s33.6,2.9,22,7.5c-11.6,4.6-48.7,11-48.1,13.9s12.8,2.9,4.1,8.1
				s0,11.6-10.4,14.5S4.3,446,4.3,446"/>
		</g>
	</g>
</g>
</svg>
