<?xml version="1.0" encoding="utf-8"?>
<!-- Generator: Adobe Illustrator 23.0.6, SVG Export Plug-In . SVG Version: 6.00 Build 0)  -->
<svg version="1.1" id="Capa_1" xmlns="http://www.w3.org/2000/svg" xmlns:xlink="http://www.w3.org/1999/xlink" x="0px" y="0px"
	 viewBox="0 0 566.8 480" style="enable-background:new 0 0 566.8 480;" xml:space="preserve">
<style type="text/css">
	.st0{clip-path:url(#SVGID_2_);}
	.st1{clip-path:url(#SVGID_4_);}
	.st2{fill:#954524;}
	.st3{fill:#A5756A;}
	.st4{fill:#592718;}
	.st5{fill:#441A11;}
	.st6{fill:#280E09;}
	.st7{opacity:0.89;clip-path:url(#SVGID_6_);}
	.st8{fill:#DD7F2A;}
	.st9{fill:#F4F3F2;}
	.st10{fill:#BA3C0F;}
	.st11{clip-path:url(#SVGID_8_);fill:#BC967D;}
	.st12{clip-path:url(#SVGID_10_);fill:#BC967D;}
	.st13{clip-path:url(#SVGID_12_);fill:#D1A288;}
	.st14{clip-path:url(#SVGID_14_);fill:url(#SVGID_15_);}
	.st15{clip-path:url(#SVGID_17_);fill:#A0918B;}
	.st16{clip-path:url(#SVGID_19_);fill:#BFB1AC;}
	.st17{clip-path:url(#SVGID_21_);fill:#BFB1AC;}
	.st18{clip-path:url(#SVGID_23_);fill:#E8E8E8;}
	.st19{clip-path:url(#SVGID_25_);fill:#DAE5EF;}
	.st20{clip-path:url(#SVGID_27_);fill:#DAE5EF;}
	.st21{clip-path:url(#SVGID_29_);}
	.st22{fill:#867971;}
	.st23{fill:none;stroke:#565351;stroke-width:2;stroke-miterlimit:10;}
	.st24{fill:#FFFFFF;}
	.st25{fill:#635852;}
	.st26{fill:#0097FE;}
	.st27{fill:none;stroke:#635852;stroke-width:2;stroke-miterlimit:10;}
	.st28{fill:#965636;}
	.st29{fill:none;stroke:#563A2E;stroke-width:7;stroke-miterlimit:10;}
	.st30{fill:none;stroke:#563A2E;stroke-width:2;stroke-miterlimit:10;}
	.st31{fill:#705C54;}
	.st32{fill:#847067;}
	.st33{fill:none;stroke:#705C54;stroke-width:3;stroke-miterlimit:10;}
	.st34{fill:none;stroke:#705C54;stroke-width:6;stroke-miterlimit:10;}
	.st35{fill:none;stroke:#6D3E2B;stroke-miterlimit:10;}
	.st36{fill:#563A2E;}
	.st37{clip-path:url(#SVGID_31_);}
	.st38{fill-rule:evenodd;clip-rule:evenodd;fill:#998675;}
	.st39{fill-rule:evenodd;clip-rule:evenodd;fill:#978474;}
	.st40{fill-rule:evenodd;clip-rule:evenodd;fill:#958372;}
	.st41{fill-rule:evenodd;clip-rule:evenodd;fill:#948171;}
	.st42{fill-rule:evenodd;clip-rule:evenodd;fill:#927F6F;}
	.st43{fill-rule:evenodd;clip-rule:evenodd;fill:#907E6E;}
	.st44{fill-rule:evenodd;clip-rule:evenodd;fill:#8E7C6C;}
	.st45{fill-rule:evenodd;clip-rule:evenodd;fill:#8C7A6B;}
	.st46{fill-rule:evenodd;clip-rule:evenodd;fill:#8B796A;}
	.st47{fill-rule:evenodd;clip-rule:evenodd;fill:#897768;}
	.st48{fill-rule:evenodd;clip-rule:evenodd;fill:#877567;}
	.st49{fill-rule:evenodd;clip-rule:evenodd;fill:#857465;}
	.st50{fill-rule:evenodd;clip-rule:evenodd;fill:#837264;}
	.st51{fill-rule:evenodd;clip-rule:evenodd;fill:#817062;}
	.st52{fill-rule:evenodd;clip-rule:evenodd;fill:#806F61;}
	.st53{fill-rule:evenodd;clip-rule:evenodd;fill:#7E6D60;}
	.st54{fill-rule:evenodd;clip-rule:evenodd;fill:#7C6B5E;}
	.st55{fill-rule:evenodd;clip-rule:evenodd;fill:#7A6A5D;}
	.st56{fill-rule:evenodd;clip-rule:evenodd;fill:#78685B;}
	.st57{fill-rule:evenodd;clip-rule:evenodd;fill:#77665A;}
	.st58{fill-rule:evenodd;clip-rule:evenodd;fill:#756558;}
	.st59{fill-rule:evenodd;clip-rule:evenodd;fill:#736357;}
	.st60{fill-rule:evenodd;clip-rule:evenodd;fill:url(#SVGID_32_);}
	.st61{fill-rule:evenodd;clip-rule:evenodd;fill:url(#SVGID_33_);}
	.st62{fill-rule:evenodd;clip-rule:evenodd;fill:url(#SVGID_34_);}
	.st63{fill-rule:evenodd;clip-rule:evenodd;fill:url(#SVGID_35_);}
	.st64{fill-rule:evenodd;clip-rule:evenodd;fill:url(#SVGID_36_);}
	.st65{fill-rule:evenodd;clip-rule:evenodd;fill:url(#SVGID_37_);}
	.st66{fill-rule:evenodd;clip-rule:evenodd;fill:url(#SVGID_38_);}
	.st67{fill-rule:evenodd;clip-rule:evenodd;fill:url(#SVGID_39_);}
	.st68{fill-rule:evenodd;clip-rule:evenodd;fill:url(#SVGID_40_);}
	.st69{fill-rule:evenodd;clip-rule:evenodd;fill:url(#SVGID_41_);}
	.st70{fill-rule:evenodd;clip-rule:evenodd;fill:url(#SVGID_42_);}
	.st71{fill-rule:evenodd;clip-rule:evenodd;fill:url(#SVGID_43_);}
	.st72{opacity:0.52;}
	.st73{fill-rule:evenodd;clip-rule:evenodd;fill:url(#SVGID_44_);}
	.st74{fill-rule:evenodd;clip-rule:evenodd;fill:url(#SVGID_45_);}
	.st75{fill-rule:evenodd;clip-rule:evenodd;fill:url(#SVGID_46_);}
	.st76{fill-rule:evenodd;clip-rule:evenodd;fill:url(#SVGID_47_);}
	.st77{fill-rule:evenodd;clip-rule:evenodd;fill:url(#SVGID_48_);}
	.st78{fill-rule:evenodd;clip-rule:evenodd;fill:url(#SVGID_49_);}
	.st79{fill-rule:evenodd;clip-rule:evenodd;fill:url(#SVGID_50_);}
	.st80{fill-rule:evenodd;clip-rule:evenodd;fill:url(#SVGID_51_);}
	.st81{fill-rule:evenodd;clip-rule:evenodd;fill:url(#SVGID_52_);}
	.st82{fill-rule:evenodd;clip-rule:evenodd;fill:url(#SVGID_53_);}
	.st83{fill-rule:evenodd;clip-rule:evenodd;fill:url(#SVGID_54_);}
	.st84{fill-rule:evenodd;clip-rule:evenodd;fill:url(#SVGID_55_);}
	.st85{fill-rule:evenodd;clip-rule:evenodd;fill:url(#SVGID_56_);}
	.st86{fill-rule:evenodd;clip-rule:evenodd;fill:url(#SVGID_57_);}
	.st87{fill-rule:evenodd;clip-rule:evenodd;fill:url(#SVGID_58_);}
	.st88{fill-rule:evenodd;clip-rule:evenodd;fill:url(#SVGID_59_);}
	.st89{fill-rule:evenodd;clip-rule:evenodd;fill:url(#SVGID_60_);}
	.st90{fill-rule:evenodd;clip-rule:evenodd;fill:url(#SVGID_61_);}
	.st91{fill-rule:evenodd;clip-rule:evenodd;fill:url(#SVGID_62_);}
	.st92{fill-rule:evenodd;clip-rule:evenodd;fill:url(#SVGID_63_);}
	.st93{fill-rule:evenodd;clip-rule:evenodd;fill:url(#SVGID_64_);}
	.st94{fill-rule:evenodd;clip-rule:evenodd;fill:url(#SVGID_65_);}
	.st95{fill-rule:evenodd;clip-rule:evenodd;fill:url(#SVGID_66_);}
	.st96{fill-rule:evenodd;clip-rule:evenodd;fill:url(#SVGID_67_);}
	.st97{fill-rule:evenodd;clip-rule:evenodd;fill:url(#SVGID_68_);}
	.st98{fill-rule:evenodd;clip-rule:evenodd;fill:url(#SVGID_69_);}
	.st99{fill-rule:evenodd;clip-rule:evenodd;fill:url(#SVGID_70_);}
	.st100{fill-rule:evenodd;clip-rule:evenodd;fill:url(#SVGID_71_);}
	.st101{fill-rule:evenodd;clip-rule:evenodd;fill:url(#SVGID_72_);}
	.st102{fill-rule:evenodd;clip-rule:evenodd;fill:url(#SVGID_73_);}
	.st103{fill-rule:evenodd;clip-rule:evenodd;fill:url(#SVGID_74_);}
	.st104{fill-rule:evenodd;clip-rule:evenodd;fill:url(#SVGID_75_);}
	.st105{fill-rule:evenodd;clip-rule:evenodd;fill:url(#SVGID_76_);}
	.st106{fill-rule:evenodd;clip-rule:evenodd;fill:url(#SVGID_77_);}
	.st107{fill-rule:evenodd;clip-rule:evenodd;fill:url(#SVGID_78_);}
	.st108{fill-rule:evenodd;clip-rule:evenodd;fill:url(#SVGID_79_);}
	.st109{fill-rule:evenodd;clip-rule:evenodd;fill:url(#SVGID_80_);}
	.st110{fill-rule:evenodd;clip-rule:evenodd;fill:url(#SVGID_81_);}
	.st111{fill-rule:evenodd;clip-rule:evenodd;fill:url(#SVGID_82_);}
	.st112{fill-rule:evenodd;clip-rule:evenodd;fill:url(#SVGID_83_);}
	.st113{fill-rule:evenodd;clip-rule:evenodd;fill:url(#SVGID_84_);}
	.st114{fill-rule:evenodd;clip-rule:evenodd;fill:url(#SVGID_85_);}
	.st115{fill-rule:evenodd;clip-rule:evenodd;fill:url(#SVGID_86_);}
	.st116{fill-rule:evenodd;clip-rule:evenodd;fill:url(#SVGID_87_);}
	.st117{fill-rule:evenodd;clip-rule:evenodd;fill:url(#SVGID_88_);}
	.st118{fill-rule:evenodd;clip-rule:evenodd;fill:url(#SVGID_89_);}
	.st119{fill-rule:evenodd;clip-rule:evenodd;fill:url(#SVGID_90_);}
	.st120{fill-rule:evenodd;clip-rule:evenodd;fill:url(#SVGID_91_);}
	.st121{fill-rule:evenodd;clip-rule:evenodd;fill:url(#SVGID_92_);}
	.st122{fill-rule:evenodd;clip-rule:evenodd;fill:url(#SVGID_93_);}
	.st123{fill-rule:evenodd;clip-rule:evenodd;fill:url(#SVGID_94_);}
	.st124{fill-rule:evenodd;clip-rule:evenodd;fill:url(#SVGID_95_);}
	.st125{clip-path:url(#SVGID_97_);}
	.st126{fill:url(#SVGID_98_);}
	.st127{fill:#6CD0F5;}
	.st128{fill:#69B8D4;}
	.st129{fill:none;}
	.st130{fill:#E8F7F6;}
	.st131{fill:#DFEFEE;}
	.st132{fill:#E3BB7C;}
	.st133{fill:#D3A56A;}
	.st134{fill:#F2F0ED;}
	.st135{fill:#DDD9D4;}
	.st136{fill:#644930;}
	.st137{fill:#C39669;}
	.st138{fill:#A87441;}
	.st139{fill:#555A4C;}
	.st140{fill:#49321F;}
	.st141{fill:#4A3729;}
	.st142{fill:#755A48;}
	.st143{fill:#865932;}
	.st144{fill:none;stroke:#C1916C;stroke-width:4;stroke-miterlimit:10;}
	.st145{fill:none;stroke:#F9F9F9;stroke-miterlimit:10;}
	.st146{fill:#E8E8E8;}
	.st147{clip-path:url(#SVGID_100_);}
	.st148{fill:url(#SVGID_101_);}
	.st149{fill:#8E8684;}
	.st150{fill:#6C5A46;}
	.st151{opacity:0.47;}
	.st152{fill:#AD9279;}
	.st153{fill:#382F27;}
	.st154{fill:#937A65;}
	.st155{fill:#514336;}
	.st156{fill:none;stroke:#514336;stroke-width:3;stroke-miterlimit:10;}
	.st157{fill:#5E4F3F;}
	.st158{fill:#846C57;}
	.st159{fill:#6E9967;}
	.st160{fill:#42913E;}
	.st161{fill:#6AAA60;}
	.st162{fill:#65A544;}
	.st163{fill:#777271;}
	.st164{fill:#5A8E3C;}
	.st165{fill:none;stroke:#545450;stroke-width:4;stroke-miterlimit:10;}
	.st166{fill:none;stroke:#545450;stroke-width:5;stroke-miterlimit:10;}
	.st167{fill:none;stroke:#545450;stroke-width:6;stroke-miterlimit:10;}
	.st168{fill:none;stroke:#545450;stroke-width:8;stroke-miterlimit:10;}
	.st169{fill:#44372C;}
	.st170{clip-path:url(#SVGID_103_);}
	.st171{clip-path:url(#SVGID_105_);}
	.st172{fill:url(#SVGID_106_);}
	.st173{fill:#66A8DA;}
	.st174{fill:#E2994C;}
	.st175{fill:#7F7E7C;}
	.st176{fill:#A8A59D;}
	.st177{fill:#7A8F35;}
	.st178{fill:#5E6B26;}
	.st179{fill:#D6D1CC;}
	.st180{fill:#AF947B;}
	.st181{fill:none;stroke:#AF947B;stroke-width:3;stroke-miterlimit:10;}
	.st182{fill:#EDECE8;}
	.st183{fill:#C6BDA8;}
	.st184{fill:none;stroke:#FFFFFF;stroke-width:3;stroke-miterlimit:10;}
	.st185{fill-rule:evenodd;clip-rule:evenodd;fill:#2B6DAF;}
	.st186{fill:none;stroke:#AAA69B;stroke-width:4;stroke-miterlimit:10;}
	.st187{fill-rule:evenodd;clip-rule:evenodd;fill:url(#SVGID_107_);}
	.st188{fill-rule:evenodd;clip-rule:evenodd;fill:url(#SVGID_108_);}
	.st189{fill-rule:evenodd;clip-rule:evenodd;fill:url(#SVGID_109_);}
	.st190{fill-rule:evenodd;clip-rule:evenodd;fill:url(#SVGID_110_);}
	.st191{fill-rule:evenodd;clip-rule:evenodd;fill:url(#SVGID_111_);}
	.st192{fill-rule:evenodd;clip-rule:evenodd;fill:url(#SVGID_112_);}
	.st193{fill-rule:evenodd;clip-rule:evenodd;fill:url(#SVGID_113_);}
	.st194{fill-rule:evenodd;clip-rule:evenodd;fill:url(#SVGID_114_);}
	.st195{fill-rule:evenodd;clip-rule:evenodd;fill:url(#SVGID_115_);}
	.st196{fill-rule:evenodd;clip-rule:evenodd;fill:url(#SVGID_116_);}
	.st197{fill-rule:evenodd;clip-rule:evenodd;fill:url(#SVGID_117_);}
	.st198{fill-rule:evenodd;clip-rule:evenodd;fill:url(#SVGID_118_);}
	.st199{fill-rule:evenodd;clip-rule:evenodd;fill:url(#SVGID_119_);}
	.st200{fill-rule:evenodd;clip-rule:evenodd;fill:url(#SVGID_120_);}
	.st201{fill-rule:evenodd;clip-rule:evenodd;fill:url(#SVGID_121_);}
	.st202{fill-rule:evenodd;clip-rule:evenodd;fill:url(#SVGID_122_);}
	.st203{fill-rule:evenodd;clip-rule:evenodd;fill:url(#SVGID_123_);}
	.st204{fill-rule:evenodd;clip-rule:evenodd;fill:url(#SVGID_124_);}
	.st205{fill-rule:evenodd;clip-rule:evenodd;fill:url(#SVGID_125_);}
	.st206{fill-rule:evenodd;clip-rule:evenodd;fill:url(#SVGID_126_);}
	.st207{fill-rule:evenodd;clip-rule:evenodd;fill:url(#SVGID_127_);}
	.st208{fill-rule:evenodd;clip-rule:evenodd;fill:url(#SVGID_128_);}
	.st209{fill-rule:evenodd;clip-rule:evenodd;fill:url(#SVGID_129_);}
	.st210{fill-rule:evenodd;clip-rule:evenodd;fill:url(#SVGID_130_);}
	.st211{fill-rule:evenodd;clip-rule:evenodd;fill:url(#SVGID_131_);}
	.st212{fill-rule:evenodd;clip-rule:evenodd;fill:url(#SVGID_132_);}
	.st213{fill-rule:evenodd;clip-rule:evenodd;fill:url(#SVGID_133_);}
	.st214{fill-rule:evenodd;clip-rule:evenodd;fill:url(#SVGID_134_);}
	.st215{fill-rule:evenodd;clip-rule:evenodd;fill:url(#SVGID_135_);}
	.st216{fill-rule:evenodd;clip-rule:evenodd;fill:url(#SVGID_136_);}
	.st217{fill-rule:evenodd;clip-rule:evenodd;fill:url(#SVGID_137_);}
	.st218{fill-rule:evenodd;clip-rule:evenodd;fill:url(#SVGID_138_);}
	.st219{fill-rule:evenodd;clip-rule:evenodd;fill:url(#SVGID_139_);}
	.st220{fill-rule:evenodd;clip-rule:evenodd;fill:url(#SVGID_140_);}
	.st221{fill-rule:evenodd;clip-rule:evenodd;fill:url(#SVGID_141_);}
	.st222{fill-rule:evenodd;clip-rule:evenodd;fill:url(#SVGID_142_);}
	.st223{fill-rule:evenodd;clip-rule:evenodd;fill:url(#SVGID_143_);}
	.st224{fill-rule:evenodd;clip-rule:evenodd;fill:url(#SVGID_144_);}
	.st225{fill-rule:evenodd;clip-rule:evenodd;fill:url(#SVGID_145_);}
	.st226{fill-rule:evenodd;clip-rule:evenodd;fill:url(#SVGID_146_);}
	.st227{fill-rule:evenodd;clip-rule:evenodd;fill:url(#SVGID_147_);}
	.st228{fill-rule:evenodd;clip-rule:evenodd;fill:url(#SVGID_148_);}
	.st229{fill-rule:evenodd;clip-rule:evenodd;fill:url(#SVGID_149_);}
	.st230{fill-rule:evenodd;clip-rule:evenodd;fill:url(#SVGID_150_);}
	.st231{fill-rule:evenodd;clip-rule:evenodd;fill:url(#SVGID_151_);}
	.st232{fill-rule:evenodd;clip-rule:evenodd;fill:url(#SVGID_152_);}
	.st233{fill-rule:evenodd;clip-rule:evenodd;fill:url(#SVGID_153_);}
	.st234{fill-rule:evenodd;clip-rule:evenodd;fill:url(#SVGID_154_);}
	.st235{fill-rule:evenodd;clip-rule:evenodd;fill:url(#SVGID_155_);}
	.st236{fill-rule:evenodd;clip-rule:evenodd;fill:url(#SVGID_156_);}
	.st237{fill-rule:evenodd;clip-rule:evenodd;fill:url(#SVGID_157_);}
	.st238{fill-rule:evenodd;clip-rule:evenodd;fill:url(#SVGID_158_);}
	.st239{fill-rule:evenodd;clip-rule:evenodd;fill:url(#SVGID_159_);}
	.st240{fill-rule:evenodd;clip-rule:evenodd;fill:url(#SVGID_160_);}
	.st241{fill-rule:evenodd;clip-rule:evenodd;fill:url(#SVGID_161_);}
	.st242{fill-rule:evenodd;clip-rule:evenodd;fill:url(#SVGID_162_);}
	.st243{fill-rule:evenodd;clip-rule:evenodd;fill:url(#SVGID_163_);}
	.st244{fill-rule:evenodd;clip-rule:evenodd;fill:url(#SVGID_164_);}
	.st245{fill-rule:evenodd;clip-rule:evenodd;fill:url(#SVGID_165_);}
	.st246{fill-rule:evenodd;clip-rule:evenodd;fill:url(#SVGID_166_);}
	.st247{fill-rule:evenodd;clip-rule:evenodd;fill:url(#SVGID_167_);}
	.st248{fill-rule:evenodd;clip-rule:evenodd;fill:url(#SVGID_168_);}
	.st249{fill-rule:evenodd;clip-rule:evenodd;fill:url(#SVGID_169_);}
	.st250{fill-rule:evenodd;clip-rule:evenodd;fill:url(#SVGID_170_);}
	.st251{fill-rule:evenodd;clip-rule:evenodd;fill:url(#SVGID_171_);}
	.st252{fill-rule:evenodd;clip-rule:evenodd;fill:url(#SVGID_172_);}
	.st253{fill-rule:evenodd;clip-rule:evenodd;fill:url(#SVGID_173_);}
	.st254{fill-rule:evenodd;clip-rule:evenodd;fill:url(#SVGID_174_);}
	.st255{fill-rule:evenodd;clip-rule:evenodd;fill:url(#SVGID_175_);}
	.st256{fill-rule:evenodd;clip-rule:evenodd;fill:url(#SVGID_176_);}
	.st257{fill-rule:evenodd;clip-rule:evenodd;fill:url(#SVGID_177_);}
	.st258{fill-rule:evenodd;clip-rule:evenodd;fill:url(#SVGID_178_);}
	.st259{fill-rule:evenodd;clip-rule:evenodd;fill:url(#SVGID_179_);}
	.st260{fill-rule:evenodd;clip-rule:evenodd;fill:url(#SVGID_180_);}
	.st261{fill-rule:evenodd;clip-rule:evenodd;fill:url(#SVGID_181_);}
	.st262{fill-rule:evenodd;clip-rule:evenodd;fill:url(#SVGID_182_);}
	.st263{fill-rule:evenodd;clip-rule:evenodd;fill:url(#SVGID_183_);}
	.st264{fill-rule:evenodd;clip-rule:evenodd;fill:url(#SVGID_184_);}
	.st265{fill-rule:evenodd;clip-rule:evenodd;fill:url(#SVGID_185_);}
	.st266{fill-rule:evenodd;clip-rule:evenodd;fill:url(#SVGID_186_);}
	.st267{fill-rule:evenodd;clip-rule:evenodd;fill:url(#SVGID_187_);}
	.st268{fill-rule:evenodd;clip-rule:evenodd;fill:url(#SVGID_188_);}
	.st269{fill-rule:evenodd;clip-rule:evenodd;fill:url(#SVGID_189_);}
	.st270{fill-rule:evenodd;clip-rule:evenodd;fill:url(#SVGID_190_);}
	.st271{fill-rule:evenodd;clip-rule:evenodd;fill:url(#SVGID_191_);}
	.st272{fill-rule:evenodd;clip-rule:evenodd;fill:url(#SVGID_192_);}
	.st273{fill-rule:evenodd;clip-rule:evenodd;fill:url(#SVGID_193_);}
	.st274{fill-rule:evenodd;clip-rule:evenodd;fill:url(#SVGID_194_);}
	.st275{fill-rule:evenodd;clip-rule:evenodd;fill:url(#SVGID_195_);}
	.st276{fill-rule:evenodd;clip-rule:evenodd;fill:url(#SVGID_196_);}
	.st277{fill-rule:evenodd;clip-rule:evenodd;fill:url(#SVGID_197_);}
	.st278{fill-rule:evenodd;clip-rule:evenodd;fill:url(#SVGID_198_);}
	.st279{fill-rule:evenodd;clip-rule:evenodd;fill:url(#SVGID_199_);}
	.st280{fill-rule:evenodd;clip-rule:evenodd;fill:url(#SVGID_200_);}
	.st281{fill-rule:evenodd;clip-rule:evenodd;fill:url(#SVGID_201_);}
	.st282{fill-rule:evenodd;clip-rule:evenodd;fill:url(#SVGID_202_);}
	.st283{fill-rule:evenodd;clip-rule:evenodd;fill:url(#SVGID_203_);}
	.st284{fill-rule:evenodd;clip-rule:evenodd;fill:url(#SVGID_204_);}
	.st285{fill-rule:evenodd;clip-rule:evenodd;fill:url(#SVGID_205_);}
	.st286{fill-rule:evenodd;clip-rule:evenodd;fill:url(#SVGID_206_);}
	.st287{fill-rule:evenodd;clip-rule:evenodd;fill:url(#SVGID_207_);}
	.st288{fill-rule:evenodd;clip-rule:evenodd;fill:url(#SVGID_208_);}
	.st289{fill-rule:evenodd;clip-rule:evenodd;fill:url(#SVGID_209_);}
	.st290{fill-rule:evenodd;clip-rule:evenodd;fill:url(#SVGID_210_);}
	.st291{fill-rule:evenodd;clip-rule:evenodd;fill:url(#SVGID_211_);}
	.st292{fill-rule:evenodd;clip-rule:evenodd;fill:url(#SVGID_212_);}
	.st293{fill-rule:evenodd;clip-rule:evenodd;fill:url(#SVGID_213_);}
	.st294{fill-rule:evenodd;clip-rule:evenodd;fill:url(#SVGID_214_);}
	.st295{fill-rule:evenodd;clip-rule:evenodd;fill:url(#SVGID_215_);}
	.st296{fill-rule:evenodd;clip-rule:evenodd;fill:url(#SVGID_216_);}
	.st297{fill-rule:evenodd;clip-rule:evenodd;fill:url(#SVGID_217_);}
	.st298{fill-rule:evenodd;clip-rule:evenodd;fill:url(#SVGID_218_);}
	.st299{fill-rule:evenodd;clip-rule:evenodd;fill:url(#SVGID_219_);}
	.st300{fill-rule:evenodd;clip-rule:evenodd;fill:url(#SVGID_220_);}
	.st301{fill-rule:evenodd;clip-rule:evenodd;fill:url(#SVGID_221_);}
	.st302{fill-rule:evenodd;clip-rule:evenodd;fill:url(#SVGID_222_);}
	.st303{fill-rule:evenodd;clip-rule:evenodd;fill:url(#SVGID_223_);}
	.st304{fill-rule:evenodd;clip-rule:evenodd;fill:url(#SVGID_224_);}
	.st305{fill-rule:evenodd;clip-rule:evenodd;fill:url(#SVGID_225_);}
	.st306{fill-rule:evenodd;clip-rule:evenodd;fill:url(#SVGID_226_);}
	.st307{fill-rule:evenodd;clip-rule:evenodd;fill:url(#SVGID_227_);}
	.st308{fill-rule:evenodd;clip-rule:evenodd;fill:url(#SVGID_228_);}
	.st309{fill-rule:evenodd;clip-rule:evenodd;fill:url(#SVGID_229_);}
	.st310{fill-rule:evenodd;clip-rule:evenodd;fill:url(#SVGID_230_);}
	.st311{fill-rule:evenodd;clip-rule:evenodd;fill:url(#SVGID_231_);}
	.st312{fill-rule:evenodd;clip-rule:evenodd;fill:url(#SVGID_232_);}
	.st313{fill-rule:evenodd;clip-rule:evenodd;fill:url(#SVGID_233_);}
	.st314{fill-rule:evenodd;clip-rule:evenodd;fill:url(#SVGID_234_);}
	.st315{fill-rule:evenodd;clip-rule:evenodd;fill:url(#SVGID_235_);}
	.st316{fill-rule:evenodd;clip-rule:evenodd;fill:url(#SVGID_236_);}
	.st317{fill-rule:evenodd;clip-rule:evenodd;fill:url(#SVGID_237_);}
	.st318{fill-rule:evenodd;clip-rule:evenodd;fill:url(#SVGID_238_);}
	.st319{fill-rule:evenodd;clip-rule:evenodd;fill:url(#SVGID_239_);}
	.st320{fill-rule:evenodd;clip-rule:evenodd;fill:url(#SVGID_240_);}
	.st321{fill-rule:evenodd;clip-rule:evenodd;fill:url(#SVGID_241_);}
	.st322{fill-rule:evenodd;clip-rule:evenodd;fill:url(#SVGID_242_);}
	.st323{fill-rule:evenodd;clip-rule:evenodd;fill:url(#SVGID_243_);}
	.st324{fill-rule:evenodd;clip-rule:evenodd;fill:url(#SVGID_244_);}
	.st325{fill-rule:evenodd;clip-rule:evenodd;fill:url(#SVGID_245_);}
	.st326{fill-rule:evenodd;clip-rule:evenodd;fill:url(#SVGID_246_);}
	.st327{fill-rule:evenodd;clip-rule:evenodd;fill:url(#SVGID_247_);}
	.st328{fill-rule:evenodd;clip-rule:evenodd;fill:url(#SVGID_248_);}
	.st329{fill-rule:evenodd;clip-rule:evenodd;fill:url(#SVGID_249_);}
	.st330{fill-rule:evenodd;clip-rule:evenodd;fill:url(#SVGID_250_);}
	.st331{fill-rule:evenodd;clip-rule:evenodd;fill:url(#SVGID_251_);}
	.st332{fill-rule:evenodd;clip-rule:evenodd;fill:url(#SVGID_252_);}
	.st333{fill-rule:evenodd;clip-rule:evenodd;fill:url(#SVGID_253_);}
	.st334{fill-rule:evenodd;clip-rule:evenodd;fill:url(#SVGID_254_);}
	.st335{fill-rule:evenodd;clip-rule:evenodd;fill:url(#SVGID_255_);}
	.st336{fill-rule:evenodd;clip-rule:evenodd;fill:url(#SVGID_256_);}
	.st337{fill-rule:evenodd;clip-rule:evenodd;fill:url(#SVGID_257_);}
	.st338{fill-rule:evenodd;clip-rule:evenodd;fill:url(#SVGID_258_);}
	.st339{fill-rule:evenodd;clip-rule:evenodd;fill:url(#SVGID_259_);}
	.st340{fill-rule:evenodd;clip-rule:evenodd;fill:url(#SVGID_260_);}
	.st341{fill-rule:evenodd;clip-rule:evenodd;fill:url(#SVGID_261_);}
	.st342{fill-rule:evenodd;clip-rule:evenodd;fill:url(#SVGID_262_);}
	.st343{fill-rule:evenodd;clip-rule:evenodd;fill:url(#SVGID_263_);}
	.st344{fill-rule:evenodd;clip-rule:evenodd;fill:url(#SVGID_264_);}
	.st345{fill-rule:evenodd;clip-rule:evenodd;fill:url(#SVGID_265_);}
	.st346{fill-rule:evenodd;clip-rule:evenodd;fill:url(#SVGID_266_);}
	.st347{fill-rule:evenodd;clip-rule:evenodd;fill:url(#SVGID_267_);}
	.st348{fill-rule:evenodd;clip-rule:evenodd;fill:url(#SVGID_268_);}
	.st349{fill-rule:evenodd;clip-rule:evenodd;fill:url(#SVGID_269_);}
	.st350{fill-rule:evenodd;clip-rule:evenodd;fill:url(#SVGID_270_);}
	.st351{fill-rule:evenodd;clip-rule:evenodd;fill:url(#SVGID_271_);}
	.st352{fill-rule:evenodd;clip-rule:evenodd;fill:url(#SVGID_272_);}
	.st353{fill-rule:evenodd;clip-rule:evenodd;fill:url(#SVGID_273_);}
	.st354{fill-rule:evenodd;clip-rule:evenodd;fill:url(#SVGID_274_);}
	.st355{fill-rule:evenodd;clip-rule:evenodd;fill:url(#SVGID_275_);}
	.st356{fill-rule:evenodd;clip-rule:evenodd;fill:url(#SVGID_276_);}
	.st357{fill-rule:evenodd;clip-rule:evenodd;fill:url(#SVGID_277_);}
	.st358{fill-rule:evenodd;clip-rule:evenodd;fill:url(#SVGID_278_);}
	.st359{fill-rule:evenodd;clip-rule:evenodd;fill:url(#SVGID_279_);}
	.st360{fill-rule:evenodd;clip-rule:evenodd;fill:url(#SVGID_280_);}
	.st361{fill-rule:evenodd;clip-rule:evenodd;fill:url(#SVGID_281_);}
	.st362{fill-rule:evenodd;clip-rule:evenodd;fill:url(#SVGID_282_);}
	.st363{fill-rule:evenodd;clip-rule:evenodd;fill:url(#SVGID_283_);}
	.st364{fill-rule:evenodd;clip-rule:evenodd;fill:url(#SVGID_284_);}
	.st365{fill-rule:evenodd;clip-rule:evenodd;fill:url(#SVGID_285_);}
	.st366{fill-rule:evenodd;clip-rule:evenodd;fill:url(#SVGID_286_);}
	.st367{fill-rule:evenodd;clip-rule:evenodd;fill:url(#SVGID_287_);}
	.st368{fill-rule:evenodd;clip-rule:evenodd;fill:url(#SVGID_288_);}
	.st369{fill-rule:evenodd;clip-rule:evenodd;fill:url(#SVGID_289_);}
	.st370{fill-rule:evenodd;clip-rule:evenodd;fill:url(#SVGID_290_);}
	.st371{fill-rule:evenodd;clip-rule:evenodd;fill:url(#SVGID_291_);}
	.st372{fill-rule:evenodd;clip-rule:evenodd;fill:url(#SVGID_292_);}
	.st373{fill-rule:evenodd;clip-rule:evenodd;fill:url(#SVGID_293_);}
	.st374{fill-rule:evenodd;clip-rule:evenodd;fill:url(#SVGID_294_);}
	.st375{fill-rule:evenodd;clip-rule:evenodd;fill:url(#SVGID_295_);}
	.st376{fill-rule:evenodd;clip-rule:evenodd;fill:url(#SVGID_296_);}
	.st377{fill-rule:evenodd;clip-rule:evenodd;fill:url(#SVGID_297_);}
	.st378{fill-rule:evenodd;clip-rule:evenodd;fill:url(#SVGID_298_);}
	.st379{fill:#A8EBFA;}
	.st380{fill:#7ED8F6;}
	.st381{fill:#DAE5EF;}
	.st382{clip-path:url(#SVGID_300_);}
	.st383{fill:url(#SVGID_301_);}
	.st384{fill:#2B2524;}
	.st385{fill:#141212;}
	.st386{fill:#C0A47F;}
	.st387{fill:#3A3D4E;}
	.st388{fill:#435628;}
	.st389{fill:#293515;}
	.st390{fill:#F5855D;}
	.st391{fill:#BCA899;}
	.st392{fill:#998473;}
	.st393{fill:#65A844;}
	.st394{fill:#93793D;}
	.st395{fill:#5C9340;}
	.st396{clip-path:url(#SVGID_303_);fill:url(#SVGID_304_);}
	.st397{clip-path:url(#SVGID_306_);fill:#E8E8E8;}
	.st398{clip-path:url(#SVGID_308_);fill:#E8E8E8;}
	.st399{clip-path:url(#SVGID_312_);}
	.st400{fill:#CEA484;}
	.st401{fill:#E2B893;}
	.st402{fill:#B2835B;}
	.st403{fill:none;stroke:#9B683E;stroke-width:2;stroke-miterlimit:10;}
	.st404{clip-path:url(#SVGID_314_);}
	.st405{fill:#AF8275;}
	.st406{fill:#7C4E40;}
	.st407{clip-path:url(#SVGID_316_);}
	.st408{fill:#595759;}
	.st409{fill:#5584B0;}
	.st410{fill:url(#SVGID_317_);}
	.st411{fill:#FCFCFC;}
	.st412{opacity:0.5;fill:#A4D3F4;enable-background:new    ;}
	.st413{fill:#050505;}
	.st414{opacity:0.69;}
	.st415{clip-path:url(#SVGID_319_);}
	.st416{fill:url(#SVGID_320_);}
	.st417{clip-path:url(#SVGID_322_);}
	.st418{fill:#5C993C;}
	.st419{fill:#88C663;}
	.st420{fill:#406329;}
	.st421{fill:#B29312;}
	.st422{fill:none;stroke:#913A13;stroke-width:2;stroke-miterlimit:10;}
	.st423{fill:#A50A6A;}
	.st424{fill:#C40072;}
	.st425{clip-path:url(#SVGID_324_);}
	.st426{fill:#98D873;}
</style>
<g>
	<g>
		<defs>
			<path id="SVGID_299_" d="M278.2,14.7c-119.5,0-216.4,96.9-216.4,216.4c0,26.3,4.7,51.5,13.3,74.8l0,0
				c30.5,82.7,109.9,141.6,203.1,141.6s172.7-58.9,203.1-141.6l0,0c8.6-23.3,13.3-48.5,13.3-74.8C494.6,111.6,397.7,14.7,278.2,14.7
				z"/>
		</defs>
		<clipPath id="SVGID_2_">
			<use xlink:href="#SVGID_299_"  style="overflow:visible;"/>
		</clipPath>
		<g class="st0">
			
				<linearGradient id="SVGID_4_" gradientUnits="userSpaceOnUse" x1="280.4025" y1="6.7897" x2="280.4025" y2="461.4557" gradientTransform="matrix(1 0 0 -1 0 461.4557)">
				<stop  offset="0" style="stop-color:#DAE5EF"/>
				<stop  offset="1" style="stop-color:#6DAFDF"/>
			</linearGradient>
			<rect x="48.8" style="fill:url(#SVGID_4_);" width="463.3" height="454.7"/>
			<path class="st146" d="M453.9,314.3h-44.6c-6.2,0-11.2-5-11.2-11.2c0-6.2,5-11.2,11.2-11.2h44.6c6.2,0,11.2,5,11.2,11.2
				S460.1,314.3,453.9,314.3L453.9,314.3z"/>
			<path class="st146" d="M346.9,92.7h13.9c0,0.5,0,1,0,1.5c0,10,5,18.2,11.2,18.2h67c6.2,0,11.2-8.1,11.2-18.2S445,76,438.8,76
				h-36.2c0-0.5,0-1,0-1.5c0-10-5-18.2-11.2-18.2h-44.6c-6.2,0-11.2,8.1-11.2,18.2S340.7,92.7,346.9,92.7z"/>
			<path class="st146" d="M119,147.3h13.9c0,0.3,0,0.6,0,0.9c0,6.2,5,11.2,11.2,11.2h14.9c6.2,0,11.2-5,11.2-11.2s-5-11.2-11.2-11.2
				h-6.4c0-0.3,0-0.6,0-0.9c0-6.2-5-11.2-11.2-11.2H119c-6.2,0-11.2,5-11.2,11.2S112.8,147.3,119,147.3z"/>
			<g>
				<g>
					<g>
						<path class="st384" d="M52.4,120l127.1-10.2c0,0,7.2-0.7,8.2-2.6c1-2,3.3-5.6,3.3-5.6l8.2-2.3l5.6,4h5.3l6.6-10.9l10.9-8.6
							h5.3l-0.3,12.5l-0.3,7.6c0,0,8.6-0.7,8.6-2c0-1.3,1.3-13.2,1.3-14.2c0-1-4.6-16.1-4.6-16.1l3.9-5.6l-3-4.3c0,0,0-7.2,1-7.6
							c1-0.3,17.1-11.8,17.1-11.8s4.6-4.6,5.6-4.9c1-0.3,14.8,1.3,14.8,1.3l8.6,7.6l4.9,6.6l1.6,11.5l-3.9,8.6c0,0,0.7,6.6,0.7,8.9
							s-1.3,15.1-1.3,15.1l-5.9,5.6l-0.7,5.9l14.2,2.3l3,14.8l4.9,9.9l2.6,7.2l0.7,13.8l20.1,14.5l38.2,13.2l4.9,7.9l77-4l37.5,9.5
							l21.4,3.6l13.5-6.6v160.6H53.1L52.4,120z"/>
						<path class="st385" d="M272.9,92.6h-1.6c-1.5,0-2.7-1.2-2.7-2.7V78.2c0-1.5,1.2-2.7,2.7-2.7h1.6c1.5,0,2.7,1.2,2.7,2.7V90
							C275.6,91.5,274.4,92.6,272.9,92.6z"/>
					</g>
					<path class="st385" d="M79.4,140.7l55.3-11.8l32.9,6.6l42.1,7.9l17.1-13.2c0,0,13.2,4,14.5,7.9s14.5,22.4,14.5,22.4l14.5-21.1
						l7.9-15.8c0,0,11.8,31.6,14.5,39.5c2.6,7.9,23.7,32.9,23.7,32.9l27.6,7.9l22.4,9.2l-1.3,21.1l64.5-1.3l6.6,19.7
						c0,0,4,11.8,0,11.8c-3.9,0-90.8,0-102.7,0S186,255.3,186,255.3S82,231.6,80.7,223.7c-1.3-7.9-31.6-43.4-35.5-50
						s-15.8-32.9-10.5-32.9c5.3,0,39.5,1.3,39.5,1.3"/>
					<path class="st386" d="M304.5,230.2l32.9-4l44.8,1.3l18.4,18.4c0,0,6.6-11.8,10.5-11.8c4,0,52.7,9.2,52.7,9.2
						s10.5,7.9,13.2,11.8c2.6,4,60.6,6.6,60.6,6.6l-14.5,15.8c0,0-1.3,9.2-22.4,4c-21.1-5.3-160.6-29-169.8-30.3s-30.3-6.6-30.3-6.6
						l-5.3-6.6L304.5,230.2z"/>
					<polygon class="st387" points="95.2,181.5 253.2,203.9 299.3,232.9 358.5,235.5 412.5,243.4 442.8,263.2 528.4,253.9 
						541.5,271.1 546.8,330.3 43.8,301.3 57,188.1 					"/>
					<path class="st388" d="M58.3,140.7c0,0,32.9,11.8,40.8,18.4s35.5,32.9,35.5,32.9l13.2-40.8l72.4,14.5c0,0,9.2,32.9,2.6,39.5
						c-6.6,6.6,0,32.9,0,32.9l30.3,11.8l19.7-1.3l35.5-4c0,0,32.9,10.5,34.2,15.8c1.3,5.3,13.2,19.7,13.2,19.7l26.3-2.6l46.1-1.3
						l47.4,25l18.4,11.8c0,0,9.2-13.2,13.2-9.2s21.1,27.6,21.1,27.6s21.1-7.9,21.1-1.3s-10.5,80.3-10.5,80.3L22.8,394.8L58.3,140.7z
						"/>
					<path class="st389" d="M46.5,211.8c0,0,35.5-2.6,40.8,5.3c5.3,7.9,71.1,47.4,71.1,47.4s23.7,26.3,27.6,25s82.9-4,82.9-4
						l5.3,26.3l19.7,15.8c0,0,22.4-29,23.7-34.2c1.3-5.3,26.3-15.8,26.3-15.8l38.2,9.2l2.6,15.8l19.7-6.6c0,0,9.2-19.7,17.1-17.1
						c7.9,2.6,38.2,32.9,38.2,32.9l5.3,10.5l11.8-11.8l23.7,19.7l9.2,11.8l5.3,21.1l5.3,14.5H63.6L46.5,211.8z"/>
				</g>
				<g>
					<path class="st24" d="M11.9,278.7h65l22.2-7.6L97.4,237l13-9.2l37.4,1.1l17.3,16.2l6.5,9.2V224l140.2,4.9l13.5,4.9l0.5,15.2
						h22.2l1.6,9.7l26.5,0.5l1.6,3.2l21.1,1.1v9.7h9.2l1.1,7.6l28.7-0.5l1.1,6h26l17.3,1.1l1.6,7.6h7.6l4.3-1.1l2.7,5.4h7.6
						l20.6-0.5l1.6,15.7l11.4-3.2l26.5,11.9l0.5,140.8c0,0-564.7-8.1-564.7-9.7S0,279.2,0,279.2L11.9,278.7z"/>
					<g>
						<polygon class="st390" points="108.5,224.6 147.4,227.9 166.4,241.4 124.7,241.4 						"/>
						<polygon class="st390" points="202.7,223 210.2,228.4 238.4,228.9 233,224.1 						"/>
						<polygon class="st390" points="247,226.2 255.7,233.3 286,231.6 276.3,227.3 						"/>
						<polygon class="st390" points="286,228.4 293.1,232.2 322.3,232.7 311.5,226.8 						"/>
						<polygon class="st390" points="372.6,282.5 401.3,282.5 414.3,291.2 390.5,291.2 						"/>
						<polygon class="st390" points="340.7,283.1 353.2,282 353.2,287.9 339.1,286.9 						"/>
						<polygon class="st390" points="481.5,347.5 449.5,381.1 476,391.3 501,358.3 						"/>
						<polygon class="st390" points="464.7,297.1 464.7,303.1 510.2,303.6 509.1,310.1 527.5,311.2 525.9,302 522.1,297.1 						"/>
						<polygon class="st390" points="529.6,312.8 540.5,308 562.7,319.3 550.2,325.3 						"/>
						<polygon class="st390" points="462,282.5 477.7,282.5 480.4,285.8 467.4,285.8 						"/>
						<polygon class="st390" points="310.4,272.2 337.5,271.7 342.9,276 308.8,274.4 						"/>
						<polyline class="st390" points="145.8,257.1 176.1,256.5 176.1,264.1 151.2,264.1 						"/>
						<polygon class="st390" points="12.6,313.4 47.3,312.3 70,322.6 10.5,325.8 						"/>
						<polygon class="st390" points="91.1,336.7 122,347.5 150.7,345.9 129,333.4 						"/>
						<polygon class="st390" points="70.6,344.2 71.1,352.9 78.7,351.8 81.4,343.2 						"/>
						<polygon class="st390" points="177.8,253.3 205.4,272.2 235.7,265.7 215.6,251.1 						"/>
						<polygon class="st391" points="282.8,298.2 434.4,302.6 433.8,326.4 398.1,333.4 398.1,339.9 284.4,335 						"/>
						<rect x="132.3" y="244.1" class="st392" width="5.4" height="7.6"/>
						<rect x="142" y="244.1" class="st392" width="4.9" height="8.7"/>
						<rect x="227.6" y="247.9" class="st392" width="1.6" height="4.9"/>
						<rect x="262.2" y="242.5" class="st392" width="4.3" height="4.9"/>
						<rect x="272.5" y="243" class="st392" width="2.2" height="6"/>
						<rect x="278.4" y="243.6" class="st392" width="3.8" height="4.9"/>
						<rect x="293.6" y="246.3" class="st392" width="3.8" height="4.3"/>
						<rect x="301.7" y="244.6" class="st392" width="6" height="8.1"/>
						<rect x="312.6" y="244.1" class="st392" width="4.3" height="7"/>
						<rect x="288.7" y="232.2" class="st392" width="3.2" height="3.2"/>
						<rect x="299.6" y="232.7" class="st392" width="3.8" height="3.2"/>
						<rect x="310.9" y="233.8" class="st392" width="5.4" height="3.2"/>
						<rect x="445.2" y="318.8" class="st392" width="7.6" height="13"/>
						<rect x="466.3" y="319.3" class="st392" width="3.2" height="4.9"/>
						<rect x="473.3" y="314.5" class="st392" width="12.5" height="7"/>
						<rect x="502" y="326.4" class="st392" width="4.3" height="9.7"/>
						<rect x="478.8" y="394.6" class="st392" width="4.3" height="26"/>
						<rect x="486.3" y="381.1" class="st392" width="6" height="29.2"/>
						<polygon class="st392" points="495,399.5 477.1,428.7 549.1,426.5 550.8,404.3 						"/>
						<path class="st391" d="M333.7,380.5c0,0,22.7-2.2,23.8-0.5s41.1,46,41.1,46h-48.7L333.7,380.5z"/>
						<polygon class="st392" points="20.8,353.5 66.2,351.8 64.1,406 38.1,406.5 						"/>
						<rect x="100.9" y="237.6" class="st392" width="22.2" height="20"/>
						<rect x="86.3" y="244.6" class="st392" width="6.5" height="8.7"/>
						<rect x="314.7" y="282" class="st392" width="3.8" height="6"/>
						<rect x="210.2" y="228.4" class="st392" width="3.2" height="5.4"/>
						<rect x="221.1" y="229.5" class="st392" width="4.3" height="6"/>
						<rect x="339.6" y="264.7" class="st392" width="5.4" height="6"/>
						<rect x="353.7" y="265.2" class="st392" width="4.9" height="6"/>
						<rect x="370.5" y="266.8" class="st392" width="3.8" height="4.9"/>
					</g>
				</g>
			</g>
			<g>
				<path class="st393" d="M239.1,419.3c0,8.5-6.9,15.5-15.5,15.5c-8.5,0-15.5-6.9-15.5-15.5s6.9-15.5,15.5-15.5
					C232.2,403.9,239.1,410.8,239.1,419.3L239.1,419.3z"/>
				<path class="st393" d="M201.5,413.7c0,10.8-8.7,19.5-19.5,19.5c-10.8,0-19.5-8.7-19.5-19.5c0-10.8,8.7-19.5,19.5-19.5
					C192.7,394.1,201.5,402.9,201.5,413.7L201.5,413.7z"/>
				<path class="st393" d="M210.7,374.7c0,8.5-6.9,15.5-15.5,15.5c-8.5,0-15.5-6.9-15.5-15.5c0-8.5,6.9-15.5,15.5-15.5
					S210.7,366.2,210.7,374.7L210.7,374.7z"/>
				<path class="st393" d="M250.4,374.2c0,8.5-6.9,15.5-15.5,15.5c-8.5,0-15.5-6.9-15.5-15.5c0-8.5,6.9-15.5,15.5-15.5
					C243.5,358.8,250.4,365.7,250.4,374.2L250.4,374.2z"/>
				<path class="st393" d="M230.3,378.9c0,8.5-6.9,15.5-15.5,15.5s-15.5-6.9-15.5-15.5s6.9-15.5,15.5-15.5
					C223.4,363.4,230.3,370.3,230.3,378.9L230.3,378.9z"/>
				<path class="st394" d="M213.9,404.1c-5.4,0-9.8,4.4-9.8,9.8v60.1c0,5.4,4.4,6.1,9.8,6.1c5.4,0,9.8-0.7,9.8-6.1v-60.1
					C223.7,408.5,219.3,404.1,213.9,404.1L213.9,404.1z"/>
				<path class="st394" d="M218.2,446.1l26.7-14.2l2.2,1.5l-25.3,23.6L218.2,446.1z"/>
				<path class="st394" d="M211.6,442.2l-27.7-38l-1.9,1.5l24,46.6L211.6,442.2z"/>
				<path class="st393" d="M188.1,369.8c0,8.5-6.9,15.5-15.5,15.5c-8.5,0-15.5-6.9-15.5-15.5c0-8.5,6.9-15.5,15.5-15.5
					C181.1,354.3,188.1,361.2,188.1,369.8L188.1,369.8z"/>
				<path class="st393" d="M197.4,398.2c0,8.5-6.9,15.5-15.5,15.5c-8.5,0-15.5-6.9-15.5-15.5s6.9-15.5,15.5-15.5
					C190.5,382.8,197.4,389.7,197.4,398.2L197.4,398.2z"/>
				<path class="st393" d="M272.4,371.4c0,8.5-6.9,15.5-15.5,15.5s-15.5-6.9-15.5-15.5c0-8.5,6.9-15.5,15.5-15.5
					C265.5,356,272.4,362.9,272.4,371.4L272.4,371.4z"/>
				<path class="st393" d="M180.3,390.9c0,8.5-6.9,15.5-15.5,15.5c-8.5,0-15.5-6.9-15.5-15.5s6.9-15.5,15.5-15.5
					C173.4,375.4,180.3,382.4,180.3,390.9L180.3,390.9z"/>
				<path class="st393" d="M283.5,390.4c0,8.5-6.9,15.5-15.5,15.5s-15.5-6.9-15.5-15.5s6.9-15.5,15.5-15.5
					C276.5,374.9,283.5,381.8,283.5,390.4L283.5,390.4z"/>
				<path class="st393" d="M267,390.4c0,8.5-6.9,15.5-15.5,15.5s-15.5-6.9-15.5-15.5s6.9-15.5,15.5-15.5
					C260.1,374.9,267,381.8,267,390.4L267,390.4z"/>
				<path class="st393" d="M210.7,382.8c0,8.5-6.9,15.5-15.5,15.5c-8.5,0-15.5-6.9-15.5-15.5c0-8.5,6.9-15.5,15.5-15.5
					C203.8,367.3,210.7,374.2,210.7,382.8L210.7,382.8z"/>
				<path class="st393" d="M250.4,382.2c0,8.5-6.9,15.5-15.5,15.5c-8.5,0-15.5-6.9-15.5-15.5s6.9-15.5,15.5-15.5
					C243.5,366.8,250.4,373.7,250.4,382.2L250.4,382.2z"/>
				<path class="st393" d="M230.3,386.9c0,8.5-6.9,15.5-15.5,15.5s-15.5-6.9-15.5-15.5s6.9-15.5,15.5-15.5
					C223.4,371.4,230.3,378.3,230.3,386.9L230.3,386.9z"/>
				<path class="st393" d="M210.7,354.4c0,8.5-6.9,15.5-15.5,15.5c-8.5,0-15.5-6.9-15.5-15.5c0-8.5,6.9-15.5,15.5-15.5
					C203.8,338.9,210.7,345.9,210.7,354.4L210.7,354.4z"/>
				<path class="st393" d="M250.4,354.4c0,8.5-6.9,15.5-15.5,15.5c-8.5,0-15.5-6.9-15.5-15.5c0-8.5,6.9-15.5,15.5-15.5
					C243.5,338.9,250.4,345.9,250.4,354.4L250.4,354.4z"/>
				<path class="st393" d="M206.1,327.3c0,8.5-6.9,15.5-15.5,15.5c-8.5,0-15.5-6.9-15.5-15.5c0-8.5,6.9-15.5,15.5-15.5
					S206.1,318.7,206.1,327.3L206.1,327.3z"/>
				<path class="st393" d="M255.6,333.5c0,8.5-6.9,15.5-15.5,15.5c-8.5,0-15.5-6.9-15.5-15.5c0-8.5,6.9-15.5,15.5-15.5
					C248.6,318,255.6,324.9,255.6,333.5L255.6,333.5z"/>
				<path class="st393" d="M195.8,350.3c0,8.5-6.9,15.5-15.5,15.5s-15.5-6.9-15.5-15.5s6.9-15.5,15.5-15.5S195.8,341.7,195.8,350.3
					L195.8,350.3z"/>
				<path class="st393" d="M264.3,350.3c0,8.5-6.9,15.5-15.5,15.5c-8.5,0-15.5-6.9-15.5-15.5s6.9-15.5,15.5-15.5
					C257.4,334.8,264.3,341.7,264.3,350.3L264.3,350.3z"/>
				<path class="st393" d="M241.6,344.8c0,14.8-12,26.8-26.8,26.8s-26.8-12-26.8-26.8c0-14.8,12-26.8,26.8-26.8
					C229.6,318,241.6,330,241.6,344.8L241.6,344.8z"/>
				<path class="st393" d="M214.3,316.8c0,8.5-6.9,15.5-15.5,15.5c-8.5,0-15.5-6.9-15.5-15.5s6.9-15.5,15.5-15.5
					C207.4,301.4,214.3,308.3,214.3,316.8L214.3,316.8z"/>
				<path class="st393" d="M229.8,300.3c0,8.3-6.7,14.9-14.9,14.9c-8.3,0-14.9-6.7-14.9-14.9c0-8.3,6.7-14.9,14.9-14.9
					C223.1,285.3,229.8,292,229.8,300.3L229.8,300.3z"/>
				<g>
					<path class="st393" d="M262.5,427.5c0,3.9-3.1,7-7,7c-3.9,0-7-3.1-7-7c0-3.9,3.1-7,7-7C259.4,420.5,262.5,423.7,262.5,427.5
						L262.5,427.5z"/>
					<path class="st393" d="M268,434.5c0,3.9-3.1,7-7,7s-7-3.1-7-7c0-3.9,3.1-7,7-7S268,430.7,268,434.5L268,434.5z"/>
					<path class="st393" d="M252.7,432.7c0,3.9-3.1,7-7,7s-7-3.1-7-7c0-3.9,3.1-7,7-7S252.7,428.9,252.7,432.7L252.7,432.7z"/>
					<path class="st393" d="M259.6,437.3c0,3.9-3.1,7-7,7s-7-3.1-7-7c0-3.9,3.1-7,7-7S259.6,433.4,259.6,437.3L259.6,437.3z"/>
				</g>
				<path class="st393" d="M245.2,316.8c0,8.5-6.9,15.5-15.5,15.5s-15.5-6.9-15.5-15.5s6.9-15.5,15.5-15.5
					C238.3,301.4,245.2,308.3,245.2,316.8L245.2,316.8z"/>
				<path class="st395" d="M235,341.5c-1.6,0-3.2-0.2-4.7-0.5c-3.6,3.7-9.2,6.1-15.6,6.1c-6.3,0-11.8-2.3-15.4-5.9
					c-1.1,0.2-2.3,0.3-3.5,0.3c-9.1,0-16.8-4.9-18.9-11.6c-0.4,1.2-0.6,2.5-0.6,3.9c0,8.5,8.8,15.5,19.6,15.5c1.2,0,2.4-0.1,3.5-0.3
					c3.6,3.6,9.1,5.9,15.4,5.9c6.4,0,12-2.4,15.6-6.1c1.5,0.3,3,0.5,4.7,0.5c10.8,0,19.6-6.9,19.6-15.5c0-1.3-0.2-2.6-0.6-3.9
					C251.7,336.6,244.1,341.5,235,341.5L235,341.5z"/>
				<path class="st395" d="M227.5,318.2c-1.1,0-2.1-0.1-3.1-0.3c-2.4,2.5-6.2,4.1-10.5,4.1c-4.2,0-8-1.6-10.4-4
					c-0.8,0.1-1.6,0.2-2.4,0.2c-6.2,0-11.3-3.3-12.8-7.8c-0.3,0.8-0.4,1.7-0.4,2.6c0,5.8,5.9,10.4,13.2,10.4c0.8,0,1.6-0.1,2.4-0.2
					c2.4,2.4,6.2,4,10.4,4c4.3,0,8.1-1.6,10.5-4.1c1,0.2,2.1,0.3,3.1,0.3c7.3,0,13.2-4.7,13.2-10.4c0-0.9-0.2-1.8-0.4-2.6
					C238.8,314.9,233.7,318.2,227.5,318.2L227.5,318.2z"/>
				<path class="st395" d="M259.6,433.6c-0.4,0-0.8,0-1.2-0.1c-0.9,0.9-2.3,1.6-4,1.6c-1.6,0-3-0.6-3.9-1.5c-0.3,0-0.6,0.1-0.9,0.1
					c-2.3,0-4.3-1.3-4.8-2.9c-0.1,0.3-0.2,0.6-0.2,1c0,2.2,2.2,3.9,5,3.9c0.3,0,0.6,0,0.9-0.1c0.9,0.9,2.3,1.5,3.9,1.5
					c1.6,0,3.1-0.6,4-1.6c0.4,0.1,0.8,0.1,1.2,0.1c2.8,0,5-1.8,5-3.9c0-0.3-0.1-0.7-0.2-1C263.9,432.3,261.9,433.6,259.6,433.6
					L259.6,433.6z"/>
				<path class="st393" d="M210.7,382.8c0,8.5-6.9,15.5-15.5,15.5c-8.5,0-15.5-6.9-15.5-15.5c0-8.5,6.9-15.5,15.5-15.5
					C203.8,367.3,210.7,374.2,210.7,382.8L210.7,382.8z"/>
				<path class="st393" d="M272.4,400.9c0,8.5-6.9,15.5-15.5,15.5c-8.5,0-15.5-6.9-15.5-15.5c0-8.5,6.9-15.5,15.5-15.5
					C265.5,385.4,272.4,392.3,272.4,400.9L272.4,400.9z"/>
				<path class="st393" d="M252.3,405.8c0,8.5-6.9,15.5-15.5,15.5s-15.5-6.9-15.5-15.5c0-8.5,6.9-15.5,15.5-15.5
					S252.3,397.3,252.3,405.8L252.3,405.8z"/>
				<path class="st393" d="M225.2,405.8c0,8.5-6.9,15.5-15.5,15.5c-8.5,0-15.5-6.9-15.5-15.5c0-8.5,6.9-15.5,15.5-15.5
					C218.3,390.4,225.2,397.3,225.2,405.8L225.2,405.8z"/>
				<path class="st393" d="M230.3,386.9c0,8.5-6.9,15.5-15.5,15.5s-15.5-6.9-15.5-15.5s6.9-15.5,15.5-15.5
					C223.4,371.4,230.3,378.3,230.3,386.9L230.3,386.9z"/>
				<path class="st395" d="M236.8,373.4c-1.8,0-3.6-0.2-5.3-0.5c-4.1,4.3-10.6,7-17.9,7c-7.2,0-13.6-2.7-17.7-6.8
					c-1.3,0.2-2.7,0.3-4,0.3c-10.5,0-19.2-5.7-21.7-13.3c-0.5,1.4-0.7,2.9-0.7,4.4c0,9.8,10.1,17.7,22.5,17.7c1.4,0,2.7-0.1,4-0.3
					c4.1,4.1,10.5,6.8,17.7,6.8c7.3,0,13.8-2.8,17.9-7c1.7,0.3,3.5,0.5,5.3,0.5c12.4,0,22.5-7.9,22.5-17.7c0-1.5-0.3-3-0.7-4.4
					C256,367.8,247.3,373.4,236.8,373.4L236.8,373.4z"/>
				<path class="st395" d="M232.2,405.8c-1.8,0-3.6-0.2-5.3-0.5c-4.1,4.3-10.6,7-17.9,7c-7.2,0-13.6-2.7-17.7-6.8
					c-1.3,0.2-2.7,0.3-4,0.3c-10.5,0-19.2-5.7-21.7-13.3c-0.5,1.4-0.7,2.9-0.7,4.4c0,9.8,10.1,17.7,22.5,17.7c1.4,0,2.7-0.1,4-0.3
					c4.1,4.1,10.5,6.8,17.7,6.8c7.3,0,13.8-2.8,17.9-7c1.7,0.3,3.5,0.5,5.3,0.5c12.4,0,22.5-7.9,22.5-17.7c0-1.5-0.3-3-0.7-4.4
					C251.4,400.2,242.7,405.8,232.2,405.8L232.2,405.8z"/>
			</g>
		</g>
	</g>
</g>
</svg>
